{"glyphs":{"0":{"ha":932,"x_min":106,"x_max":825,"o":"m 465 -11 q 294 1 361 -11 q 188 43 226 13 q 133 128 150 74 q 110 269 115 183 q 106 478 106 354 q 110 687 106 601 q 133 827 115 772 q 188 913 150 882 q 294 955 226 943 q 465 967 361 967 q 637 955 569 967 q 742 913 704 943 q 799 827 781 882 q 821 687 817 772 q 825 478 825 601 q 821 269 825 354 q 799 128 817 183 q 742 43 781 74 q 637 1 704 13 q 465 -11 569 -11 m 465 92 q 581 97 536 92 q 651 119 625 101 q 688 179 676 138 q 703 293 700 221 q 707 478 707 365 q 703 663 707 590 q 688 776 700 735 q 651 836 676 818 q 581 859 625 854 q 465 864 536 864 q 351 859 397 864 q 280 836 306 854 q 242 776 254 818 q 228 663 231 735 q 225 478 225 590 q 228 293 225 365 q 242 179 231 221 q 280 119 254 138 q 351 97 306 101 q 465 92 396 92 z "},"1":{"ha":522,"x_min":53,"x_max":369,"o":"m 250 0 l 250 819 l 53 724 l 53 831 l 285 956 l 369 956 l 369 0 l 250 0 z "},"2":{"ha":847,"x_min":97,"x_max":749,"o":"m 97 0 l 97 111 q 101 244 97 190 q 119 332 104 297 q 167 392 135 367 q 260 442 200 417 l 511 549 q 586 590 561 571 q 620 638 611 610 q 629 711 629 665 q 609 810 629 778 q 538 853 589 843 q 394 864 488 864 q 313 861 361 864 q 214 855 265 858 q 117 846 163 851 l 117 943 q 210 955 157 950 q 322 963 264 960 q 431 967 379 967 q 554 960 497 967 q 656 929 611 953 q 724 856 700 906 q 749 724 749 807 q 731 591 749 640 q 676 512 714 542 q 575 456 638 482 l 289 335 q 237 300 253 319 q 217 249 221 281 q 213 169 213 218 l 213 104 l 749 104 l 749 0 l 97 0 z "},"3":{"ha":835,"x_min":83,"x_max":732,"o":"m 367 -11 q 272 -8 324 -11 q 170 1 219 -4 q 83 13 121 7 l 83 108 q 182 100 131 104 q 279 94 233 96 q 358 92 325 92 q 497 102 440 92 q 583 148 554 113 q 611 260 611 183 q 593 362 611 324 q 535 416 575 400 q 428 432 494 432 l 249 432 l 249 536 l 428 536 q 514 549 475 536 q 576 596 553 561 q 600 699 600 631 q 575 808 600 774 q 494 853 550 843 q 344 864 438 864 q 261 861 307 864 q 170 855 215 858 q 89 846 125 851 l 89 943 q 175 955 126 950 q 275 963 224 960 q 368 967 326 967 q 538 951 469 967 q 646 906 606 936 q 703 828 686 875 q 721 715 721 781 q 678 560 721 611 q 558 490 636 508 l 558 485 q 650 451 611 475 q 710 381 689 428 q 732 256 732 333 q 717 145 732 194 q 664 61 703 96 q 553 8 625 26 q 367 -11 482 -11 z "},"4":{"ha":892,"x_min":64,"x_max":829,"o":"m 568 0 l 568 224 l 64 224 l 64 315 l 438 956 l 569 956 l 197 326 l 569 326 l 594 667 l 688 667 l 688 326 l 829 326 l 829 224 l 688 224 l 688 0 l 568 0 z "},"5":{"ha":860,"x_min":114,"x_max":764,"o":"m 399 -11 q 304 -8 356 -11 q 203 1 253 -4 q 114 13 153 6 l 114 108 q 214 100 163 104 q 311 94 265 96 q 390 92 357 92 q 517 101 468 92 q 594 131 567 110 q 632 190 621 153 q 643 282 643 226 q 631 380 643 343 q 590 435 619 417 q 507 459 560 453 q 371 465 454 465 q 302 463 343 465 q 215 457 261 461 q 125 447 169 453 l 125 956 l 693 956 l 693 851 l 235 851 l 235 554 q 299 562 263 558 q 374 567 336 565 q 446 568 413 568 q 611 551 549 568 q 706 499 674 535 q 751 413 739 464 q 764 296 764 363 q 748 152 764 211 q 692 58 732 93 q 582 6 653 22 q 399 -11 511 -11 z "},"6":{"ha":913,"x_min":106,"x_max":828,"o":"m 482 -11 q 319 -2 386 -11 q 208 37 251 7 q 140 129 164 67 q 119 208 126 161 q 109 320 113 256 q 106 468 106 385 q 109 607 106 544 q 120 718 113 669 q 140 804 128 767 q 208 904 164 869 q 322 953 253 939 q 492 967 392 967 q 576 963 528 967 q 676 954 624 960 q 775 942 728 949 l 775 846 q 684 855 732 851 q 592 861 636 858 q 517 864 549 864 q 362 850 419 864 q 275 799 304 836 q 236 690 246 761 q 226 501 226 618 l 235 501 q 278 534 250 518 q 359 560 306 550 q 503 571 413 571 q 653 561 590 571 q 754 524 715 551 q 810 443 793 496 q 828 303 828 390 q 815 150 828 211 q 764 54 801 89 q 658 4 726 19 q 482 -11 590 -11 m 471 92 q 590 97 543 92 q 664 122 638 103 q 700 176 690 140 q 710 276 710 213 q 700 382 710 343 q 665 440 690 421 q 593 463 640 458 q 471 468 546 468 q 340 460 389 468 q 269 433 292 451 q 238 385 246 414 q 231 314 231 356 q 242 193 231 238 q 281 126 254 149 q 354 98 308 104 q 471 92 400 92 z "},"7":{"ha":782,"x_min":57,"x_max":714,"o":"m 193 0 l 582 851 l 57 851 l 57 956 l 714 956 l 714 863 l 326 0 l 193 0 z "},"8":{"ha":949,"x_min":103,"x_max":844,"o":"m 474 -11 q 283 6 357 -11 q 171 58 210 24 q 117 141 132 92 q 103 256 103 190 q 123 383 103 338 q 182 450 143 428 q 276 485 221 472 l 276 490 q 151 559 192 507 q 111 715 111 611 q 128 826 111 779 q 185 905 144 874 q 296 951 225 936 q 474 967 367 967 q 651 951 581 967 q 763 905 722 936 q 819 826 803 874 q 836 715 836 779 q 796 559 836 611 q 671 490 756 507 l 671 485 q 766 450 728 472 q 824 383 804 428 q 844 256 844 338 q 830 141 844 190 q 776 58 815 92 q 664 6 736 24 q 474 -11 592 -11 m 474 92 q 624 103 569 92 q 701 151 678 115 q 724 260 724 188 q 713 351 724 317 q 674 403 701 385 q 599 426 647 421 q 474 432 550 432 q 349 426 397 432 q 273 403 300 421 q 235 351 246 385 q 225 260 225 317 q 247 151 225 188 q 324 103 269 115 q 474 92 378 92 m 474 535 q 624 548 572 535 q 695 597 675 561 q 715 699 715 632 q 697 801 715 765 q 626 850 678 836 q 474 864 574 864 q 322 850 374 864 q 251 801 269 836 q 233 699 233 765 q 253 597 233 632 q 324 548 272 561 q 474 535 376 535 z "},"9":{"ha":913,"x_min":85,"x_max":806,"o":"m 421 -11 q 335 -8 383 -11 q 235 1 286 -4 q 138 14 183 7 l 138 110 q 228 101 181 106 q 319 94 275 97 q 396 92 364 92 q 551 106 493 92 q 638 157 608 119 q 676 266 667 194 q 685 454 685 338 l 676 454 q 635 422 663 438 q 553 395 607 406 q 408 385 499 385 q 259 394 321 385 q 158 432 197 404 q 102 513 119 460 q 85 653 85 565 q 98 806 85 744 q 148 901 111 867 q 253 951 185 936 q 431 967 321 967 q 600 957 531 967 q 713 916 669 947 q 776 818 756 885 q 800 684 794 765 q 806 488 806 603 q 802 342 806 407 q 790 226 799 276 q 764 135 781 175 q 697 46 740 78 q 585 1 653 14 q 421 -11 518 -11 m 442 488 q 572 496 524 488 q 644 523 621 504 q 674 571 667 542 q 681 642 681 600 q 669 763 681 718 q 631 829 657 807 q 558 858 604 851 q 442 864 511 864 q 322 858 368 864 q 249 834 275 853 q 212 779 222 815 q 201 679 201 743 q 212 574 201 613 q 247 516 222 535 q 319 492 272 497 q 442 488 367 488 z "},"A":{"ha":950,"x_min":39,"x_max":910,"o":"m 39 0 l 400 956 l 550 956 l 910 0 l 786 0 l 688 261 l 258 261 l 160 0 l 39 0 m 294 365 l 651 365 l 476 833 l 469 833 l 294 365 z "},"Á":{"ha":950,"x_min":39,"x_max":910,"o":"m 39 0 l 400 956 l 550 956 l 910 0 l 786 0 l 688 261 l 258 261 l 160 0 l 39 0 m 294 365 l 651 365 l 476 833 l 469 833 l 294 365 m 401 1074 l 401 1081 l 542 1268 l 664 1268 l 664 1261 l 485 1074 l 401 1074 z "},"Ă":{"ha":950,"x_min":39,"x_max":910,"o":"m 39 0 l 400 956 l 550 956 l 910 0 l 786 0 l 688 261 l 258 261 l 160 0 l 39 0 m 294 365 l 651 365 l 476 833 l 469 833 l 294 365 m 474 1061 q 367 1076 406 1061 q 310 1117 328 1090 q 288 1181 293 1144 q 283 1261 283 1217 l 357 1261 q 362 1190 357 1219 q 391 1147 367 1161 q 474 1132 415 1132 q 556 1147 532 1132 q 586 1190 581 1161 q 592 1261 592 1219 l 665 1261 q 660 1181 665 1217 q 638 1117 656 1144 q 581 1076 619 1090 q 474 1061 542 1061 z "},"Ắ":{"ha":950,"x_min":39,"x_max":910,"o":"m 39 0 l 400 956 l 550 956 l 910 0 l 786 0 l 688 261 l 258 261 l 160 0 l 39 0 m 294 365 l 651 365 l 476 833 l 469 833 l 294 365 m 474 1061 q 367 1076 406 1061 q 310 1117 328 1090 q 288 1181 293 1144 q 283 1261 283 1217 l 357 1261 q 362 1190 357 1219 q 391 1147 367 1161 q 474 1132 415 1132 q 556 1147 532 1132 q 586 1190 581 1161 q 592 1261 592 1219 l 665 1261 q 660 1181 665 1217 q 638 1117 656 1144 q 581 1076 619 1090 q 474 1061 542 1061 m 401 1313 l 401 1319 l 542 1508 l 664 1508 l 664 1501 l 485 1313 l 401 1313 z "},"Ặ":{"ha":950,"x_min":39,"x_max":910,"o":"m 39 0 l 400 956 l 550 956 l 910 0 l 786 0 l 688 261 l 258 261 l 160 0 l 39 0 m 294 365 l 651 365 l 476 833 l 469 833 l 294 365 m 425 -267 l 425 -161 l 525 -161 l 525 -267 l 425 -267 m 474 1061 q 367 1076 406 1061 q 310 1117 328 1090 q 288 1181 293 1144 q 283 1261 283 1217 l 357 1261 q 362 1190 357 1219 q 391 1147 367 1161 q 474 1132 415 1132 q 556 1147 532 1132 q 586 1190 581 1161 q 592 1261 592 1219 l 665 1261 q 660 1181 665 1217 q 638 1117 656 1144 q 581 1076 619 1090 q 474 1061 542 1061 z "},"Ằ":{"ha":950,"x_min":39,"x_max":910,"o":"m 39 0 l 400 956 l 550 956 l 910 0 l 786 0 l 688 261 l 258 261 l 160 0 l 39 0 m 294 365 l 651 365 l 476 833 l 469 833 l 294 365 m 474 1061 q 367 1076 406 1061 q 310 1118 328 1092 q 288 1181 293 1144 q 283 1261 283 1218 l 357 1261 q 362 1191 357 1219 q 391 1147 367 1163 q 474 1132 415 1132 q 556 1147 532 1132 q 586 1191 581 1163 q 592 1261 592 1219 l 665 1261 q 660 1181 665 1218 q 638 1118 656 1144 q 581 1076 619 1092 q 474 1061 542 1061 m 472 1313 l 294 1500 l 294 1507 l 417 1507 l 557 1319 l 557 1313 l 472 1313 z "},"Ẳ":{"ha":950,"x_min":39,"x_max":910,"o":"m 39 0 l 400 956 l 550 956 l 910 0 l 786 0 l 688 261 l 258 261 l 160 0 l 39 0 m 294 365 l 651 365 l 476 833 l 469 833 l 294 365 m 474 1061 q 367 1076 406 1061 q 310 1118 328 1092 q 288 1181 293 1144 q 283 1261 283 1218 l 357 1261 q 362 1191 357 1219 q 391 1147 367 1163 q 474 1132 415 1132 q 556 1147 532 1132 q 586 1191 581 1163 q 592 1261 592 1219 l 665 1261 q 660 1181 665 1218 q 638 1118 656 1144 q 581 1076 619 1092 q 474 1061 542 1061 m 413 1293 l 413 1307 q 418 1342 413 1328 q 437 1367 424 1357 q 474 1382 450 1376 l 506 1392 q 552 1408 536 1401 q 573 1423 568 1414 q 578 1449 578 1432 q 567 1486 578 1476 q 529 1499 556 1496 q 456 1501 503 1501 q 414 1501 439 1501 q 363 1499 389 1500 q 313 1494 336 1497 l 313 1554 q 393 1563 347 1560 q 475 1565 439 1565 q 576 1558 536 1565 q 636 1528 615 1551 q 657 1457 657 1506 q 649 1407 657 1426 q 624 1376 642 1388 q 571 1354 606 1364 l 536 1344 q 498 1331 510 1336 q 483 1318 486 1326 q 481 1293 481 1310 l 413 1293 z "},"Ẵ":{"ha":950,"x_min":39,"x_max":910,"o":"m 39 0 l 400 956 l 550 956 l 910 0 l 786 0 l 688 261 l 258 261 l 160 0 l 39 0 m 294 365 l 651 365 l 476 833 l 469 833 l 294 365 m 474 1061 q 367 1076 406 1061 q 310 1117 328 1090 q 288 1181 293 1144 q 283 1261 283 1217 l 357 1261 q 362 1190 357 1219 q 391 1147 367 1161 q 474 1132 415 1132 q 556 1147 532 1132 q 586 1190 581 1161 q 592 1261 592 1219 l 665 1261 q 660 1181 665 1217 q 638 1117 656 1144 q 581 1076 619 1090 q 474 1061 542 1061 m 239 1322 q 245 1413 239 1378 q 273 1464 251 1447 q 340 1481 294 1481 q 417 1470 379 1481 q 492 1447 456 1460 q 549 1429 521 1438 q 604 1421 576 1421 q 641 1438 635 1421 q 647 1496 647 1454 l 713 1496 q 706 1407 713 1442 q 678 1355 700 1372 q 611 1338 657 1338 q 533 1349 569 1338 q 460 1371 497 1360 q 402 1390 431 1381 q 347 1399 374 1399 q 311 1382 318 1399 q 304 1322 304 1365 l 239 1322 z "},"Ǎ":{"ha":950,"x_min":39,"x_max":910,"o":"m 39 0 l 400 956 l 550 956 l 910 0 l 786 0 l 688 261 l 258 261 l 160 0 l 39 0 m 294 365 l 651 365 l 476 833 l 469 833 l 294 365 m 415 1074 l 274 1260 l 274 1268 l 351 1268 l 474 1133 l 597 1268 l 675 1268 l 675 1260 l 533 1074 l 415 1074 z "},"Â":{"ha":950,"x_min":39,"x_max":910,"o":"m 39 0 l 400 956 l 550 956 l 910 0 l 786 0 l 688 261 l 258 261 l 160 0 l 39 0 m 294 365 l 651 365 l 476 833 l 469 833 l 294 365 m 274 1074 l 274 1082 l 415 1269 l 533 1269 l 675 1082 l 675 1074 l 597 1074 l 474 1208 l 351 1074 l 274 1074 z "},"Ấ":{"ha":950,"x_min":39,"x_max":910,"o":"m 39 0 l 400 956 l 550 956 l 910 0 l 786 0 l 688 261 l 258 261 l 160 0 l 39 0 m 294 365 l 651 365 l 476 833 l 469 833 l 294 365 m 274 1074 l 274 1082 l 415 1269 l 533 1269 l 675 1082 l 675 1074 l 597 1074 l 474 1208 l 351 1074 l 274 1074 m 401 1321 l 401 1328 l 542 1515 l 664 1515 l 664 1508 l 485 1321 l 401 1321 z "},"Ậ":{"ha":950,"x_min":39,"x_max":910,"o":"m 39 0 l 400 956 l 550 956 l 910 0 l 786 0 l 688 261 l 258 261 l 160 0 l 39 0 m 294 365 l 651 365 l 476 833 l 469 833 l 294 365 m 425 -267 l 425 -161 l 525 -161 l 525 -267 l 425 -267 m 274 1074 l 274 1082 l 415 1269 l 533 1269 l 675 1082 l 675 1074 l 597 1074 l 474 1208 l 351 1074 l 274 1074 z "},"Ầ":{"ha":950,"x_min":39,"x_max":910,"o":"m 39 0 l 400 956 l 550 956 l 910 0 l 786 0 l 688 261 l 258 261 l 160 0 l 39 0 m 294 365 l 651 365 l 476 833 l 469 833 l 294 365 m 274 1074 l 274 1082 l 415 1269 l 533 1269 l 675 1082 l 675 1074 l 597 1074 l 474 1208 l 351 1074 l 274 1074 m 467 1321 l 288 1508 l 288 1515 l 410 1515 l 550 1328 l 550 1321 l 467 1321 z "},"Ẩ":{"ha":950,"x_min":39,"x_max":910,"o":"m 39 0 l 400 956 l 550 956 l 910 0 l 786 0 l 688 261 l 258 261 l 160 0 l 39 0 m 294 365 l 651 365 l 476 833 l 469 833 l 294 365 m 274 1074 l 274 1082 l 415 1269 l 533 1269 l 675 1082 l 675 1074 l 597 1074 l 474 1208 l 351 1074 l 274 1074 m 411 1301 l 411 1315 q 417 1350 411 1336 q 435 1374 422 1364 q 474 1390 449 1383 l 504 1399 q 551 1415 536 1408 q 572 1431 567 1422 q 576 1457 576 1440 q 566 1494 576 1483 q 529 1507 556 1504 q 454 1510 503 1510 q 413 1509 438 1510 q 362 1507 389 1508 q 313 1503 335 1506 l 313 1563 q 392 1570 346 1567 q 474 1574 438 1574 q 575 1567 535 1574 q 635 1537 615 1560 q 656 1465 656 1514 q 649 1415 656 1435 q 623 1383 642 1396 q 569 1361 604 1371 l 536 1351 q 497 1339 508 1344 q 482 1326 485 1333 q 479 1301 479 1318 l 411 1301 z "},"Ẫ":{"ha":950,"x_min":39,"x_max":910,"o":"m 39 0 l 400 956 l 550 956 l 910 0 l 786 0 l 688 261 l 258 261 l 160 0 l 39 0 m 294 365 l 651 365 l 476 833 l 469 833 l 294 365 m 274 1074 l 274 1082 l 415 1269 l 533 1269 l 675 1082 l 675 1074 l 597 1074 l 474 1208 l 351 1074 l 274 1074 m 238 1331 q 244 1419 238 1385 q 272 1472 250 1454 q 340 1489 294 1489 q 417 1478 379 1489 q 492 1456 454 1468 q 548 1438 521 1446 q 603 1429 575 1429 q 640 1445 633 1429 q 646 1504 646 1461 l 711 1504 q 705 1415 711 1450 q 677 1363 699 1381 q 610 1346 656 1346 q 532 1357 568 1346 q 458 1379 496 1368 q 401 1397 429 1389 q 347 1406 374 1406 q 310 1390 317 1406 q 304 1331 304 1374 l 238 1331 z "},"Ȁ":{"ha":950,"x_min":39,"x_max":910,"o":"m 39 0 l 400 956 l 550 956 l 910 0 l 786 0 l 688 261 l 258 261 l 160 0 l 39 0 m 294 365 l 651 365 l 476 833 l 469 833 l 294 365 m 672 1074 l 600 1074 l 442 1236 l 442 1243 l 549 1243 l 672 1081 l 672 1074 m 421 1074 l 349 1074 l 190 1236 l 190 1243 l 299 1243 l 421 1081 l 421 1074 z "},"Ä":{"ha":950,"x_min":39,"x_max":910,"o":"m 39 0 l 400 956 l 550 956 l 910 0 l 786 0 l 688 261 l 258 261 l 160 0 l 39 0 m 294 365 l 651 365 l 476 833 l 469 833 l 294 365 m 278 1119 l 278 1231 l 385 1231 l 385 1119 l 278 1119 m 565 1119 l 565 1231 l 671 1231 l 671 1119 l 565 1119 z "},"Ạ":{"ha":950,"x_min":39,"x_max":910,"o":"m 39 0 l 400 956 l 550 956 l 910 0 l 786 0 l 688 261 l 258 261 l 160 0 l 39 0 m 294 365 l 651 365 l 476 833 l 469 833 l 294 365 m 425 -267 l 425 -161 l 525 -161 l 525 -267 l 425 -267 z "},"À":{"ha":950,"x_min":39,"x_max":910,"o":"m 39 0 l 400 956 l 550 956 l 910 0 l 786 0 l 688 261 l 258 261 l 160 0 l 39 0 m 294 365 l 651 365 l 476 833 l 469 833 l 294 365 m 467 1074 l 288 1261 l 288 1268 l 410 1268 l 550 1081 l 550 1074 l 467 1074 z "},"Ả":{"ha":950,"x_min":39,"x_max":910,"o":"m 39 0 l 400 956 l 550 956 l 910 0 l 786 0 l 688 261 l 258 261 l 160 0 l 39 0 m 294 365 l 651 365 l 476 833 l 469 833 l 294 365 m 413 1054 l 413 1068 q 418 1103 413 1089 q 437 1126 424 1117 q 474 1143 450 1136 l 506 1151 q 552 1168 536 1161 q 572 1184 568 1175 q 576 1210 576 1193 q 566 1247 576 1236 q 529 1260 556 1257 q 456 1263 503 1263 q 414 1262 439 1263 q 362 1260 389 1261 q 313 1256 335 1258 l 313 1315 q 393 1323 347 1319 q 475 1326 439 1326 q 575 1319 535 1326 q 635 1290 615 1313 q 656 1218 656 1267 q 649 1168 656 1188 q 624 1136 642 1149 q 571 1114 606 1124 l 536 1104 q 497 1092 510 1097 q 482 1078 485 1086 q 479 1054 479 1071 l 413 1054 z "},"Ȃ":{"ha":950,"x_min":39,"x_max":910,"o":"m 39 0 l 400 956 l 550 956 l 910 0 l 786 0 l 688 261 l 258 261 l 160 0 l 39 0 m 294 365 l 651 365 l 476 833 l 469 833 l 294 365 m 476 1274 q 583 1259 544 1274 q 639 1217 621 1244 q 661 1154 657 1190 q 665 1074 665 1118 l 593 1074 q 588 1144 593 1115 q 559 1188 583 1174 q 476 1203 535 1203 q 393 1188 418 1203 q 363 1144 368 1174 q 357 1074 357 1115 l 283 1074 q 288 1154 283 1118 q 311 1217 293 1190 q 369 1259 329 1244 q 476 1274 408 1274 z "},"Ā":{"ha":950,"x_min":39,"x_max":910,"o":"m 39 0 l 400 956 l 550 956 l 910 0 l 786 0 l 688 261 l 258 261 l 160 0 l 39 0 m 294 365 l 651 365 l 476 833 l 469 833 l 294 365 m 274 1119 l 274 1199 l 675 1199 l 675 1119 l 274 1119 z "},"Ą":{"ha":950,"x_min":39,"x_max":911,"o":"m 39 0 l 400 956 l 550 956 l 910 0 l 786 0 l 688 261 l 258 261 l 160 0 l 39 0 m 294 365 l 651 365 l 476 833 l 469 833 l 294 365 m 858 -278 q 778 -263 807 -278 q 737 -224 749 -249 q 725 -171 725 -200 q 754 -76 725 -126 q 829 14 783 -25 l 911 0 q 872 -39 893 -14 q 838 -92 851 -64 q 824 -147 824 -121 q 838 -187 824 -171 q 889 -203 851 -203 q 899 -203 893 -203 q 913 -201 906 -203 l 913 -275 q 885 -277 899 -276 q 858 -278 872 -278 z "},"Å":{"ha":950,"x_min":39,"x_max":910,"o":"m 39 0 l 400 956 l 550 956 l 910 0 l 786 0 l 688 261 l 258 261 l 160 0 l 39 0 m 294 365 l 651 365 l 476 833 l 469 833 l 294 365 m 474 932 q 376 940 411 932 q 324 965 340 947 q 303 1010 308 982 q 299 1076 299 1038 q 303 1143 299 1115 q 324 1188 308 1171 q 376 1214 340 1206 q 474 1222 411 1222 q 574 1214 538 1222 q 626 1188 610 1206 q 647 1143 643 1171 q 651 1076 651 1115 q 647 1010 651 1038 q 626 965 643 982 q 574 940 610 947 q 474 932 538 932 m 474 990 q 548 998 526 990 q 574 1024 569 1006 q 579 1076 579 1043 q 574 1129 579 1110 q 548 1156 569 1149 q 474 1164 526 1164 q 402 1156 424 1164 q 376 1129 381 1149 q 371 1076 371 1110 q 376 1024 371 1043 q 402 998 381 1006 q 474 990 424 990 z "},"Ǻ":{"ha":950,"x_min":39,"x_max":910,"o":"m 39 0 l 400 956 l 550 956 l 910 0 l 786 0 l 688 261 l 258 261 l 160 0 l 39 0 m 294 365 l 651 365 l 476 833 l 469 833 l 294 365 m 474 931 q 376 938 411 931 q 324 963 340 946 q 303 1008 308 981 q 299 1075 299 1036 q 303 1142 299 1114 q 324 1187 308 1169 q 376 1213 340 1204 q 474 1221 411 1221 q 574 1213 538 1221 q 626 1187 610 1204 q 647 1142 643 1169 q 651 1075 651 1114 q 647 1008 651 1036 q 626 963 643 981 q 574 938 610 946 q 474 931 538 931 m 474 989 q 548 997 526 989 q 574 1023 569 1004 q 579 1075 579 1042 q 574 1128 579 1108 q 548 1155 569 1147 q 474 1163 526 1163 q 402 1155 424 1163 q 376 1128 381 1147 q 371 1075 371 1108 q 376 1023 371 1042 q 402 997 381 1004 q 474 989 424 989 m 403 1292 l 403 1299 l 543 1486 l 665 1486 l 665 1479 l 486 1292 l 403 1292 z "},"Ã":{"ha":950,"x_min":39,"x_max":910,"o":"m 39 0 l 400 956 l 550 956 l 910 0 l 786 0 l 688 261 l 258 261 l 160 0 l 39 0 m 294 365 l 651 365 l 476 833 l 469 833 l 294 365 m 238 1083 q 244 1172 238 1138 q 272 1224 250 1207 q 340 1242 294 1242 q 417 1231 379 1242 q 492 1208 454 1221 q 548 1190 521 1199 q 603 1182 575 1182 q 640 1198 633 1182 q 646 1257 646 1214 l 711 1257 q 705 1168 711 1203 q 677 1116 699 1133 q 610 1099 656 1099 q 533 1110 568 1099 q 458 1132 497 1121 q 401 1150 429 1142 q 347 1158 374 1158 q 310 1142 317 1158 q 304 1083 304 1126 l 238 1083 z "},"Æ":{"ha":1326,"x_min":-10,"x_max":1247,"o":"m -10 0 l 456 956 l 1247 956 l 1247 853 l 632 853 l 719 535 l 1182 535 l 1182 431 l 744 431 l 835 103 l 1247 103 l 1247 0 l 736 0 l 667 261 l 238 261 l 111 0 l -10 0 m 285 365 l 642 365 l 518 833 l 511 833 l 285 365 z "},"Ǽ":{"ha":1326,"x_min":-10,"x_max":1247,"o":"m -10 0 l 456 956 l 1247 956 l 1247 853 l 632 853 l 719 535 l 1182 535 l 1182 431 l 744 431 l 835 103 l 1247 103 l 1247 0 l 736 0 l 667 261 l 238 261 l 111 0 l -10 0 m 285 365 l 642 365 l 518 833 l 511 833 l 285 365 m 586 1074 l 586 1081 l 726 1268 l 849 1268 l 849 1261 l 669 1074 l 586 1074 z "},"B":{"ha":947,"x_min":139,"x_max":847,"o":"m 139 0 l 139 956 l 583 956 q 733 926 678 956 q 813 844 789 897 q 836 715 836 790 q 819 608 836 654 q 767 532 803 561 q 674 490 732 503 l 674 485 q 782 440 744 472 q 833 358 819 407 q 847 251 847 310 q 835 156 847 201 q 795 75 824 110 q 714 20 767 40 q 578 0 661 0 l 139 0 m 258 103 l 550 103 q 657 119 618 103 q 712 172 696 135 q 728 267 728 208 q 710 363 728 326 q 654 416 693 400 q 550 432 615 432 l 258 432 l 258 103 m 258 536 l 544 536 q 641 553 603 536 q 698 605 679 569 q 717 693 717 640 q 702 786 717 751 q 650 837 688 821 q 544 853 613 853 l 258 853 l 258 536 z "},"C":{"ha":799,"x_min":106,"x_max":719,"o":"m 490 -11 q 322 1 390 -11 q 211 42 254 13 q 145 127 168 72 q 114 268 122 182 q 106 478 106 354 q 114 687 106 601 q 145 827 122 772 q 211 913 168 882 q 322 955 254 943 q 490 967 390 967 q 570 964 529 967 q 649 957 611 961 q 714 946 686 953 l 714 850 q 648 858 682 854 q 581 863 614 861 q 521 864 547 864 q 386 857 440 864 q 300 830 332 850 q 252 767 268 810 q 231 655 236 725 q 225 478 225 585 q 231 301 225 371 q 252 188 236 231 q 300 126 268 146 q 386 99 332 106 q 521 92 440 92 q 624 96 568 92 q 719 106 679 100 l 719 7 q 651 -2 690 1 q 569 -8 611 -6 q 490 -11 528 -11 z "},"Ć":{"ha":799,"x_min":106,"x_max":719,"o":"m 490 -11 q 322 1 390 -11 q 211 42 254 13 q 145 127 168 72 q 114 268 122 182 q 106 478 106 354 q 114 687 106 601 q 145 827 122 772 q 211 913 168 882 q 322 955 254 943 q 490 967 390 967 q 570 964 529 967 q 649 957 611 961 q 714 946 686 953 l 714 850 q 648 858 682 854 q 581 863 614 861 q 521 864 547 864 q 386 857 440 864 q 300 830 332 850 q 252 767 268 810 q 231 655 236 725 q 225 478 225 585 q 231 301 225 371 q 252 188 236 231 q 300 126 268 146 q 386 99 332 106 q 521 92 440 92 q 624 96 568 92 q 719 106 679 100 l 719 7 q 651 -2 690 1 q 569 -8 611 -6 q 490 -11 528 -11 m 388 1074 l 388 1081 l 528 1268 l 650 1268 l 650 1261 l 471 1074 l 388 1074 z "},"Č":{"ha":799,"x_min":106,"x_max":719,"o":"m 490 -11 q 322 1 390 -11 q 211 42 254 13 q 145 127 168 72 q 114 268 122 182 q 106 478 106 354 q 114 687 106 601 q 145 827 122 772 q 211 913 168 882 q 322 955 254 943 q 490 967 390 967 q 570 964 529 967 q 649 957 611 961 q 714 946 686 953 l 714 850 q 648 858 682 854 q 581 863 614 861 q 521 864 547 864 q 386 857 440 864 q 300 830 332 850 q 252 767 268 810 q 231 655 236 725 q 225 478 225 585 q 231 301 225 371 q 252 188 236 231 q 300 126 268 146 q 386 99 332 106 q 521 92 440 92 q 624 96 568 92 q 719 106 679 100 l 719 7 q 651 -2 690 1 q 569 -8 611 -6 q 490 -11 528 -11 m 401 1074 l 260 1260 l 260 1268 l 338 1268 l 460 1133 l 583 1268 l 661 1268 l 661 1260 l 519 1074 l 401 1074 z "},"Ç":{"ha":799,"x_min":106,"x_max":719,"o":"m 490 -11 q 322 1 390 -11 q 211 42 254 13 q 145 127 168 72 q 114 268 122 182 q 106 478 106 354 q 114 687 106 601 q 145 827 122 772 q 211 913 168 882 q 322 955 254 943 q 490 967 390 967 q 570 964 529 967 q 649 957 611 961 q 714 946 686 953 l 714 850 q 648 858 682 854 q 581 863 614 861 q 521 864 547 864 q 386 857 440 864 q 300 830 332 850 q 252 767 268 810 q 231 655 236 725 q 225 478 225 585 q 231 301 225 371 q 252 188 236 231 q 300 126 268 146 q 386 99 332 106 q 521 92 440 92 q 624 96 568 92 q 719 106 679 100 l 719 7 q 651 -2 690 1 q 569 -8 611 -6 q 490 -11 528 -11 m 336 -264 l 336 -257 l 431 25 l 507 25 l 507 18 l 449 -264 l 336 -264 z "},"Ĉ":{"ha":799,"x_min":106,"x_max":719,"o":"m 490 -11 q 322 1 390 -11 q 211 42 254 13 q 145 127 168 72 q 114 268 122 182 q 106 478 106 354 q 114 687 106 601 q 145 827 122 772 q 211 913 168 882 q 322 955 254 943 q 490 967 390 967 q 570 964 529 967 q 649 957 611 961 q 714 946 686 953 l 714 850 q 648 858 682 854 q 581 863 614 861 q 521 864 547 864 q 386 857 440 864 q 300 830 332 850 q 252 767 268 810 q 231 655 236 725 q 225 478 225 585 q 231 301 225 371 q 252 188 236 231 q 300 126 268 146 q 386 99 332 106 q 521 92 440 92 q 624 96 568 92 q 719 106 679 100 l 719 7 q 651 -2 690 1 q 569 -8 611 -6 q 490 -11 528 -11 m 260 1074 l 260 1082 l 401 1269 l 519 1269 l 661 1082 l 661 1074 l 583 1074 l 460 1208 l 338 1074 l 260 1074 z "},"Ċ":{"ha":799,"x_min":106,"x_max":719,"o":"m 490 -11 q 322 1 390 -11 q 211 42 254 13 q 145 127 168 72 q 114 268 122 182 q 106 478 106 354 q 114 687 106 601 q 145 827 122 772 q 211 913 168 882 q 322 955 254 943 q 490 967 390 967 q 570 964 529 967 q 649 957 611 961 q 714 946 686 953 l 714 850 q 648 858 682 854 q 581 863 614 861 q 521 864 547 864 q 386 857 440 864 q 300 830 332 850 q 252 767 268 810 q 231 655 236 725 q 225 478 225 585 q 231 301 225 371 q 252 188 236 231 q 300 126 268 146 q 386 99 332 106 q 521 92 440 92 q 624 96 568 92 q 719 106 679 100 l 719 7 q 651 -2 690 1 q 569 -8 611 -6 q 490 -11 528 -11 m 407 1119 l 407 1232 l 514 1232 l 514 1119 l 407 1119 z "},"D":{"ha":957,"x_min":139,"x_max":850,"o":"m 139 0 l 139 956 l 442 956 q 635 944 560 956 q 753 904 710 933 q 818 821 797 875 q 844 683 839 767 q 850 478 850 600 q 844 272 850 356 q 818 135 839 189 q 753 51 797 81 q 635 11 710 22 q 442 0 560 0 l 139 0 m 258 103 l 422 103 q 567 107 510 103 q 657 128 624 111 q 706 185 690 146 q 726 296 721 225 q 731 478 731 367 q 726 659 731 589 q 705 769 721 729 q 656 827 689 810 q 566 849 622 844 q 422 853 510 853 l 258 853 l 258 103 z "},"Ǳ":{"ha":1799,"x_min":139,"x_max":1728,"o":"m 139 0 l 139 956 l 442 956 q 635 944 560 956 q 753 904 710 933 q 818 821 797 875 q 844 683 839 767 q 850 478 850 600 q 844 272 850 356 q 818 135 839 189 q 753 51 797 81 q 635 11 710 22 q 442 0 560 0 l 139 0 m 258 103 l 422 103 q 567 107 510 103 q 657 128 624 111 q 706 185 690 146 q 726 296 721 225 q 731 478 731 367 q 726 659 731 589 q 705 769 721 729 q 656 827 689 810 q 566 849 622 844 q 422 853 510 853 l 258 853 l 258 103 m 1031 0 l 1031 99 l 1569 853 l 1046 853 l 1046 956 l 1721 956 l 1721 860 l 1181 103 l 1729 103 l 1729 0 l 1031 0 z "},"Ǆ":{"ha":1799,"x_min":139,"x_max":1728,"o":"m 139 0 l 139 956 l 442 956 q 635 944 560 956 q 753 904 710 933 q 818 821 797 875 q 844 683 839 767 q 850 478 850 600 q 844 272 850 356 q 818 135 839 189 q 753 51 797 81 q 635 11 710 22 q 442 0 560 0 l 139 0 m 258 103 l 422 103 q 567 107 510 103 q 657 128 624 111 q 706 185 690 146 q 726 296 721 225 q 731 478 731 367 q 726 659 731 589 q 705 769 721 729 q 656 827 689 810 q 566 849 622 844 q 422 853 510 853 l 258 853 l 258 103 m 1031 0 l 1031 99 l 1569 853 l 1046 853 l 1046 956 l 1721 956 l 1721 860 l 1181 103 l 1729 103 l 1729 0 l 1031 0 m 1318 1074 l 1176 1260 l 1176 1268 l 1254 1268 l 1376 1133 l 1500 1268 l 1578 1268 l 1578 1260 l 1436 1074 l 1318 1074 z "},"Ð":{"ha":957,"x_min":43,"x_max":850,"o":"m 139 0 l 139 436 l 43 436 l 43 532 l 139 532 l 139 956 l 442 956 q 635 944 560 956 q 753 904 710 933 q 818 821 797 875 q 844 683 839 767 q 850 478 850 600 q 844 272 850 356 q 818 135 839 189 q 753 51 797 81 q 635 11 710 22 q 442 0 560 0 l 139 0 m 258 103 l 422 103 q 567 107 510 103 q 657 128 624 111 q 706 185 690 146 q 726 296 721 225 q 731 478 731 367 q 726 659 731 589 q 705 769 721 729 q 656 827 689 810 q 566 849 622 844 q 422 853 510 853 l 258 853 l 258 532 l 411 532 l 411 436 l 258 436 l 258 103 z "},"Ď":{"ha":957,"x_min":139,"x_max":850,"o":"m 139 0 l 139 956 l 442 956 q 635 944 560 956 q 753 904 710 933 q 818 821 797 875 q 844 683 839 767 q 850 478 850 600 q 844 272 850 356 q 818 135 839 189 q 753 51 797 81 q 635 11 710 22 q 442 0 560 0 l 139 0 m 258 103 l 422 103 q 567 107 510 103 q 657 128 624 111 q 706 185 690 146 q 726 296 721 225 q 731 478 731 367 q 726 659 731 589 q 705 769 721 729 q 656 827 689 810 q 566 849 622 844 q 422 853 510 853 l 258 853 l 258 103 m 419 1074 l 278 1260 l 278 1268 l 356 1268 l 478 1133 l 601 1268 l 679 1268 l 679 1260 l 538 1074 l 419 1074 z "},"Đ":{"ha":957,"x_min":43,"x_max":850,"o":"m 139 0 l 139 436 l 43 436 l 43 532 l 139 532 l 139 956 l 442 956 q 635 944 560 956 q 753 904 710 933 q 818 821 797 875 q 844 683 839 767 q 850 478 850 600 q 844 272 850 356 q 818 135 839 189 q 753 51 797 81 q 635 11 710 22 q 442 0 560 0 l 139 0 m 258 103 l 422 103 q 567 107 510 103 q 657 128 624 111 q 706 185 690 146 q 726 296 721 225 q 731 478 731 367 q 726 659 731 589 q 705 769 721 729 q 656 827 689 810 q 566 849 622 844 q 422 853 510 853 l 258 853 l 258 532 l 411 532 l 411 436 l 258 436 l 258 103 z "},"Ḍ":{"ha":957,"x_min":139,"x_max":850,"o":"m 139 0 l 139 956 l 442 956 q 635 944 560 956 q 753 904 710 933 q 818 821 797 875 q 844 683 839 767 q 850 478 850 600 q 844 272 850 356 q 818 135 839 189 q 753 51 797 81 q 635 11 710 22 q 442 0 560 0 l 139 0 m 258 103 l 422 103 q 567 107 510 103 q 657 128 624 111 q 706 185 690 146 q 726 296 721 225 q 731 478 731 367 q 726 659 731 589 q 705 769 721 729 q 656 827 689 810 q 566 849 622 844 q 422 853 510 853 l 258 853 l 258 103 m 429 -267 l 429 -161 l 529 -161 l 529 -267 l 429 -267 z "},"ǲ":{"ha":1663,"x_min":139,"x_max":1589,"o":"m 139 0 l 139 956 l 442 956 q 635 944 560 956 q 753 904 710 933 q 818 821 797 875 q 844 683 839 767 q 850 478 850 600 q 844 272 850 356 q 818 135 839 189 q 753 51 797 81 q 635 11 710 22 q 442 0 560 0 l 139 0 m 258 103 l 422 103 q 567 107 510 103 q 657 128 624 111 q 706 185 690 146 q 726 296 721 225 q 731 478 731 367 q 726 659 731 589 q 705 769 721 729 q 656 827 689 810 q 566 849 622 844 q 422 853 510 853 l 258 853 l 258 103 m 1029 0 l 1029 88 l 1442 613 l 1046 613 l 1046 708 l 1588 708 l 1588 621 l 1176 96 l 1590 96 l 1590 0 l 1029 0 z "},"ǅ":{"ha":1663,"x_min":139,"x_max":1589,"o":"m 139 0 l 139 956 l 442 956 q 635 944 560 956 q 753 904 710 933 q 818 821 797 875 q 844 683 839 767 q 850 478 850 600 q 844 272 850 356 q 818 135 839 189 q 753 51 797 81 q 635 11 710 22 q 442 0 560 0 l 139 0 m 258 103 l 422 103 q 567 107 510 103 q 657 128 624 111 q 706 185 690 146 q 726 296 721 225 q 731 478 731 367 q 726 659 731 589 q 705 769 721 729 q 656 827 689 810 q 566 849 622 844 q 422 853 510 853 l 258 853 l 258 103 m 1029 0 l 1029 88 l 1442 613 l 1046 613 l 1046 708 l 1588 708 l 1588 621 l 1176 96 l 1590 96 l 1590 0 l 1029 0 m 1258 826 l 1117 1013 l 1117 1021 l 1194 1021 l 1317 886 l 1440 1021 l 1518 1021 l 1518 1013 l 1376 826 l 1258 826 z "},"E":{"ha":838,"x_min":139,"x_max":760,"o":"m 139 0 l 139 956 l 760 956 l 760 853 l 258 853 l 258 535 l 694 535 l 694 431 l 258 431 l 258 103 l 760 103 l 760 0 l 139 0 z "},"É":{"ha":838,"x_min":139,"x_max":760,"o":"m 139 0 l 139 956 l 760 956 l 760 853 l 258 853 l 258 535 l 694 535 l 694 431 l 258 431 l 258 103 l 760 103 l 760 0 l 139 0 m 385 1074 l 385 1081 l 525 1268 l 647 1268 l 647 1261 l 468 1074 l 385 1074 z "},"Ĕ":{"ha":838,"x_min":139,"x_max":760,"o":"m 139 0 l 139 956 l 760 956 l 760 853 l 258 853 l 258 535 l 694 535 l 694 431 l 258 431 l 258 103 l 760 103 l 760 0 l 139 0 m 457 1061 q 350 1076 389 1061 q 294 1117 311 1090 q 272 1181 276 1144 q 267 1261 267 1217 l 340 1261 q 345 1190 340 1219 q 374 1147 350 1161 q 457 1132 399 1132 q 540 1147 515 1132 q 569 1190 564 1161 q 575 1261 575 1219 l 649 1261 q 644 1181 649 1217 q 621 1117 639 1144 q 564 1076 603 1090 q 457 1061 525 1061 z "},"Ě":{"ha":838,"x_min":139,"x_max":760,"o":"m 139 0 l 139 956 l 760 956 l 760 853 l 258 853 l 258 535 l 694 535 l 694 431 l 258 431 l 258 103 l 760 103 l 760 0 l 139 0 m 399 1074 l 257 1260 l 257 1268 l 335 1268 l 457 1133 l 581 1268 l 658 1268 l 658 1260 l 517 1074 l 399 1074 z "},"Ê":{"ha":838,"x_min":139,"x_max":760,"o":"m 139 0 l 139 956 l 760 956 l 760 853 l 258 853 l 258 535 l 694 535 l 694 431 l 258 431 l 258 103 l 760 103 l 760 0 l 139 0 m 257 1074 l 257 1082 l 399 1269 l 517 1269 l 658 1082 l 658 1074 l 581 1074 l 457 1208 l 335 1074 l 257 1074 z "},"Ế":{"ha":838,"x_min":139,"x_max":760,"o":"m 139 0 l 139 956 l 760 956 l 760 853 l 258 853 l 258 535 l 694 535 l 694 431 l 258 431 l 258 103 l 760 103 l 760 0 l 139 0 m 257 1074 l 257 1082 l 399 1269 l 517 1269 l 658 1082 l 658 1074 l 581 1074 l 457 1208 l 335 1074 l 257 1074 m 385 1321 l 385 1328 l 525 1515 l 647 1515 l 647 1508 l 468 1321 l 385 1321 z "},"Ệ":{"ha":838,"x_min":139,"x_max":760,"o":"m 139 0 l 139 956 l 760 956 l 760 853 l 258 853 l 258 535 l 694 535 l 694 431 l 258 431 l 258 103 l 760 103 l 760 0 l 139 0 m 408 -267 l 408 -161 l 508 -161 l 508 -267 l 408 -267 m 257 1074 l 257 1082 l 399 1269 l 517 1269 l 658 1082 l 658 1074 l 581 1074 l 457 1208 l 335 1074 l 257 1074 z "},"Ề":{"ha":838,"x_min":139,"x_max":760,"o":"m 139 0 l 139 956 l 760 956 l 760 853 l 258 853 l 258 535 l 694 535 l 694 431 l 258 431 l 258 103 l 760 103 l 760 0 l 139 0 m 257 1074 l 257 1082 l 399 1269 l 517 1269 l 658 1082 l 658 1074 l 581 1074 l 457 1208 l 335 1074 l 257 1074 m 450 1321 l 271 1508 l 271 1515 l 393 1515 l 533 1328 l 533 1321 l 450 1321 z "},"Ể":{"ha":838,"x_min":139,"x_max":760,"o":"m 139 0 l 139 956 l 760 956 l 760 853 l 258 853 l 258 535 l 694 535 l 694 431 l 258 431 l 258 103 l 760 103 l 760 0 l 139 0 m 257 1074 l 257 1082 l 399 1269 l 517 1269 l 658 1082 l 658 1074 l 581 1074 l 457 1208 l 335 1074 l 257 1074 m 394 1301 l 394 1315 q 400 1350 394 1336 q 419 1374 406 1364 q 457 1390 432 1383 l 488 1399 q 535 1415 519 1408 q 555 1431 550 1422 q 560 1457 560 1440 q 549 1494 560 1483 q 513 1507 539 1504 q 438 1510 486 1510 q 397 1509 421 1510 q 345 1507 372 1508 q 296 1503 318 1506 l 296 1563 q 375 1570 329 1567 q 457 1574 421 1574 q 558 1567 518 1574 q 619 1537 599 1560 q 639 1465 639 1514 q 632 1415 639 1435 q 606 1383 625 1396 q 553 1361 588 1371 l 519 1351 q 480 1339 492 1344 q 465 1326 468 1333 q 463 1301 463 1318 l 394 1301 z "},"Ễ":{"ha":838,"x_min":139,"x_max":760,"o":"m 139 0 l 139 956 l 760 956 l 760 853 l 258 853 l 258 535 l 694 535 l 694 431 l 258 431 l 258 103 l 760 103 l 760 0 l 139 0 m 257 1074 l 257 1082 l 399 1269 l 517 1269 l 658 1082 l 658 1074 l 581 1074 l 457 1208 l 335 1074 l 257 1074 m 221 1331 q 227 1419 221 1385 q 256 1472 233 1454 q 324 1489 278 1489 q 400 1478 363 1489 q 475 1456 438 1468 q 531 1438 504 1446 q 586 1429 558 1429 q 623 1445 617 1429 q 629 1504 629 1461 l 694 1504 q 688 1415 694 1450 q 660 1363 682 1381 q 593 1346 639 1346 q 515 1357 551 1346 q 442 1379 479 1368 q 385 1397 413 1389 q 331 1406 357 1406 q 294 1390 300 1406 q 288 1331 288 1374 l 221 1331 z "},"Ȅ":{"ha":838,"x_min":139,"x_max":760,"o":"m 139 0 l 139 956 l 760 956 l 760 853 l 258 853 l 258 535 l 694 535 l 694 431 l 258 431 l 258 103 l 760 103 l 760 0 l 139 0 m 654 1074 l 582 1074 l 424 1236 l 424 1243 l 531 1243 l 654 1081 l 654 1074 m 403 1074 l 331 1074 l 172 1236 l 172 1243 l 281 1243 l 403 1081 l 403 1074 z "},"Ë":{"ha":838,"x_min":139,"x_max":760,"o":"m 139 0 l 139 956 l 760 956 l 760 853 l 258 853 l 258 535 l 694 535 l 694 431 l 258 431 l 258 103 l 760 103 l 760 0 l 139 0 m 261 1119 l 261 1231 l 368 1231 l 368 1119 l 261 1119 m 549 1119 l 549 1231 l 654 1231 l 654 1119 l 549 1119 z "},"Ė":{"ha":838,"x_min":139,"x_max":760,"o":"m 139 0 l 139 956 l 760 956 l 760 853 l 258 853 l 258 535 l 694 535 l 694 431 l 258 431 l 258 103 l 760 103 l 760 0 l 139 0 m 404 1119 l 404 1232 l 511 1232 l 511 1119 l 404 1119 z "},"Ẹ":{"ha":838,"x_min":139,"x_max":760,"o":"m 139 0 l 139 956 l 760 956 l 760 853 l 258 853 l 258 535 l 694 535 l 694 431 l 258 431 l 258 103 l 760 103 l 760 0 l 139 0 m 408 -267 l 408 -161 l 508 -161 l 508 -267 l 408 -267 z "},"È":{"ha":838,"x_min":139,"x_max":760,"o":"m 139 0 l 139 956 l 760 956 l 760 853 l 258 853 l 258 535 l 694 535 l 694 431 l 258 431 l 258 103 l 760 103 l 760 0 l 139 0 m 450 1074 l 271 1261 l 271 1268 l 393 1268 l 533 1081 l 533 1074 l 450 1074 z "},"Ẻ":{"ha":838,"x_min":139,"x_max":760,"o":"m 139 0 l 139 956 l 760 956 l 760 853 l 258 853 l 258 535 l 694 535 l 694 431 l 258 431 l 258 103 l 760 103 l 760 0 l 139 0 m 396 1054 l 396 1068 q 401 1103 396 1089 q 420 1126 407 1117 q 457 1143 433 1136 l 489 1151 q 535 1168 519 1161 q 556 1184 551 1175 q 560 1210 560 1193 q 549 1247 560 1236 q 513 1260 539 1257 q 439 1263 486 1263 q 397 1262 422 1263 q 345 1260 372 1261 q 296 1256 318 1258 l 296 1315 q 376 1323 331 1319 q 458 1326 422 1326 q 558 1319 518 1326 q 619 1290 599 1313 q 639 1218 639 1267 q 632 1168 639 1188 q 607 1136 625 1149 q 554 1114 589 1124 l 519 1104 q 481 1092 493 1097 q 465 1078 468 1086 q 463 1054 463 1071 l 396 1054 z "},"Ȇ":{"ha":838,"x_min":139,"x_max":760,"o":"m 139 0 l 139 956 l 760 956 l 760 853 l 258 853 l 258 535 l 694 535 l 694 431 l 258 431 l 258 103 l 760 103 l 760 0 l 139 0 m 460 1274 q 566 1259 528 1274 q 622 1217 604 1244 q 644 1154 640 1190 q 649 1074 649 1118 l 576 1074 q 572 1144 576 1115 q 542 1188 567 1174 q 460 1203 518 1203 q 376 1188 401 1203 q 346 1144 351 1174 q 340 1074 340 1115 l 267 1074 q 272 1154 267 1118 q 294 1217 276 1190 q 352 1259 313 1244 q 460 1274 392 1274 z "},"Ē":{"ha":838,"x_min":139,"x_max":760,"o":"m 139 0 l 139 956 l 760 956 l 760 853 l 258 853 l 258 535 l 694 535 l 694 431 l 258 431 l 258 103 l 760 103 l 760 0 l 139 0 m 257 1119 l 257 1199 l 658 1199 l 658 1119 l 257 1119 z "},"Ę":{"ha":838,"x_min":139,"x_max":761,"o":"m 139 0 l 139 956 l 760 956 l 760 853 l 258 853 l 258 535 l 694 535 l 694 431 l 258 431 l 258 103 l 760 103 l 760 0 l 139 0 m 707 -278 q 626 -263 656 -278 q 585 -224 597 -249 q 574 -171 574 -200 q 603 -76 574 -126 q 678 14 632 -25 l 760 0 q 721 -39 742 -14 q 686 -92 700 -64 q 672 -147 672 -121 q 686 -187 672 -171 q 738 -203 700 -203 q 748 -203 742 -203 q 761 -201 754 -203 l 761 -275 q 734 -277 747 -276 q 707 -278 721 -278 z "},"Ẽ":{"ha":838,"x_min":139,"x_max":760,"o":"m 139 0 l 139 956 l 760 956 l 760 853 l 258 853 l 258 535 l 694 535 l 694 431 l 258 431 l 258 103 l 760 103 l 760 0 l 139 0 m 221 1083 q 227 1172 221 1138 q 256 1224 233 1207 q 324 1242 278 1242 q 400 1231 363 1242 q 475 1208 438 1221 q 531 1190 504 1199 q 586 1182 558 1182 q 623 1198 617 1182 q 629 1257 629 1214 l 694 1257 q 688 1168 694 1203 q 660 1116 682 1133 q 593 1099 639 1099 q 516 1110 551 1099 q 442 1132 481 1121 q 385 1150 413 1142 q 331 1158 357 1158 q 294 1142 300 1158 q 288 1083 288 1126 l 221 1083 z "},"F":{"ha":785,"x_min":139,"x_max":732,"o":"m 139 0 l 139 956 l 732 956 l 732 853 l 258 853 l 258 513 l 681 513 l 681 410 l 258 410 l 258 0 l 139 0 z "},"G":{"ha":939,"x_min":106,"x_max":817,"o":"m 511 -11 q 339 1 410 -11 q 223 43 268 13 q 152 128 178 74 q 116 269 126 183 q 106 478 106 354 q 116 687 106 601 q 153 827 126 772 q 225 913 179 882 q 341 955 271 943 q 511 967 411 967 q 613 963 558 967 q 719 953 667 958 q 813 939 771 947 l 813 842 q 722 853 768 849 q 637 861 676 858 q 569 864 597 864 q 423 860 483 864 q 324 838 363 856 q 264 778 285 819 q 234 665 243 738 q 225 478 225 593 q 231 308 225 376 q 253 196 236 239 q 302 129 271 153 q 385 98 333 106 q 514 90 438 90 q 578 92 543 90 q 646 96 613 93 q 701 101 679 99 l 701 413 l 485 413 l 485 514 l 817 514 l 817 17 q 716 2 771 8 q 608 -8 661 -4 q 511 -11 554 -11 z "},"Ǵ":{"ha":939,"x_min":106,"x_max":817,"o":"m 511 -11 q 339 1 410 -11 q 223 43 268 13 q 152 128 178 74 q 116 269 126 183 q 106 478 106 354 q 116 687 106 601 q 153 827 126 772 q 225 913 179 882 q 341 955 271 943 q 511 967 411 967 q 613 963 558 967 q 719 953 667 958 q 813 939 771 947 l 813 842 q 722 853 768 849 q 637 861 676 858 q 569 864 597 864 q 423 860 483 864 q 324 838 363 856 q 264 778 285 819 q 234 665 243 738 q 225 478 225 593 q 231 308 225 376 q 253 196 236 239 q 302 129 271 153 q 385 98 333 106 q 514 90 438 90 q 578 92 543 90 q 646 96 613 93 q 701 101 679 99 l 701 413 l 485 413 l 485 514 l 817 514 l 817 17 q 716 2 771 8 q 608 -8 661 -4 q 511 -11 554 -11 m 424 1074 l 424 1081 l 564 1268 l 686 1268 l 686 1261 l 507 1074 l 424 1074 z "},"Ğ":{"ha":939,"x_min":106,"x_max":817,"o":"m 511 -11 q 339 1 410 -11 q 223 43 268 13 q 152 128 178 74 q 116 269 126 183 q 106 478 106 354 q 116 687 106 601 q 153 827 126 772 q 225 913 179 882 q 341 955 271 943 q 511 967 411 967 q 613 963 558 967 q 719 953 667 958 q 813 939 771 947 l 813 842 q 722 853 768 849 q 637 861 676 858 q 569 864 597 864 q 423 860 483 864 q 324 838 363 856 q 264 778 285 819 q 234 665 243 738 q 225 478 225 593 q 231 308 225 376 q 253 196 236 239 q 302 129 271 153 q 385 98 333 106 q 514 90 438 90 q 578 92 543 90 q 646 96 613 93 q 701 101 679 99 l 701 413 l 485 413 l 485 514 l 817 514 l 817 17 q 716 2 771 8 q 608 -8 661 -4 q 511 -11 554 -11 m 496 1061 q 389 1076 428 1061 q 333 1117 350 1090 q 310 1181 315 1144 q 306 1261 306 1217 l 379 1261 q 384 1190 379 1219 q 413 1147 389 1161 q 496 1132 438 1132 q 578 1147 554 1132 q 608 1190 603 1161 q 614 1261 614 1219 l 688 1261 q 683 1181 688 1217 q 660 1117 678 1144 q 603 1076 642 1090 q 496 1061 564 1061 z "},"Ǧ":{"ha":939,"x_min":106,"x_max":817,"o":"m 511 -11 q 339 1 410 -11 q 223 43 268 13 q 152 128 178 74 q 116 269 126 183 q 106 478 106 354 q 116 687 106 601 q 153 827 126 772 q 225 913 179 882 q 341 955 271 943 q 511 967 411 967 q 613 963 558 967 q 719 953 667 958 q 813 939 771 947 l 813 842 q 722 853 768 849 q 637 861 676 858 q 569 864 597 864 q 423 860 483 864 q 324 838 363 856 q 264 778 285 819 q 234 665 243 738 q 225 478 225 593 q 231 308 225 376 q 253 196 236 239 q 302 129 271 153 q 385 98 333 106 q 514 90 438 90 q 578 92 543 90 q 646 96 613 93 q 701 101 679 99 l 701 413 l 485 413 l 485 514 l 817 514 l 817 17 q 716 2 771 8 q 608 -8 661 -4 q 511 -11 554 -11 m 439 1074 l 297 1260 l 297 1268 l 375 1268 l 497 1133 l 621 1268 l 699 1268 l 699 1260 l 557 1074 l 439 1074 z "},"Ĝ":{"ha":939,"x_min":106,"x_max":817,"o":"m 511 -11 q 339 1 410 -11 q 223 43 268 13 q 152 128 178 74 q 116 269 126 183 q 106 478 106 354 q 116 687 106 601 q 153 827 126 772 q 225 913 179 882 q 341 955 271 943 q 511 967 411 967 q 613 963 558 967 q 719 953 667 958 q 813 939 771 947 l 813 842 q 722 853 768 849 q 637 861 676 858 q 569 864 597 864 q 423 860 483 864 q 324 838 363 856 q 264 778 285 819 q 234 665 243 738 q 225 478 225 593 q 231 308 225 376 q 253 196 236 239 q 302 129 271 153 q 385 98 333 106 q 514 90 438 90 q 578 92 543 90 q 646 96 613 93 q 701 101 679 99 l 701 413 l 485 413 l 485 514 l 817 514 l 817 17 q 716 2 771 8 q 608 -8 661 -4 q 511 -11 554 -11 m 297 1074 l 297 1082 l 439 1269 l 557 1269 l 699 1082 l 699 1074 l 621 1074 l 497 1208 l 375 1074 l 297 1074 z "},"Ģ":{"ha":939,"x_min":106,"x_max":817,"o":"m 511 -11 q 339 1 410 -11 q 223 43 268 13 q 152 128 178 74 q 116 269 126 183 q 106 478 106 354 q 116 687 106 601 q 153 827 126 772 q 225 913 179 882 q 341 955 271 943 q 511 967 411 967 q 613 963 558 967 q 719 953 667 958 q 813 939 771 947 l 813 842 q 722 853 768 849 q 637 861 676 858 q 569 864 597 864 q 423 860 483 864 q 324 838 363 856 q 264 778 285 819 q 234 665 243 738 q 225 478 225 593 q 231 308 225 376 q 253 196 236 239 q 302 129 271 153 q 385 98 333 106 q 514 90 438 90 q 578 92 543 90 q 646 96 613 93 q 701 101 679 99 l 701 413 l 485 413 l 485 514 l 817 514 l 817 17 q 716 2 771 8 q 608 -8 661 -4 q 511 -11 554 -11 m 406 -393 l 406 -340 q 457 -335 440 -340 q 480 -314 474 -329 q 486 -271 486 -299 l 486 -247 l 435 -247 l 435 -115 l 561 -115 l 561 -226 q 556 -310 561 -278 q 534 -360 550 -342 q 487 -385 518 -378 q 406 -393 456 -393 z "},"Ġ":{"ha":939,"x_min":106,"x_max":817,"o":"m 511 -11 q 339 1 410 -11 q 223 43 268 13 q 152 128 178 74 q 116 269 126 183 q 106 478 106 354 q 116 687 106 601 q 153 827 126 772 q 225 913 179 882 q 341 955 271 943 q 511 967 411 967 q 613 963 558 967 q 719 953 667 958 q 813 939 771 947 l 813 842 q 722 853 768 849 q 637 861 676 858 q 569 864 597 864 q 423 860 483 864 q 324 838 363 856 q 264 778 285 819 q 234 665 243 738 q 225 478 225 593 q 231 308 225 376 q 253 196 236 239 q 302 129 271 153 q 385 98 333 106 q 514 90 438 90 q 578 92 543 90 q 646 96 613 93 q 701 101 679 99 l 701 413 l 485 413 l 485 514 l 817 514 l 817 17 q 716 2 771 8 q 608 -8 661 -4 q 511 -11 554 -11 m 443 1119 l 443 1232 l 550 1232 l 550 1119 l 443 1119 z "},"H":{"ha":1015,"x_min":139,"x_max":878,"o":"m 139 0 l 139 956 l 258 956 l 258 535 l 758 535 l 758 956 l 878 956 l 878 0 l 758 0 l 758 429 l 258 429 l 258 0 l 139 0 z "},"Ħ":{"ha":1015,"x_min":139,"x_max":878,"o":"m 139 0 l 139 956 l 258 956 l 258 767 l 758 767 l 758 956 l 878 956 l 878 0 l 758 0 l 758 386 l 258 386 l 258 0 l 139 0 m 258 492 l 758 492 l 758 671 l 258 671 l 258 492 z "},"Ĥ":{"ha":1015,"x_min":139,"x_max":878,"o":"m 139 0 l 139 956 l 258 956 l 258 535 l 758 535 l 758 956 l 878 956 l 878 0 l 758 0 l 758 429 l 258 429 l 258 0 l 139 0 m 307 1074 l 307 1082 l 449 1269 l 567 1269 l 708 1082 l 708 1074 l 631 1074 l 507 1208 l 385 1074 l 307 1074 z "},"Ḥ":{"ha":1015,"x_min":139,"x_max":878,"o":"m 139 0 l 139 956 l 258 956 l 258 535 l 758 535 l 758 956 l 878 956 l 878 0 l 758 0 l 758 429 l 258 429 l 258 0 l 139 0 m 458 -267 l 458 -161 l 558 -161 l 558 -267 l 458 -267 z "},"I":{"ha":397,"x_min":139,"x_max":258,"o":"m 139 0 l 139 956 l 258 956 l 258 0 l 139 0 z "},"Ĳ":{"ha":890,"x_min":139,"x_max":761,"o":"m 139 0 l 139 956 l 258 956 l 258 0 l 139 0 m 443 0 l 443 99 q 558 107 518 100 q 617 137 599 114 q 638 210 635 160 q 642 351 642 261 l 642 956 l 761 956 l 761 389 q 757 205 761 278 q 738 91 753 132 q 688 31 722 50 q 595 6 654 11 q 443 0 536 0 z "},"Í":{"ha":397,"x_min":125,"x_max":388,"o":"m 139 0 l 139 956 l 258 956 l 258 0 l 139 0 m 125 1074 l 125 1081 l 265 1268 l 388 1268 l 388 1261 l 208 1074 l 125 1074 z "},"Ĭ":{"ha":397,"x_min":7,"x_max":389,"o":"m 139 0 l 139 956 l 258 956 l 258 0 l 139 0 m 197 1061 q 90 1076 129 1061 q 34 1117 51 1090 q 12 1181 17 1144 q 7 1261 7 1217 l 81 1261 q 85 1190 81 1219 q 115 1147 90 1161 q 197 1132 139 1132 q 280 1147 256 1132 q 310 1190 304 1161 q 315 1261 315 1219 l 389 1261 q 384 1181 389 1217 q 361 1117 379 1144 q 304 1076 343 1090 q 197 1061 265 1061 z "},"Ǐ":{"ha":397,"x_min":-3,"x_max":399,"o":"m 139 0 l 139 956 l 258 956 l 258 0 l 139 0 m 139 1074 l -3 1260 l -3 1268 l 75 1268 l 197 1133 l 321 1268 l 399 1268 l 399 1260 l 257 1074 l 139 1074 z "},"Î":{"ha":397,"x_min":-3,"x_max":399,"o":"m 139 0 l 139 956 l 258 956 l 258 0 l 139 0 m -3 1074 l -3 1082 l 139 1269 l 257 1269 l 399 1082 l 399 1074 l 321 1074 l 197 1208 l 75 1074 l -3 1074 z "},"Ȉ":{"ha":397,"x_min":-87,"x_max":396,"o":"m 139 0 l 139 956 l 258 956 l 258 0 l 139 0 m 394 1074 l 322 1074 l 164 1236 l 164 1243 l 271 1243 l 394 1081 l 394 1074 m 143 1074 l 71 1074 l -87 1236 l -87 1243 l 21 1243 l 143 1081 l 143 1074 z "},"Ï":{"ha":397,"x_min":1,"x_max":394,"o":"m 139 0 l 139 956 l 258 956 l 258 0 l 139 0 m 1 1119 l 1 1231 l 108 1231 l 108 1119 l 1 1119 m 289 1119 l 289 1231 l 394 1231 l 394 1119 l 289 1119 z "},"İ":{"ha":397,"x_min":139,"x_max":258,"o":"m 139 0 l 139 956 l 258 956 l 258 0 l 139 0 m 144 1119 l 144 1232 l 251 1232 l 251 1119 l 144 1119 z "},"Ị":{"ha":397,"x_min":139,"x_max":258,"o":"m 139 0 l 139 956 l 258 956 l 258 0 l 139 0 m 149 -267 l 149 -161 l 249 -161 l 249 -267 l 149 -267 z "},"Ì":{"ha":397,"x_min":11,"x_max":274,"o":"m 139 0 l 139 956 l 258 956 l 258 0 l 139 0 m 190 1074 l 11 1261 l 11 1268 l 133 1268 l 274 1081 l 274 1074 l 190 1074 z "},"Ỉ":{"ha":397,"x_min":36,"x_max":379,"o":"m 139 0 l 139 956 l 258 956 l 258 0 l 139 0 m 136 1054 l 136 1068 q 142 1103 136 1089 q 160 1126 147 1117 q 197 1143 174 1136 l 229 1151 q 276 1168 260 1161 q 296 1184 292 1175 q 300 1210 300 1193 q 290 1247 300 1236 q 253 1260 279 1257 q 179 1263 226 1263 q 138 1262 163 1263 q 85 1260 113 1261 q 36 1256 58 1258 l 36 1315 q 117 1323 71 1319 q 199 1326 163 1326 q 299 1319 258 1326 q 359 1290 339 1313 q 379 1218 379 1267 q 372 1168 379 1188 q 347 1136 365 1149 q 294 1114 329 1124 l 260 1104 q 221 1092 233 1097 q 206 1078 208 1086 q 203 1054 203 1071 l 136 1054 z "},"Ȋ":{"ha":397,"x_min":7,"x_max":389,"o":"m 139 0 l 139 956 l 258 956 l 258 0 l 139 0 m 200 1274 q 306 1259 268 1274 q 363 1217 344 1244 q 385 1154 381 1190 q 389 1074 389 1118 l 317 1074 q 312 1144 317 1115 q 283 1188 307 1174 q 200 1203 258 1203 q 117 1188 142 1203 q 86 1144 92 1174 q 81 1074 81 1115 l 7 1074 q 12 1154 7 1118 q 35 1217 17 1190 q 92 1259 53 1244 q 200 1274 132 1274 z "},"Ī":{"ha":397,"x_min":-3,"x_max":399,"o":"m 139 0 l 139 956 l 258 956 l 258 0 l 139 0 m -3 1119 l -3 1199 l 399 1199 l 399 1119 l -3 1119 z "},"Į":{"ha":397,"x_min":72,"x_max":260,"o":"m 139 0 l 139 956 l 258 956 l 258 0 l 139 0 m 206 -278 q 125 -263 154 -278 q 84 -224 96 -249 q 72 -171 72 -200 q 101 -76 72 -126 q 176 14 131 -25 l 258 0 q 219 -39 240 -14 q 185 -92 199 -64 q 171 -147 171 -121 q 185 -187 171 -171 q 236 -203 199 -203 q 247 -203 240 -203 q 260 -201 253 -203 l 260 -275 q 233 -277 246 -276 q 206 -278 219 -278 z "},"Ĩ":{"ha":397,"x_min":-39,"x_max":436,"o":"m 139 0 l 139 956 l 258 956 l 258 0 l 139 0 m -39 1083 q -33 1172 -39 1138 q -4 1224 -26 1207 q 64 1242 18 1242 q 140 1231 103 1242 q 215 1208 178 1221 q 272 1190 244 1199 q 326 1182 299 1182 q 363 1198 357 1182 q 369 1257 369 1214 l 435 1257 q 428 1168 435 1203 q 401 1116 422 1133 q 333 1099 379 1099 q 256 1110 292 1099 q 182 1132 221 1121 q 125 1150 153 1142 q 71 1158 97 1158 q 34 1142 40 1158 q 28 1083 28 1126 l -39 1083 z "},"J":{"ha":493,"x_min":46,"x_max":364,"o":"m 46 0 l 46 99 q 161 107 121 100 q 219 137 201 114 q 241 210 238 160 q 244 351 244 261 l 244 956 l 364 956 l 364 389 q 360 205 364 278 q 340 91 356 132 q 291 31 325 50 q 198 6 257 11 q 46 0 139 0 z "},"Ĵ":{"ha":493,"x_min":46,"x_max":506,"o":"m 46 0 l 46 99 q 161 107 121 100 q 219 137 201 114 q 241 210 238 160 q 244 351 244 261 l 244 956 l 364 956 l 364 389 q 360 205 364 278 q 340 91 356 132 q 291 31 325 50 q 198 6 257 11 q 46 0 139 0 m 104 1074 l 104 1082 l 246 1269 l 364 1269 l 506 1082 l 506 1074 l 428 1074 l 304 1208 l 182 1074 l 104 1074 z "},"K":{"ha":931,"x_min":139,"x_max":893,"o":"m 139 0 l 139 956 l 258 956 l 258 538 l 429 538 l 757 956 l 889 956 l 526 492 l 893 0 l 754 0 l 429 433 l 258 433 l 258 0 l 139 0 z "},"Ķ":{"ha":931,"x_min":139,"x_max":893,"o":"m 139 0 l 139 956 l 258 956 l 258 538 l 429 538 l 757 956 l 889 956 l 526 492 l 893 0 l 754 0 l 429 433 l 258 433 l 258 0 l 139 0 m 375 -393 l 375 -340 q 426 -335 410 -340 q 449 -314 443 -329 q 456 -271 456 -299 l 456 -247 l 404 -247 l 404 -115 l 531 -115 l 531 -226 q 525 -310 531 -278 q 503 -360 519 -342 q 456 -385 488 -378 q 375 -393 425 -393 z "},"L":{"ha":747,"x_min":139,"x_max":704,"o":"m 139 0 l 139 956 l 258 956 l 258 106 l 704 106 l 704 0 l 139 0 z "},"Ǉ":{"ha":1240,"x_min":139,"x_max":1111,"o":"m 139 0 l 139 956 l 258 956 l 258 106 l 704 106 l 704 0 l 139 0 m 793 0 l 793 99 q 908 107 868 100 q 967 137 949 114 q 988 210 985 160 q 992 351 992 261 l 992 956 l 1111 956 l 1111 389 q 1107 205 1111 278 q 1088 91 1103 132 q 1038 31 1072 50 q 945 6 1004 11 q 793 0 886 0 z "},"Ĺ":{"ha":747,"x_min":125,"x_max":704,"o":"m 139 0 l 139 956 l 258 956 l 258 106 l 704 106 l 704 0 l 139 0 m 125 1074 l 125 1081 l 265 1268 l 388 1268 l 388 1261 l 208 1074 l 125 1074 z "},"Ľ":{"ha":747,"x_min":139,"x_max":704,"o":"m 139 0 l 139 956 l 258 956 l 258 106 l 704 106 l 704 0 l 139 0 m 451 617 l 471 850 l 471 956 l 569 956 l 569 850 l 522 617 l 451 617 z "},"Ļ":{"ha":747,"x_min":139,"x_max":704,"o":"m 139 0 l 139 956 l 258 956 l 258 106 l 704 106 l 704 0 l 139 0 m 347 -393 l 347 -340 q 399 -335 382 -340 q 422 -314 415 -329 q 428 -271 428 -299 l 428 -247 l 376 -247 l 376 -115 l 503 -115 l 503 -226 q 497 -310 503 -278 q 476 -360 492 -342 q 428 -385 460 -378 q 347 -393 397 -393 z "},"Ŀ":{"ha":747,"x_min":139,"x_max":704,"o":"m 139 0 l 139 956 l 258 956 l 258 106 l 704 106 l 704 0 l 139 0 m 506 442 l 506 576 l 625 576 l 625 442 l 506 442 z "},"ǈ":{"ha":1100,"x_min":139,"x_max":983,"o":"m 139 0 l 139 956 l 258 956 l 258 106 l 704 106 l 704 0 l 139 0 m 864 908 l 864 1032 l 985 1032 l 985 908 l 864 908 m 735 -278 l 735 -189 q 824 -182 796 -189 q 860 -158 853 -175 q 867 -112 867 -142 l 867 708 l 981 708 l 981 -87 q 968 -192 981 -153 q 926 -249 956 -231 q 851 -272 897 -267 q 735 -278 804 -278 z "},"Ł":{"ha":747,"x_min":50,"x_max":704,"o":"m 50 369 l 50 463 l 521 638 l 521 544 l 50 369 m 139 0 l 139 956 l 258 956 l 258 106 l 704 106 l 704 0 l 139 0 z "},"M":{"ha":1258,"x_min":139,"x_max":1119,"o":"m 139 0 l 139 956 l 300 956 l 626 194 l 633 194 l 958 956 l 1119 956 l 1119 0 l 1003 0 l 1003 764 l 997 764 l 671 0 l 583 0 l 257 764 l 251 764 l 251 0 l 139 0 z "},"N":{"ha":1015,"x_min":139,"x_max":878,"o":"m 139 0 l 139 956 l 261 956 l 757 224 l 763 224 l 763 956 l 878 956 l 878 0 l 763 0 l 260 746 l 254 746 l 254 0 l 139 0 z "},"Ǌ":{"ha":1508,"x_min":139,"x_max":1381,"o":"m 139 0 l 139 956 l 261 956 l 757 224 l 763 224 l 763 956 l 878 956 l 878 0 l 763 0 l 260 746 l 254 746 l 254 0 l 139 0 m 1061 0 l 1061 99 q 1176 107 1136 100 q 1235 137 1217 114 q 1256 210 1253 160 q 1260 351 1260 261 l 1260 956 l 1379 956 l 1379 389 q 1375 205 1379 278 q 1356 91 1371 132 q 1306 31 1340 50 q 1213 6 1272 11 q 1061 0 1154 0 z "},"Ń":{"ha":1015,"x_min":139,"x_max":878,"o":"m 139 0 l 139 956 l 261 956 l 757 224 l 763 224 l 763 956 l 878 956 l 878 0 l 763 0 l 260 746 l 254 746 l 254 0 l 139 0 m 449 1074 l 449 1081 l 589 1268 l 711 1268 l 711 1261 l 532 1074 l 449 1074 z "},"Ň":{"ha":1015,"x_min":139,"x_max":878,"o":"m 139 0 l 139 956 l 261 956 l 757 224 l 763 224 l 763 956 l 878 956 l 878 0 l 763 0 l 260 746 l 254 746 l 254 0 l 139 0 m 463 1074 l 321 1260 l 321 1268 l 399 1268 l 521 1133 l 644 1268 l 722 1268 l 722 1260 l 581 1074 l 463 1074 z "},"Ņ":{"ha":1015,"x_min":139,"x_max":878,"o":"m 139 0 l 139 956 l 261 956 l 757 224 l 763 224 l 763 956 l 878 956 l 878 0 l 763 0 l 260 746 l 254 746 l 254 0 l 139 0 m 431 -393 l 431 -340 q 482 -335 465 -340 q 505 -314 499 -329 q 511 -271 511 -299 l 511 -247 l 460 -247 l 460 -115 l 586 -115 l 586 -226 q 581 -310 586 -278 q 559 -360 575 -342 q 512 -385 543 -378 q 431 -393 481 -393 z "},"Ṅ":{"ha":1015,"x_min":139,"x_max":878,"o":"m 139 0 l 139 956 l 261 956 l 757 224 l 763 224 l 763 956 l 878 956 l 878 0 l 763 0 l 260 746 l 254 746 l 254 0 l 139 0 m 468 1119 l 468 1232 l 575 1232 l 575 1119 l 468 1119 z "},"Ɲ":{"ha":1015,"x_min":6,"x_max":878,"o":"m 6 -278 l 6 -189 q 79 -185 53 -189 q 118 -173 106 -182 q 135 -149 131 -164 q 139 -112 139 -135 l 139 956 l 261 956 l 757 224 l 763 224 l 763 956 l 878 956 l 878 0 l 763 0 l 260 746 l 254 746 l 254 -87 q 246 -175 254 -140 q 220 -231 238 -210 q 174 -261 203 -251 q 103 -274 144 -271 q 6 -278 61 -278 z "},"ǋ":{"ha":1368,"x_min":139,"x_max":1253,"o":"m 139 0 l 139 956 l 261 956 l 757 224 l 763 224 l 763 956 l 878 956 l 878 0 l 763 0 l 260 746 l 254 746 l 254 0 l 139 0 m 1132 908 l 1132 1032 l 1253 1032 l 1253 908 l 1132 908 m 1003 -278 l 1003 -189 q 1092 -182 1064 -189 q 1128 -158 1121 -175 q 1135 -112 1135 -142 l 1135 708 l 1249 708 l 1249 -87 q 1236 -192 1249 -153 q 1194 -249 1224 -231 q 1119 -272 1165 -267 q 1003 -278 1072 -278 z "},"Ñ":{"ha":1015,"x_min":139,"x_max":878,"o":"m 139 0 l 139 956 l 261 956 l 757 224 l 763 224 l 763 956 l 878 956 l 878 0 l 763 0 l 260 746 l 254 746 l 254 0 l 139 0 m 285 1083 q 291 1172 285 1138 q 319 1224 297 1207 q 388 1242 342 1242 q 464 1231 426 1242 q 539 1208 501 1221 q 595 1190 568 1199 q 650 1182 622 1182 q 687 1198 681 1182 q 693 1257 693 1214 l 758 1257 q 752 1168 758 1203 q 724 1116 746 1133 q 657 1099 703 1099 q 580 1110 615 1099 q 506 1132 544 1121 q 449 1150 476 1142 q 394 1158 421 1158 q 358 1142 364 1158 q 351 1083 351 1126 l 285 1083 z "},"Ŋ":{"ha":1015,"x_min":139,"x_max":878,"o":"m 629 -278 l 629 -189 q 719 -182 692 -189 q 755 -158 747 -175 q 763 -112 763 -142 l 763 0 l 260 746 l 254 746 l 254 0 l 139 0 l 139 956 l 261 956 l 757 224 l 763 224 l 763 956 l 878 956 l 878 -87 q 869 -175 878 -140 q 844 -231 861 -210 q 797 -261 826 -251 q 726 -274 768 -271 q 629 -278 685 -278 z "},"O":{"ha":996,"x_min":106,"x_max":889,"o":"m 497 -11 q 313 1 386 -11 q 198 43 240 13 q 136 128 156 74 q 111 269 117 183 q 106 478 106 354 q 111 687 106 601 q 136 827 117 772 q 198 913 156 882 q 313 955 240 943 q 497 967 386 967 q 681 955 608 967 q 797 913 754 943 q 858 827 839 882 q 883 687 878 772 q 889 478 889 601 q 883 269 889 354 q 858 128 878 183 q 797 43 839 74 q 681 1 754 13 q 497 -11 608 -11 m 497 92 q 624 97 574 92 q 703 119 674 101 q 747 178 732 138 q 766 292 763 219 q 769 478 769 364 q 766 664 769 592 q 747 777 763 736 q 703 836 732 818 q 624 859 674 854 q 497 864 574 864 q 372 859 421 864 q 292 836 322 854 q 248 777 263 818 q 229 664 233 736 q 225 478 225 592 q 229 292 225 364 q 248 178 233 219 q 292 119 263 138 q 372 97 322 101 q 497 92 421 92 z "},"Ó":{"ha":996,"x_min":106,"x_max":889,"o":"m 497 -11 q 313 1 386 -11 q 198 43 240 13 q 136 128 156 74 q 111 269 117 183 q 106 478 106 354 q 111 687 106 601 q 136 827 117 772 q 198 913 156 882 q 313 955 240 943 q 497 967 386 967 q 681 955 608 967 q 797 913 754 943 q 858 827 839 882 q 883 687 878 772 q 889 478 889 601 q 883 269 889 354 q 858 128 878 183 q 797 43 839 74 q 681 1 754 13 q 497 -11 608 -11 m 497 92 q 624 97 574 92 q 703 119 674 101 q 747 178 732 138 q 766 292 763 219 q 769 478 769 364 q 766 664 769 592 q 747 777 763 736 q 703 836 732 818 q 624 859 674 854 q 497 864 574 864 q 372 859 421 864 q 292 836 322 854 q 248 777 263 818 q 229 664 233 736 q 225 478 225 592 q 229 292 225 364 q 248 178 233 219 q 292 119 263 138 q 372 97 322 101 q 497 92 421 92 m 425 1074 l 425 1081 l 565 1268 l 688 1268 l 688 1261 l 508 1074 l 425 1074 z "},"Ŏ":{"ha":996,"x_min":106,"x_max":889,"o":"m 497 -11 q 313 1 386 -11 q 198 43 240 13 q 136 128 156 74 q 111 269 117 183 q 106 478 106 354 q 111 687 106 601 q 136 827 117 772 q 198 913 156 882 q 313 955 240 943 q 497 967 386 967 q 681 955 608 967 q 797 913 754 943 q 858 827 839 882 q 883 687 878 772 q 889 478 889 601 q 883 269 889 354 q 858 128 878 183 q 797 43 839 74 q 681 1 754 13 q 497 -11 608 -11 m 497 92 q 624 97 574 92 q 703 119 674 101 q 747 178 732 138 q 766 292 763 219 q 769 478 769 364 q 766 664 769 592 q 747 777 763 736 q 703 836 732 818 q 624 859 674 854 q 497 864 574 864 q 372 859 421 864 q 292 836 322 854 q 248 777 263 818 q 229 664 233 736 q 225 478 225 592 q 229 292 225 364 q 248 178 233 219 q 292 119 263 138 q 372 97 322 101 q 497 92 421 92 m 496 1061 q 389 1076 428 1061 q 333 1117 350 1090 q 310 1181 315 1144 q 306 1261 306 1217 l 379 1261 q 384 1190 379 1219 q 413 1147 389 1161 q 496 1132 438 1132 q 578 1147 554 1132 q 608 1190 603 1161 q 614 1261 614 1219 l 688 1261 q 683 1181 688 1217 q 660 1117 678 1144 q 603 1076 642 1090 q 496 1061 564 1061 z "},"Ǒ":{"ha":996,"x_min":106,"x_max":889,"o":"m 497 -11 q 313 1 386 -11 q 198 43 240 13 q 136 128 156 74 q 111 269 117 183 q 106 478 106 354 q 111 687 106 601 q 136 827 117 772 q 198 913 156 882 q 313 955 240 943 q 497 967 386 967 q 681 955 608 967 q 797 913 754 943 q 858 827 839 882 q 883 687 878 772 q 889 478 889 601 q 883 269 889 354 q 858 128 878 183 q 797 43 839 74 q 681 1 754 13 q 497 -11 608 -11 m 497 92 q 624 97 574 92 q 703 119 674 101 q 747 178 732 138 q 766 292 763 219 q 769 478 769 364 q 766 664 769 592 q 747 777 763 736 q 703 836 732 818 q 624 859 674 854 q 497 864 574 864 q 372 859 421 864 q 292 836 322 854 q 248 777 263 818 q 229 664 233 736 q 225 478 225 592 q 229 292 225 364 q 248 178 233 219 q 292 119 263 138 q 372 97 322 101 q 497 92 421 92 m 439 1074 l 297 1260 l 297 1268 l 375 1268 l 497 1133 l 621 1268 l 699 1268 l 699 1260 l 557 1074 l 439 1074 z "},"Ô":{"ha":996,"x_min":106,"x_max":889,"o":"m 497 -11 q 313 1 386 -11 q 198 43 240 13 q 136 128 156 74 q 111 269 117 183 q 106 478 106 354 q 111 687 106 601 q 136 827 117 772 q 198 913 156 882 q 313 955 240 943 q 497 967 386 967 q 681 955 608 967 q 797 913 754 943 q 858 827 839 882 q 883 687 878 772 q 889 478 889 601 q 883 269 889 354 q 858 128 878 183 q 797 43 839 74 q 681 1 754 13 q 497 -11 608 -11 m 497 92 q 624 97 574 92 q 703 119 674 101 q 747 178 732 138 q 766 292 763 219 q 769 478 769 364 q 766 664 769 592 q 747 777 763 736 q 703 836 732 818 q 624 859 674 854 q 497 864 574 864 q 372 859 421 864 q 292 836 322 854 q 248 777 263 818 q 229 664 233 736 q 225 478 225 592 q 229 292 225 364 q 248 178 233 219 q 292 119 263 138 q 372 97 322 101 q 497 92 421 92 m 297 1074 l 297 1082 l 439 1269 l 557 1269 l 699 1082 l 699 1074 l 621 1074 l 497 1208 l 375 1074 l 297 1074 z "},"Ố":{"ha":996,"x_min":106,"x_max":889,"o":"m 497 -11 q 313 1 386 -11 q 198 43 240 13 q 136 128 156 74 q 111 269 117 183 q 106 478 106 354 q 111 687 106 601 q 136 827 117 772 q 198 913 156 882 q 313 955 240 943 q 497 967 386 967 q 681 955 608 967 q 797 913 754 943 q 858 827 839 882 q 883 687 878 772 q 889 478 889 601 q 883 269 889 354 q 858 128 878 183 q 797 43 839 74 q 681 1 754 13 q 497 -11 608 -11 m 497 92 q 624 97 574 92 q 703 119 674 101 q 747 178 732 138 q 766 292 763 219 q 769 478 769 364 q 766 664 769 592 q 747 777 763 736 q 703 836 732 818 q 624 859 674 854 q 497 864 574 864 q 372 859 421 864 q 292 836 322 854 q 248 777 263 818 q 229 664 233 736 q 225 478 225 592 q 229 292 225 364 q 248 178 233 219 q 292 119 263 138 q 372 97 322 101 q 497 92 421 92 m 297 1074 l 297 1082 l 439 1269 l 557 1269 l 699 1082 l 699 1074 l 621 1074 l 497 1208 l 375 1074 l 297 1074 m 425 1321 l 425 1328 l 565 1515 l 688 1515 l 688 1508 l 508 1321 l 425 1321 z "},"Ộ":{"ha":996,"x_min":106,"x_max":889,"o":"m 497 -11 q 313 1 386 -11 q 198 43 240 13 q 136 128 156 74 q 111 269 117 183 q 106 478 106 354 q 111 687 106 601 q 136 827 117 772 q 198 913 156 882 q 313 955 240 943 q 497 967 386 967 q 681 955 608 967 q 797 913 754 943 q 858 827 839 882 q 883 687 878 772 q 889 478 889 601 q 883 269 889 354 q 858 128 878 183 q 797 43 839 74 q 681 1 754 13 q 497 -11 608 -11 m 497 92 q 624 97 574 92 q 703 119 674 101 q 747 178 732 138 q 766 292 763 219 q 769 478 769 364 q 766 664 769 592 q 747 777 763 736 q 703 836 732 818 q 624 859 674 854 q 497 864 574 864 q 372 859 421 864 q 292 836 322 854 q 248 777 263 818 q 229 664 233 736 q 225 478 225 592 q 229 292 225 364 q 248 178 233 219 q 292 119 263 138 q 372 97 322 101 q 497 92 421 92 m 449 -267 l 449 -161 l 549 -161 l 549 -267 l 449 -267 m 297 1074 l 297 1082 l 439 1269 l 557 1269 l 699 1082 l 699 1074 l 621 1074 l 497 1208 l 375 1074 l 297 1074 z "},"Ồ":{"ha":996,"x_min":106,"x_max":889,"o":"m 497 -11 q 313 1 386 -11 q 198 43 240 13 q 136 128 156 74 q 111 269 117 183 q 106 478 106 354 q 111 687 106 601 q 136 827 117 772 q 198 913 156 882 q 313 955 240 943 q 497 967 386 967 q 681 955 608 967 q 797 913 754 943 q 858 827 839 882 q 883 687 878 772 q 889 478 889 601 q 883 269 889 354 q 858 128 878 183 q 797 43 839 74 q 681 1 754 13 q 497 -11 608 -11 m 497 92 q 624 97 574 92 q 703 119 674 101 q 747 178 732 138 q 766 292 763 219 q 769 478 769 364 q 766 664 769 592 q 747 777 763 736 q 703 836 732 818 q 624 859 674 854 q 497 864 574 864 q 372 859 421 864 q 292 836 322 854 q 248 777 263 818 q 229 664 233 736 q 225 478 225 592 q 229 292 225 364 q 248 178 233 219 q 292 119 263 138 q 372 97 322 101 q 497 92 421 92 m 297 1074 l 297 1082 l 439 1269 l 557 1269 l 699 1082 l 699 1074 l 621 1074 l 497 1208 l 375 1074 l 297 1074 m 490 1321 l 311 1508 l 311 1515 l 433 1515 l 574 1328 l 574 1321 l 490 1321 z "},"Ổ":{"ha":996,"x_min":106,"x_max":889,"o":"m 497 -11 q 313 1 386 -11 q 198 43 240 13 q 136 128 156 74 q 111 269 117 183 q 106 478 106 354 q 111 687 106 601 q 136 827 117 772 q 198 913 156 882 q 313 955 240 943 q 497 967 386 967 q 681 955 608 967 q 797 913 754 943 q 858 827 839 882 q 883 687 878 772 q 889 478 889 601 q 883 269 889 354 q 858 128 878 183 q 797 43 839 74 q 681 1 754 13 q 497 -11 608 -11 m 497 92 q 624 97 574 92 q 703 119 674 101 q 747 178 732 138 q 766 292 763 219 q 769 478 769 364 q 766 664 769 592 q 747 777 763 736 q 703 836 732 818 q 624 859 674 854 q 497 864 574 864 q 372 859 421 864 q 292 836 322 854 q 248 777 263 818 q 229 664 233 736 q 225 478 225 592 q 229 292 225 364 q 248 178 233 219 q 292 119 263 138 q 372 97 322 101 q 497 92 421 92 m 297 1074 l 297 1082 l 439 1269 l 557 1269 l 699 1082 l 699 1074 l 621 1074 l 497 1208 l 375 1074 l 297 1074 m 435 1301 l 435 1315 q 440 1350 435 1336 q 459 1374 446 1364 q 497 1390 472 1383 l 528 1399 q 575 1415 560 1408 q 595 1431 590 1422 q 600 1457 600 1440 q 590 1494 600 1483 q 553 1507 579 1504 q 478 1510 526 1510 q 437 1509 461 1510 q 385 1507 413 1508 q 336 1503 358 1506 l 336 1563 q 415 1570 369 1567 q 497 1574 461 1574 q 599 1567 558 1574 q 659 1537 639 1560 q 679 1465 679 1514 q 672 1415 679 1435 q 647 1383 665 1396 q 593 1361 628 1371 l 560 1351 q 520 1339 532 1344 q 506 1326 508 1333 q 503 1301 503 1318 l 435 1301 z "},"Ỗ":{"ha":996,"x_min":106,"x_max":889,"o":"m 497 -11 q 313 1 386 -11 q 198 43 240 13 q 136 128 156 74 q 111 269 117 183 q 106 478 106 354 q 111 687 106 601 q 136 827 117 772 q 198 913 156 882 q 313 955 240 943 q 497 967 386 967 q 681 955 608 967 q 797 913 754 943 q 858 827 839 882 q 883 687 878 772 q 889 478 889 601 q 883 269 889 354 q 858 128 878 183 q 797 43 839 74 q 681 1 754 13 q 497 -11 608 -11 m 497 92 q 624 97 574 92 q 703 119 674 101 q 747 178 732 138 q 766 292 763 219 q 769 478 769 364 q 766 664 769 592 q 747 777 763 736 q 703 836 732 818 q 624 859 674 854 q 497 864 574 864 q 372 859 421 864 q 292 836 322 854 q 248 777 263 818 q 229 664 233 736 q 225 478 225 592 q 229 292 225 364 q 248 178 233 219 q 292 119 263 138 q 372 97 322 101 q 497 92 421 92 m 297 1074 l 297 1082 l 439 1269 l 557 1269 l 699 1082 l 699 1074 l 621 1074 l 497 1208 l 375 1074 l 297 1074 m 261 1331 q 267 1419 261 1385 q 296 1472 274 1454 q 364 1489 318 1489 q 440 1478 403 1489 q 515 1456 478 1468 q 572 1438 544 1446 q 626 1429 599 1429 q 663 1445 657 1429 q 669 1504 669 1461 l 735 1504 q 728 1415 735 1450 q 701 1363 722 1381 q 633 1346 679 1346 q 556 1357 592 1346 q 482 1379 519 1368 q 425 1397 453 1389 q 371 1406 397 1406 q 334 1390 340 1406 q 328 1331 328 1374 l 261 1331 z "},"Ȍ":{"ha":996,"x_min":106,"x_max":889,"o":"m 497 -11 q 313 1 386 -11 q 198 43 240 13 q 136 128 156 74 q 111 269 117 183 q 106 478 106 354 q 111 687 106 601 q 136 827 117 772 q 198 913 156 882 q 313 955 240 943 q 497 967 386 967 q 681 955 608 967 q 797 913 754 943 q 858 827 839 882 q 883 687 878 772 q 889 478 889 601 q 883 269 889 354 q 858 128 878 183 q 797 43 839 74 q 681 1 754 13 q 497 -11 608 -11 m 497 92 q 624 97 574 92 q 703 119 674 101 q 747 178 732 138 q 766 292 763 219 q 769 478 769 364 q 766 664 769 592 q 747 777 763 736 q 703 836 732 818 q 624 859 674 854 q 497 864 574 864 q 372 859 421 864 q 292 836 322 854 q 248 777 263 818 q 229 664 233 736 q 225 478 225 592 q 229 292 225 364 q 248 178 233 219 q 292 119 263 138 q 372 97 322 101 q 497 92 421 92 m 694 1074 l 622 1074 l 464 1236 l 464 1243 l 571 1243 l 694 1081 l 694 1074 m 443 1074 l 371 1074 l 213 1236 l 213 1243 l 321 1243 l 443 1081 l 443 1074 z "},"Ö":{"ha":996,"x_min":106,"x_max":889,"o":"m 497 -11 q 313 1 386 -11 q 198 43 240 13 q 136 128 156 74 q 111 269 117 183 q 106 478 106 354 q 111 687 106 601 q 136 827 117 772 q 198 913 156 882 q 313 955 240 943 q 497 967 386 967 q 681 955 608 967 q 797 913 754 943 q 858 827 839 882 q 883 687 878 772 q 889 478 889 601 q 883 269 889 354 q 858 128 878 183 q 797 43 839 74 q 681 1 754 13 q 497 -11 608 -11 m 497 92 q 624 97 574 92 q 703 119 674 101 q 747 178 732 138 q 766 292 763 219 q 769 478 769 364 q 766 664 769 592 q 747 777 763 736 q 703 836 732 818 q 624 859 674 854 q 497 864 574 864 q 372 859 421 864 q 292 836 322 854 q 248 777 263 818 q 229 664 233 736 q 225 478 225 592 q 229 292 225 364 q 248 178 233 219 q 292 119 263 138 q 372 97 322 101 q 497 92 421 92 m 300 1119 l 300 1231 l 407 1231 l 407 1119 l 300 1119 m 588 1119 l 588 1231 l 693 1231 l 693 1119 l 588 1119 z "},"Ȫ":{"ha":996,"x_min":106,"x_max":889,"o":"m 497 -11 q 313 1 386 -11 q 198 43 240 13 q 136 128 156 74 q 111 269 117 183 q 106 478 106 354 q 111 687 106 601 q 136 827 117 772 q 198 913 156 882 q 313 955 240 943 q 497 967 386 967 q 681 955 608 967 q 797 913 754 943 q 858 827 839 882 q 883 687 878 772 q 889 478 889 601 q 883 269 889 354 q 858 128 878 183 q 797 43 839 74 q 681 1 754 13 q 497 -11 608 -11 m 497 92 q 624 97 574 92 q 703 119 674 101 q 747 178 732 138 q 766 292 763 219 q 769 478 769 364 q 766 664 769 592 q 747 777 763 736 q 703 836 732 818 q 624 859 674 854 q 497 864 574 864 q 372 859 421 864 q 292 836 322 854 q 248 777 263 818 q 229 664 233 736 q 225 478 225 592 q 229 292 225 364 q 248 178 233 219 q 292 119 263 138 q 372 97 322 101 q 497 92 421 92 m 300 1119 l 300 1231 l 407 1231 l 407 1119 l 300 1119 m 588 1119 l 588 1231 l 693 1231 l 693 1119 l 588 1119 m 297 1369 l 297 1449 l 699 1449 l 699 1369 l 297 1369 z "},"Ȱ":{"ha":996,"x_min":106,"x_max":889,"o":"m 497 -11 q 313 1 386 -11 q 198 43 240 13 q 136 128 156 74 q 111 269 117 183 q 106 478 106 354 q 111 687 106 601 q 136 827 117 772 q 198 913 156 882 q 313 955 240 943 q 497 967 386 967 q 681 955 608 967 q 797 913 754 943 q 858 827 839 882 q 883 687 878 772 q 889 478 889 601 q 883 269 889 354 q 858 128 878 183 q 797 43 839 74 q 681 1 754 13 q 497 -11 608 -11 m 497 92 q 624 97 574 92 q 703 119 674 101 q 747 178 732 138 q 766 292 763 219 q 769 478 769 364 q 766 664 769 592 q 747 777 763 736 q 703 836 732 818 q 624 859 674 854 q 497 864 574 864 q 372 859 421 864 q 292 836 322 854 q 248 777 263 818 q 229 664 233 736 q 225 478 225 592 q 229 292 225 364 q 248 178 233 219 q 292 119 263 138 q 372 97 322 101 q 497 92 421 92 m 444 1119 l 444 1232 l 551 1232 l 551 1119 l 444 1119 m 297 1349 l 297 1428 l 699 1428 l 699 1349 l 297 1349 z "},"Ọ":{"ha":996,"x_min":106,"x_max":889,"o":"m 497 -11 q 313 1 386 -11 q 198 43 240 13 q 136 128 156 74 q 111 269 117 183 q 106 478 106 354 q 111 687 106 601 q 136 827 117 772 q 198 913 156 882 q 313 955 240 943 q 497 967 386 967 q 681 955 608 967 q 797 913 754 943 q 858 827 839 882 q 883 687 878 772 q 889 478 889 601 q 883 269 889 354 q 858 128 878 183 q 797 43 839 74 q 681 1 754 13 q 497 -11 608 -11 m 497 92 q 624 97 574 92 q 703 119 674 101 q 747 178 732 138 q 766 292 763 219 q 769 478 769 364 q 766 664 769 592 q 747 777 763 736 q 703 836 732 818 q 624 859 674 854 q 497 864 574 864 q 372 859 421 864 q 292 836 322 854 q 248 777 263 818 q 229 664 233 736 q 225 478 225 592 q 229 292 225 364 q 248 178 233 219 q 292 119 263 138 q 372 97 322 101 q 497 92 421 92 m 449 -267 l 449 -161 l 549 -161 l 549 -267 l 449 -267 z "},"Ò":{"ha":996,"x_min":106,"x_max":889,"o":"m 497 -11 q 313 1 386 -11 q 198 43 240 13 q 136 128 156 74 q 111 269 117 183 q 106 478 106 354 q 111 687 106 601 q 136 827 117 772 q 198 913 156 882 q 313 955 240 943 q 497 967 386 967 q 681 955 608 967 q 797 913 754 943 q 858 827 839 882 q 883 687 878 772 q 889 478 889 601 q 883 269 889 354 q 858 128 878 183 q 797 43 839 74 q 681 1 754 13 q 497 -11 608 -11 m 497 92 q 624 97 574 92 q 703 119 674 101 q 747 178 732 138 q 766 292 763 219 q 769 478 769 364 q 766 664 769 592 q 747 777 763 736 q 703 836 732 818 q 624 859 674 854 q 497 864 574 864 q 372 859 421 864 q 292 836 322 854 q 248 777 263 818 q 229 664 233 736 q 225 478 225 592 q 229 292 225 364 q 248 178 233 219 q 292 119 263 138 q 372 97 322 101 q 497 92 421 92 m 490 1074 l 311 1261 l 311 1268 l 433 1268 l 574 1081 l 574 1074 l 490 1074 z "},"Ỏ":{"ha":996,"x_min":106,"x_max":889,"o":"m 497 -11 q 313 1 386 -11 q 198 43 240 13 q 136 128 156 74 q 111 269 117 183 q 106 478 106 354 q 111 687 106 601 q 136 827 117 772 q 198 913 156 882 q 313 955 240 943 q 497 967 386 967 q 681 955 608 967 q 797 913 754 943 q 858 827 839 882 q 883 687 878 772 q 889 478 889 601 q 883 269 889 354 q 858 128 878 183 q 797 43 839 74 q 681 1 754 13 q 497 -11 608 -11 m 497 92 q 624 97 574 92 q 703 119 674 101 q 747 178 732 138 q 766 292 763 219 q 769 478 769 364 q 766 664 769 592 q 747 777 763 736 q 703 836 732 818 q 624 859 674 854 q 497 864 574 864 q 372 859 421 864 q 292 836 322 854 q 248 777 263 818 q 229 664 233 736 q 225 478 225 592 q 229 292 225 364 q 248 178 233 219 q 292 119 263 138 q 372 97 322 101 q 497 92 421 92 m 436 1054 l 436 1068 q 442 1103 436 1089 q 460 1126 447 1117 q 497 1143 474 1136 l 529 1151 q 576 1168 560 1161 q 596 1184 592 1175 q 600 1210 600 1193 q 590 1247 600 1236 q 553 1260 579 1257 q 479 1263 526 1263 q 438 1262 463 1263 q 385 1260 413 1261 q 336 1256 358 1258 l 336 1315 q 417 1323 371 1319 q 499 1326 463 1326 q 599 1319 558 1326 q 659 1290 639 1313 q 679 1218 679 1267 q 672 1168 679 1188 q 647 1136 665 1149 q 594 1114 629 1124 l 560 1104 q 521 1092 533 1097 q 506 1078 508 1086 q 503 1054 503 1071 l 436 1054 z "},"Ơ":{"ha":996,"x_min":106,"x_max":913,"o":"m 661 901 l 661 956 l 753 956 q 818 974 806 956 q 831 1043 831 992 l 831 1086 l 913 1086 l 913 1054 q 906 978 913 1008 q 883 932 900 949 q 835 908 867 915 q 753 901 803 901 l 661 901 m 497 -11 q 313 1 386 -11 q 198 43 240 13 q 136 128 156 74 q 111 269 117 183 q 106 478 106 354 q 111 687 106 601 q 136 827 117 772 q 198 913 156 882 q 313 955 240 943 q 497 967 386 967 q 681 955 608 967 q 797 913 754 943 q 858 827 839 882 q 883 687 878 772 q 889 478 889 601 q 883 269 889 354 q 858 128 878 183 q 797 43 839 74 q 681 1 754 13 q 497 -11 608 -11 m 497 92 q 624 97 574 92 q 703 119 674 101 q 747 178 732 138 q 766 292 763 219 q 769 478 769 364 q 766 664 769 592 q 747 777 763 736 q 703 836 732 818 q 624 859 674 854 q 497 864 574 864 q 372 859 421 864 q 292 836 322 854 q 248 777 263 818 q 229 664 233 736 q 225 478 225 592 q 229 292 225 364 q 248 178 233 219 q 292 119 263 138 q 372 97 322 101 q 497 92 421 92 z "},"Ớ":{"ha":996,"x_min":106,"x_max":913,"o":"m 661 901 l 661 956 l 753 956 q 818 974 806 956 q 831 1043 831 992 l 831 1086 l 913 1086 l 913 1054 q 906 978 913 1008 q 883 932 900 949 q 835 908 867 915 q 753 901 803 901 l 661 901 m 497 -11 q 313 1 386 -11 q 198 43 240 13 q 136 128 156 74 q 111 269 117 183 q 106 478 106 354 q 111 687 106 601 q 136 827 117 772 q 198 913 156 882 q 313 955 240 943 q 497 967 386 967 q 681 955 608 967 q 797 913 754 943 q 858 827 839 882 q 883 687 878 772 q 889 478 889 601 q 883 269 889 354 q 858 128 878 183 q 797 43 839 74 q 681 1 754 13 q 497 -11 608 -11 m 497 92 q 624 97 574 92 q 703 119 674 101 q 747 178 732 138 q 766 292 763 219 q 769 478 769 364 q 766 664 769 592 q 747 777 763 736 q 703 836 732 818 q 624 859 674 854 q 497 864 574 864 q 372 859 421 864 q 292 836 322 854 q 248 777 263 818 q 229 664 233 736 q 225 478 225 592 q 229 292 225 364 q 248 178 233 219 q 292 119 263 138 q 372 97 322 101 q 497 92 421 92 m 425 1074 l 425 1081 l 565 1268 l 688 1268 l 688 1261 l 508 1074 l 425 1074 z "},"Ợ":{"ha":996,"x_min":106,"x_max":913,"o":"m 661 901 l 661 956 l 753 956 q 818 974 806 956 q 831 1043 831 992 l 831 1086 l 913 1086 l 913 1054 q 906 978 913 1008 q 883 932 900 949 q 835 908 867 915 q 753 901 803 901 l 661 901 m 497 -11 q 313 1 386 -11 q 198 43 240 13 q 136 128 156 74 q 111 269 117 183 q 106 478 106 354 q 111 687 106 601 q 136 827 117 772 q 198 913 156 882 q 313 955 240 943 q 497 967 386 967 q 681 955 608 967 q 797 913 754 943 q 858 827 839 882 q 883 687 878 772 q 889 478 889 601 q 883 269 889 354 q 858 128 878 183 q 797 43 839 74 q 681 1 754 13 q 497 -11 608 -11 m 497 92 q 624 97 574 92 q 703 119 674 101 q 747 178 732 138 q 766 292 763 219 q 769 478 769 364 q 766 664 769 592 q 747 777 763 736 q 703 836 732 818 q 624 859 674 854 q 497 864 574 864 q 372 859 421 864 q 292 836 322 854 q 248 777 263 818 q 229 664 233 736 q 225 478 225 592 q 229 292 225 364 q 248 178 233 219 q 292 119 263 138 q 372 97 322 101 q 497 92 421 92 m 449 -267 l 449 -161 l 549 -161 l 549 -267 l 449 -267 z "},"Ờ":{"ha":996,"x_min":106,"x_max":913,"o":"m 661 901 l 661 956 l 753 956 q 818 974 806 956 q 831 1043 831 992 l 831 1086 l 913 1086 l 913 1054 q 906 978 913 1008 q 883 932 900 949 q 835 908 867 915 q 753 901 803 901 l 661 901 m 497 -11 q 313 1 386 -11 q 198 43 240 13 q 136 128 156 74 q 111 269 117 183 q 106 478 106 354 q 111 687 106 601 q 136 827 117 772 q 198 913 156 882 q 313 955 240 943 q 497 967 386 967 q 681 955 608 967 q 797 913 754 943 q 858 827 839 882 q 883 687 878 772 q 889 478 889 601 q 883 269 889 354 q 858 128 878 183 q 797 43 839 74 q 681 1 754 13 q 497 -11 608 -11 m 497 92 q 624 97 574 92 q 703 119 674 101 q 747 178 732 138 q 766 292 763 219 q 769 478 769 364 q 766 664 769 592 q 747 777 763 736 q 703 836 732 818 q 624 859 674 854 q 497 864 574 864 q 372 859 421 864 q 292 836 322 854 q 248 777 263 818 q 229 664 233 736 q 225 478 225 592 q 229 292 225 364 q 248 178 233 219 q 292 119 263 138 q 372 97 322 101 q 497 92 421 92 m 490 1074 l 311 1261 l 311 1268 l 433 1268 l 574 1081 l 574 1074 l 490 1074 z "},"Ở":{"ha":996,"x_min":106,"x_max":913,"o":"m 661 901 l 661 956 l 753 956 q 818 974 806 956 q 831 1043 831 992 l 831 1086 l 913 1086 l 913 1054 q 906 978 913 1008 q 883 932 900 949 q 835 908 867 915 q 753 901 803 901 l 661 901 m 497 -11 q 313 1 386 -11 q 198 43 240 13 q 136 128 156 74 q 111 269 117 183 q 106 478 106 354 q 111 687 106 601 q 136 827 117 772 q 198 913 156 882 q 313 955 240 943 q 497 967 386 967 q 681 955 608 967 q 797 913 754 943 q 858 827 839 882 q 883 687 878 772 q 889 478 889 601 q 883 269 889 354 q 858 128 878 183 q 797 43 839 74 q 681 1 754 13 q 497 -11 608 -11 m 497 92 q 624 97 574 92 q 703 119 674 101 q 747 178 732 138 q 766 292 763 219 q 769 478 769 364 q 766 664 769 592 q 747 777 763 736 q 703 836 732 818 q 624 859 674 854 q 497 864 574 864 q 372 859 421 864 q 292 836 322 854 q 248 777 263 818 q 229 664 233 736 q 225 478 225 592 q 229 292 225 364 q 248 178 233 219 q 292 119 263 138 q 372 97 322 101 q 497 92 421 92 m 436 1054 l 436 1068 q 442 1103 436 1089 q 460 1126 447 1117 q 497 1143 474 1136 l 529 1151 q 576 1168 560 1161 q 596 1184 592 1175 q 600 1210 600 1193 q 590 1247 600 1236 q 553 1260 579 1257 q 479 1263 526 1263 q 438 1262 463 1263 q 385 1260 413 1261 q 336 1256 358 1258 l 336 1315 q 417 1323 371 1319 q 499 1326 463 1326 q 599 1319 558 1326 q 659 1290 639 1313 q 679 1218 679 1267 q 672 1168 679 1188 q 647 1136 665 1149 q 594 1114 629 1124 l 560 1104 q 521 1092 533 1097 q 506 1078 508 1086 q 503 1054 503 1071 l 436 1054 z "},"Ỡ":{"ha":996,"x_min":106,"x_max":913,"o":"m 661 901 l 661 956 l 753 956 q 818 974 806 956 q 831 1043 831 992 l 831 1086 l 913 1086 l 913 1054 q 906 978 913 1008 q 883 932 900 949 q 835 908 867 915 q 753 901 803 901 l 661 901 m 497 -11 q 313 1 386 -11 q 198 43 240 13 q 136 128 156 74 q 111 269 117 183 q 106 478 106 354 q 111 687 106 601 q 136 827 117 772 q 198 913 156 882 q 313 955 240 943 q 497 967 386 967 q 681 955 608 967 q 797 913 754 943 q 858 827 839 882 q 883 687 878 772 q 889 478 889 601 q 883 269 889 354 q 858 128 878 183 q 797 43 839 74 q 681 1 754 13 q 497 -11 608 -11 m 497 92 q 624 97 574 92 q 703 119 674 101 q 747 178 732 138 q 766 292 763 219 q 769 478 769 364 q 766 664 769 592 q 747 777 763 736 q 703 836 732 818 q 624 859 674 854 q 497 864 574 864 q 372 859 421 864 q 292 836 322 854 q 248 777 263 818 q 229 664 233 736 q 225 478 225 592 q 229 292 225 364 q 248 178 233 219 q 292 119 263 138 q 372 97 322 101 q 497 92 421 92 m 261 1083 q 267 1172 261 1138 q 296 1224 274 1207 q 364 1242 318 1242 q 440 1231 403 1242 q 515 1208 478 1221 q 572 1190 544 1199 q 626 1182 599 1182 q 663 1198 657 1182 q 669 1257 669 1214 l 735 1257 q 728 1168 735 1203 q 701 1116 722 1133 q 633 1099 679 1099 q 556 1110 592 1099 q 482 1132 521 1121 q 425 1150 453 1142 q 371 1158 397 1158 q 334 1142 340 1158 q 328 1083 328 1126 l 261 1083 z "},"Ő":{"ha":996,"x_min":106,"x_max":889,"o":"m 497 -11 q 313 1 386 -11 q 198 43 240 13 q 136 128 156 74 q 111 269 117 183 q 106 478 106 354 q 111 687 106 601 q 136 827 117 772 q 198 913 156 882 q 313 955 240 943 q 497 967 386 967 q 681 955 608 967 q 797 913 754 943 q 858 827 839 882 q 883 687 878 772 q 889 478 889 601 q 883 269 889 354 q 858 128 878 183 q 797 43 839 74 q 681 1 754 13 q 497 -11 608 -11 m 497 92 q 624 97 574 92 q 703 119 674 101 q 747 178 732 138 q 766 292 763 219 q 769 478 769 364 q 766 664 769 592 q 747 777 763 736 q 703 836 732 818 q 624 859 674 854 q 497 864 574 864 q 372 859 421 864 q 292 836 322 854 q 248 777 263 818 q 229 664 233 736 q 225 478 225 592 q 229 292 225 364 q 248 178 233 219 q 292 119 263 138 q 372 97 322 101 q 497 92 421 92 m 314 1074 l 314 1081 l 438 1243 l 544 1243 l 544 1236 l 388 1074 l 314 1074 m 565 1074 l 565 1081 l 689 1243 l 796 1243 l 796 1236 l 638 1074 l 565 1074 z "},"Ȏ":{"ha":996,"x_min":106,"x_max":889,"o":"m 497 -11 q 313 1 386 -11 q 198 43 240 13 q 136 128 156 74 q 111 269 117 183 q 106 478 106 354 q 111 687 106 601 q 136 827 117 772 q 198 913 156 882 q 313 955 240 943 q 497 967 386 967 q 681 955 608 967 q 797 913 754 943 q 858 827 839 882 q 883 687 878 772 q 889 478 889 601 q 883 269 889 354 q 858 128 878 183 q 797 43 839 74 q 681 1 754 13 q 497 -11 608 -11 m 497 92 q 624 97 574 92 q 703 119 674 101 q 747 178 732 138 q 766 292 763 219 q 769 478 769 364 q 766 664 769 592 q 747 777 763 736 q 703 836 732 818 q 624 859 674 854 q 497 864 574 864 q 372 859 421 864 q 292 836 322 854 q 248 777 263 818 q 229 664 233 736 q 225 478 225 592 q 229 292 225 364 q 248 178 233 219 q 292 119 263 138 q 372 97 322 101 q 497 92 421 92 m 499 1274 q 605 1259 567 1274 q 661 1217 643 1244 q 683 1154 679 1190 q 688 1074 688 1118 l 615 1074 q 610 1144 615 1115 q 581 1188 606 1174 q 499 1203 557 1203 q 415 1188 440 1203 q 385 1144 390 1174 q 379 1074 379 1115 l 306 1074 q 310 1154 306 1118 q 333 1217 315 1190 q 391 1259 351 1244 q 499 1274 431 1274 z "},"Ō":{"ha":996,"x_min":106,"x_max":889,"o":"m 497 -11 q 313 1 386 -11 q 198 43 240 13 q 136 128 156 74 q 111 269 117 183 q 106 478 106 354 q 111 687 106 601 q 136 827 117 772 q 198 913 156 882 q 313 955 240 943 q 497 967 386 967 q 681 955 608 967 q 797 913 754 943 q 858 827 839 882 q 883 687 878 772 q 889 478 889 601 q 883 269 889 354 q 858 128 878 183 q 797 43 839 74 q 681 1 754 13 q 497 -11 608 -11 m 497 92 q 624 97 574 92 q 703 119 674 101 q 747 178 732 138 q 766 292 763 219 q 769 478 769 364 q 766 664 769 592 q 747 777 763 736 q 703 836 732 818 q 624 859 674 854 q 497 864 574 864 q 372 859 421 864 q 292 836 322 854 q 248 777 263 818 q 229 664 233 736 q 225 478 225 592 q 229 292 225 364 q 248 178 233 219 q 292 119 263 138 q 372 97 322 101 q 497 92 421 92 m 297 1119 l 297 1199 l 699 1199 l 699 1119 l 297 1119 z "},"Ǫ":{"ha":996,"x_min":106,"x_max":889,"o":"m 497 -11 q 313 1 386 -11 q 198 43 240 13 q 136 128 156 74 q 111 269 117 183 q 106 478 106 354 q 111 687 106 601 q 136 827 117 772 q 198 913 156 882 q 313 955 240 943 q 497 967 386 967 q 681 955 608 967 q 797 913 754 943 q 858 827 839 882 q 883 687 878 772 q 889 478 889 601 q 883 269 889 354 q 858 128 878 183 q 797 43 839 74 q 681 1 754 13 q 497 -11 608 -11 m 497 92 q 624 97 574 92 q 703 119 674 101 q 747 178 732 138 q 766 292 763 219 q 769 478 769 364 q 766 664 769 592 q 747 777 763 736 q 703 836 732 818 q 624 859 674 854 q 497 864 574 864 q 372 859 421 864 q 292 836 322 854 q 248 777 263 818 q 229 664 233 736 q 225 478 225 592 q 229 292 225 364 q 248 178 233 219 q 292 119 263 138 q 372 97 322 101 q 497 92 421 92 m 524 -278 q 443 -263 472 -278 q 402 -224 414 -249 q 390 -171 390 -200 q 419 -76 390 -126 q 494 14 449 -25 l 576 0 q 538 -39 558 -14 q 503 -92 517 -64 q 489 -147 489 -121 q 503 -187 489 -171 q 554 -203 517 -203 q 565 -203 558 -203 q 578 -201 571 -203 l 578 -275 q 551 -277 564 -276 q 524 -278 538 -278 z "},"Ø":{"ha":996,"x_min":106,"x_max":889,"o":"m 106 -76 l 785 1032 l 889 1032 l 210 -76 l 106 -76 m 497 -11 q 313 1 386 -11 q 198 43 240 13 q 136 128 156 74 q 111 269 117 183 q 106 478 106 354 q 111 687 106 601 q 136 827 117 772 q 198 913 156 882 q 313 955 240 943 q 497 967 386 967 q 681 955 608 967 q 797 913 754 943 q 858 827 839 882 q 883 687 878 772 q 889 478 889 601 q 883 269 889 354 q 858 128 878 183 q 797 43 839 74 q 681 1 754 13 q 497 -11 608 -11 m 497 92 q 624 97 574 92 q 703 119 674 101 q 747 178 732 138 q 766 292 763 219 q 769 478 769 364 q 766 664 769 592 q 747 777 763 736 q 703 836 732 818 q 624 859 674 854 q 497 864 574 864 q 372 859 421 864 q 292 836 322 854 q 248 777 263 818 q 229 664 233 736 q 225 478 225 592 q 229 292 225 364 q 248 178 233 219 q 292 119 263 138 q 372 97 322 101 q 497 92 421 92 z "},"Ǿ":{"ha":996,"x_min":106,"x_max":889,"o":"m 106 -76 l 785 1032 l 889 1032 l 210 -76 l 106 -76 m 497 -11 q 313 1 386 -11 q 198 43 240 13 q 136 128 156 74 q 111 269 117 183 q 106 478 106 354 q 111 687 106 601 q 136 827 117 772 q 198 913 156 882 q 313 955 240 943 q 497 967 386 967 q 681 955 608 967 q 797 913 754 943 q 858 827 839 882 q 883 687 878 772 q 889 478 889 601 q 883 269 889 354 q 858 128 878 183 q 797 43 839 74 q 681 1 754 13 q 497 -11 608 -11 m 497 92 q 624 97 574 92 q 703 119 674 101 q 747 178 732 138 q 766 292 763 219 q 769 478 769 364 q 766 664 769 592 q 747 777 763 736 q 703 836 732 818 q 624 859 674 854 q 497 864 574 864 q 372 859 421 864 q 292 836 322 854 q 248 777 263 818 q 229 664 233 736 q 225 478 225 592 q 229 292 225 364 q 248 178 233 219 q 292 119 263 138 q 372 97 322 101 q 497 92 421 92 m 425 1074 l 425 1081 l 565 1268 l 688 1268 l 688 1261 l 508 1074 l 425 1074 z "},"Õ":{"ha":996,"x_min":106,"x_max":889,"o":"m 497 -11 q 313 1 386 -11 q 198 43 240 13 q 136 128 156 74 q 111 269 117 183 q 106 478 106 354 q 111 687 106 601 q 136 827 117 772 q 198 913 156 882 q 313 955 240 943 q 497 967 386 967 q 681 955 608 967 q 797 913 754 943 q 858 827 839 882 q 883 687 878 772 q 889 478 889 601 q 883 269 889 354 q 858 128 878 183 q 797 43 839 74 q 681 1 754 13 q 497 -11 608 -11 m 497 92 q 624 97 574 92 q 703 119 674 101 q 747 178 732 138 q 766 292 763 219 q 769 478 769 364 q 766 664 769 592 q 747 777 763 736 q 703 836 732 818 q 624 859 674 854 q 497 864 574 864 q 372 859 421 864 q 292 836 322 854 q 248 777 263 818 q 229 664 233 736 q 225 478 225 592 q 229 292 225 364 q 248 178 233 219 q 292 119 263 138 q 372 97 322 101 q 497 92 421 92 m 261 1083 q 267 1172 261 1138 q 296 1224 274 1207 q 364 1242 318 1242 q 440 1231 403 1242 q 515 1208 478 1221 q 572 1190 544 1199 q 626 1182 599 1182 q 663 1198 657 1182 q 669 1257 669 1214 l 735 1257 q 728 1168 735 1203 q 701 1116 722 1133 q 633 1099 679 1099 q 556 1110 592 1099 q 482 1132 521 1121 q 425 1150 453 1142 q 371 1158 397 1158 q 334 1142 340 1158 q 328 1083 328 1126 l 261 1083 z "},"Ȭ":{"ha":996,"x_min":106,"x_max":889,"o":"m 497 -11 q 313 1 386 -11 q 198 43 240 13 q 136 128 156 74 q 111 269 117 183 q 106 478 106 354 q 111 687 106 601 q 136 827 117 772 q 198 913 156 882 q 313 955 240 943 q 497 967 386 967 q 681 955 608 967 q 797 913 754 943 q 858 827 839 882 q 883 687 878 772 q 889 478 889 601 q 883 269 889 354 q 858 128 878 183 q 797 43 839 74 q 681 1 754 13 q 497 -11 608 -11 m 497 92 q 624 97 574 92 q 703 119 674 101 q 747 178 732 138 q 766 292 763 219 q 769 478 769 364 q 766 664 769 592 q 747 777 763 736 q 703 836 732 818 q 624 859 674 854 q 497 864 574 864 q 372 859 421 864 q 292 836 322 854 q 248 777 263 818 q 229 664 233 736 q 225 478 225 592 q 229 292 225 364 q 248 178 233 219 q 292 119 263 138 q 372 97 322 101 q 497 92 421 92 m 261 1083 q 267 1172 261 1138 q 296 1224 274 1207 q 364 1242 318 1242 q 440 1231 403 1242 q 515 1208 478 1221 q 572 1190 544 1199 q 626 1182 599 1182 q 663 1198 657 1182 q 669 1257 669 1214 l 735 1257 q 728 1168 735 1203 q 701 1116 722 1133 q 633 1099 679 1099 q 556 1110 592 1099 q 482 1132 521 1121 q 425 1150 453 1142 q 371 1158 397 1158 q 334 1142 340 1158 q 328 1083 328 1126 l 261 1083 m 297 1367 l 297 1446 l 699 1446 l 699 1367 l 297 1367 z "},"Œ":{"ha":1451,"x_min":106,"x_max":1372,"o":"m 497 0 q 313 11 386 0 q 198 53 240 22 q 136 137 156 83 q 111 274 117 190 q 106 478 106 357 q 111 682 106 599 q 136 819 117 765 q 198 903 156 872 q 313 944 240 933 q 497 956 386 956 l 1372 956 l 1372 853 l 921 853 q 867 855 894 853 q 819 861 840 857 q 863 788 849 832 q 883 681 878 743 q 889 535 889 618 l 1307 535 l 1307 431 l 889 431 q 884 279 889 344 q 865 169 879 214 q 819 94 850 125 q 867 101 840 99 q 921 103 894 103 l 1372 103 l 1372 0 l 497 0 m 497 103 q 624 107 574 103 q 703 129 674 111 q 747 187 732 147 q 766 297 763 226 q 769 478 769 368 q 766 658 769 588 q 747 769 763 729 q 703 826 732 808 q 624 849 674 844 q 497 853 574 853 q 372 849 421 853 q 292 826 322 844 q 248 769 263 808 q 229 658 233 729 q 225 478 225 588 q 229 297 225 368 q 248 187 233 226 q 292 129 263 147 q 372 107 322 111 q 497 103 421 103 z "},"P":{"ha":906,"x_min":139,"x_max":832,"o":"m 139 0 l 139 956 l 557 956 q 703 933 649 956 q 785 869 758 910 q 822 774 813 829 q 832 654 832 719 q 823 537 832 592 q 786 440 814 482 q 703 375 758 399 q 554 351 647 351 l 258 351 l 258 0 l 139 0 m 258 456 l 515 456 q 623 467 583 456 q 682 502 663 478 q 707 564 701 526 q 713 654 713 601 q 708 744 713 707 q 684 806 703 782 q 626 841 665 829 q 518 853 586 853 l 258 853 l 258 456 z "},"Þ":{"ha":906,"x_min":139,"x_max":832,"o":"m 139 0 l 139 956 l 258 956 l 258 789 l 557 789 q 703 766 649 789 q 785 702 758 743 q 822 607 813 661 q 832 488 832 553 q 823 370 832 425 q 786 274 814 315 q 703 208 758 232 q 554 185 647 185 l 258 185 l 258 0 l 139 0 m 258 288 l 515 288 q 623 299 583 288 q 682 335 663 311 q 707 397 701 358 q 713 488 713 435 q 708 577 713 539 q 684 639 703 615 q 626 674 665 663 q 518 686 586 686 l 258 686 l 258 288 z "},"Q":{"ha":996,"x_min":106,"x_max":914,"o":"m 778 -160 l 444 303 l 574 303 l 914 -157 l 914 -160 l 778 -160 m 497 -11 q 313 1 386 -11 q 198 43 240 13 q 136 128 156 74 q 111 269 117 183 q 106 478 106 354 q 111 687 106 601 q 136 827 117 772 q 198 913 156 882 q 313 955 240 943 q 497 967 386 967 q 681 955 608 967 q 797 913 754 943 q 858 827 839 882 q 883 687 878 772 q 889 478 889 601 q 883 269 889 354 q 858 128 878 183 q 797 43 839 74 q 681 1 754 13 q 497 -11 608 -11 m 497 92 q 624 97 574 92 q 703 119 674 101 q 747 178 732 138 q 766 292 763 219 q 769 478 769 364 q 766 664 769 592 q 747 777 763 736 q 703 836 732 818 q 624 859 674 854 q 497 864 574 864 q 372 859 421 864 q 292 836 322 854 q 248 777 263 818 q 229 664 233 736 q 225 478 225 592 q 229 292 225 364 q 248 178 233 219 q 292 119 263 138 q 372 97 322 101 q 497 92 421 92 z "},"R":{"ha":946,"x_min":139,"x_max":857,"o":"m 139 0 l 139 956 l 578 956 q 722 934 668 956 q 801 873 775 913 q 835 781 826 833 q 843 668 843 728 q 834 562 843 617 q 794 463 825 507 q 696 397 763 418 l 857 0 l 729 0 l 571 401 l 604 385 q 581 381 594 382 q 543 379 567 379 l 258 379 l 258 0 l 139 0 m 258 483 l 526 483 q 635 494 596 483 q 694 529 675 506 q 718 587 713 553 q 724 668 724 621 q 719 749 724 715 q 697 806 714 783 q 641 841 679 829 q 536 853 603 853 l 258 853 l 258 483 z "},"Ŕ":{"ha":946,"x_min":139,"x_max":857,"o":"m 139 0 l 139 956 l 578 956 q 722 934 668 956 q 801 873 775 913 q 835 781 826 833 q 843 668 843 728 q 834 562 843 617 q 794 463 825 507 q 696 397 763 418 l 857 0 l 729 0 l 571 401 l 604 385 q 581 381 594 382 q 543 379 567 379 l 258 379 l 258 0 l 139 0 m 258 483 l 526 483 q 635 494 596 483 q 694 529 675 506 q 718 587 713 553 q 724 668 724 621 q 719 749 724 715 q 697 806 714 783 q 641 841 679 829 q 536 853 603 853 l 258 853 l 258 483 m 400 1074 l 400 1081 l 540 1268 l 663 1268 l 663 1261 l 483 1074 l 400 1074 z "},"Ř":{"ha":946,"x_min":139,"x_max":857,"o":"m 139 0 l 139 956 l 578 956 q 722 934 668 956 q 801 873 775 913 q 835 781 826 833 q 843 668 843 728 q 834 562 843 617 q 794 463 825 507 q 696 397 763 418 l 857 0 l 729 0 l 571 401 l 604 385 q 581 381 594 382 q 543 379 567 379 l 258 379 l 258 0 l 139 0 m 258 483 l 526 483 q 635 494 596 483 q 694 529 675 506 q 718 587 713 553 q 724 668 724 621 q 719 749 724 715 q 697 806 714 783 q 641 841 679 829 q 536 853 603 853 l 258 853 l 258 483 m 414 1074 l 272 1260 l 272 1268 l 350 1268 l 472 1133 l 596 1268 l 674 1268 l 674 1260 l 532 1074 l 414 1074 z "},"Ŗ":{"ha":946,"x_min":139,"x_max":857,"o":"m 139 0 l 139 956 l 578 956 q 722 934 668 956 q 801 873 775 913 q 835 781 826 833 q 843 668 843 728 q 834 562 843 617 q 794 463 825 507 q 696 397 763 418 l 857 0 l 729 0 l 571 401 l 604 385 q 581 381 594 382 q 543 379 567 379 l 258 379 l 258 0 l 139 0 m 258 483 l 526 483 q 635 494 596 483 q 694 529 675 506 q 718 587 713 553 q 724 668 724 621 q 719 749 724 715 q 697 806 714 783 q 641 841 679 829 q 536 853 603 853 l 258 853 l 258 483 m 382 -393 l 382 -340 q 433 -335 417 -340 q 456 -314 450 -329 q 463 -271 463 -299 l 463 -247 l 411 -247 l 411 -115 l 538 -115 l 538 -226 q 532 -310 538 -278 q 510 -360 526 -342 q 463 -385 494 -378 q 382 -393 432 -393 z "},"Ȑ":{"ha":946,"x_min":139,"x_max":857,"o":"m 139 0 l 139 956 l 578 956 q 722 934 668 956 q 801 873 775 913 q 835 781 826 833 q 843 668 843 728 q 834 562 843 617 q 794 463 825 507 q 696 397 763 418 l 857 0 l 729 0 l 571 401 l 604 385 q 581 381 594 382 q 543 379 567 379 l 258 379 l 258 0 l 139 0 m 258 483 l 526 483 q 635 494 596 483 q 694 529 675 506 q 718 587 713 553 q 724 668 724 621 q 719 749 724 715 q 697 806 714 783 q 641 841 679 829 q 536 853 603 853 l 258 853 l 258 483 m 669 1074 l 597 1074 l 439 1236 l 439 1243 l 546 1243 l 669 1081 l 669 1074 m 418 1074 l 346 1074 l 188 1236 l 188 1243 l 296 1243 l 418 1081 l 418 1074 z "},"Ṛ":{"ha":946,"x_min":139,"x_max":857,"o":"m 139 0 l 139 956 l 578 956 q 722 934 668 956 q 801 873 775 913 q 835 781 826 833 q 843 668 843 728 q 834 562 843 617 q 794 463 825 507 q 696 397 763 418 l 857 0 l 729 0 l 571 401 l 604 385 q 581 381 594 382 q 543 379 567 379 l 258 379 l 258 0 l 139 0 m 258 483 l 526 483 q 635 494 596 483 q 694 529 675 506 q 718 587 713 553 q 724 668 724 621 q 719 749 724 715 q 697 806 714 783 q 641 841 679 829 q 536 853 603 853 l 258 853 l 258 483 m 424 -267 l 424 -161 l 524 -161 l 524 -267 l 424 -267 z "},"Ȓ":{"ha":946,"x_min":139,"x_max":857,"o":"m 139 0 l 139 956 l 578 956 q 722 934 668 956 q 801 873 775 913 q 835 781 826 833 q 843 668 843 728 q 834 562 843 617 q 794 463 825 507 q 696 397 763 418 l 857 0 l 729 0 l 571 401 l 604 385 q 581 381 594 382 q 543 379 567 379 l 258 379 l 258 0 l 139 0 m 258 483 l 526 483 q 635 494 596 483 q 694 529 675 506 q 718 587 713 553 q 724 668 724 621 q 719 749 724 715 q 697 806 714 783 q 641 841 679 829 q 536 853 603 853 l 258 853 l 258 483 m 475 1274 q 581 1259 543 1274 q 638 1217 619 1244 q 660 1154 656 1190 q 664 1074 664 1118 l 592 1074 q 587 1144 592 1115 q 558 1188 582 1174 q 475 1203 533 1203 q 392 1188 417 1203 q 361 1144 367 1174 q 356 1074 356 1115 l 282 1074 q 287 1154 282 1118 q 310 1217 292 1190 q 367 1259 328 1244 q 475 1274 407 1274 z "},"S":{"ha":872,"x_min":93,"x_max":779,"o":"m 457 -11 q 344 -8 406 -11 q 226 -1 283 -6 q 121 8 168 3 l 121 110 q 226 101 171 106 q 333 94 281 97 q 421 92 385 92 q 539 98 494 92 q 614 122 583 104 q 644 156 635 135 q 656 204 654 176 q 658 264 658 232 q 656 340 658 311 q 641 385 653 369 q 603 409 629 401 q 532 421 576 417 l 294 447 q 188 476 228 456 q 127 527 147 496 q 100 602 107 558 q 93 700 93 646 q 116 840 93 788 q 183 921 139 893 q 291 958 228 949 q 436 967 354 967 q 544 964 489 967 q 649 956 600 961 q 731 944 699 951 l 731 846 q 647 856 694 851 q 551 862 600 860 q 457 864 501 864 q 333 857 381 864 q 258 832 286 850 q 220 781 228 814 q 213 703 213 749 q 220 619 213 649 q 253 577 228 589 q 331 560 279 565 l 563 533 q 651 520 613 529 q 717 490 689 511 q 758 431 744 469 q 771 388 767 411 q 777 335 775 364 q 779 272 779 307 q 764 141 779 193 q 721 58 749 89 q 653 13 693 28 q 563 -7 613 -3 q 457 -11 514 -11 z "},"Ś":{"ha":872,"x_min":93,"x_max":779,"o":"m 457 -11 q 344 -8 406 -11 q 226 -1 283 -6 q 121 8 168 3 l 121 110 q 226 101 171 106 q 333 94 281 97 q 421 92 385 92 q 539 98 494 92 q 614 122 583 104 q 644 156 635 135 q 656 204 654 176 q 658 264 658 232 q 656 340 658 311 q 641 385 653 369 q 603 409 629 401 q 532 421 576 417 l 294 447 q 188 476 228 456 q 127 527 147 496 q 100 602 107 558 q 93 700 93 646 q 116 840 93 788 q 183 921 139 893 q 291 958 228 949 q 436 967 354 967 q 544 964 489 967 q 649 956 600 961 q 731 944 699 951 l 731 846 q 647 856 694 851 q 551 862 600 860 q 457 864 501 864 q 333 857 381 864 q 258 832 286 850 q 220 781 228 814 q 213 703 213 749 q 220 619 213 649 q 253 577 228 589 q 331 560 279 565 l 563 533 q 651 520 613 529 q 717 490 689 511 q 758 431 744 469 q 771 388 767 411 q 777 335 775 364 q 779 272 779 307 q 764 141 779 193 q 721 58 749 89 q 653 13 693 28 q 563 -7 613 -3 q 457 -11 514 -11 m 363 1074 l 363 1081 l 503 1268 l 625 1268 l 625 1261 l 446 1074 l 363 1074 z "},"Ꞌ":{"ha":356,"x_min":124,"x_max":231,"o":"m 124 394 l 124 956 l 231 956 l 231 708 l 200 394 l 124 394 z "},"Š":{"ha":872,"x_min":93,"x_max":779,"o":"m 457 -11 q 344 -8 406 -11 q 226 -1 283 -6 q 121 8 168 3 l 121 110 q 226 101 171 106 q 333 94 281 97 q 421 92 385 92 q 539 98 494 92 q 614 122 583 104 q 644 156 635 135 q 656 204 654 176 q 658 264 658 232 q 656 340 658 311 q 641 385 653 369 q 603 409 629 401 q 532 421 576 417 l 294 447 q 188 476 228 456 q 127 527 147 496 q 100 602 107 558 q 93 700 93 646 q 116 840 93 788 q 183 921 139 893 q 291 958 228 949 q 436 967 354 967 q 544 964 489 967 q 649 956 600 961 q 731 944 699 951 l 731 846 q 647 856 694 851 q 551 862 600 860 q 457 864 501 864 q 333 857 381 864 q 258 832 286 850 q 220 781 228 814 q 213 703 213 749 q 220 619 213 649 q 253 577 228 589 q 331 560 279 565 l 563 533 q 651 520 613 529 q 717 490 689 511 q 758 431 744 469 q 771 388 767 411 q 777 335 775 364 q 779 272 779 307 q 764 141 779 193 q 721 58 749 89 q 653 13 693 28 q 563 -7 613 -3 q 457 -11 514 -11 m 378 1074 l 236 1260 l 236 1268 l 314 1268 l 436 1133 l 560 1268 l 638 1268 l 638 1260 l 496 1074 l 378 1074 z "},"Ş":{"ha":872,"x_min":93,"x_max":779,"o":"m 457 -11 q 344 -8 406 -11 q 226 -1 283 -6 q 121 8 168 3 l 121 110 q 226 101 171 106 q 333 94 281 97 q 421 92 385 92 q 539 98 494 92 q 614 122 583 104 q 644 156 635 135 q 656 204 654 176 q 658 264 658 232 q 656 340 658 311 q 641 385 653 369 q 603 409 629 401 q 532 421 576 417 l 294 447 q 188 476 228 456 q 127 527 147 496 q 100 602 107 558 q 93 700 93 646 q 116 840 93 788 q 183 921 139 893 q 291 958 228 949 q 436 967 354 967 q 544 964 489 967 q 649 956 600 961 q 731 944 699 951 l 731 846 q 647 856 694 851 q 551 862 600 860 q 457 864 501 864 q 333 857 381 864 q 258 832 286 850 q 220 781 228 814 q 213 703 213 749 q 220 619 213 649 q 253 577 228 589 q 331 560 279 565 l 563 533 q 651 520 613 529 q 717 490 689 511 q 758 431 744 469 q 771 388 767 411 q 777 335 775 364 q 779 272 779 307 q 764 141 779 193 q 721 58 749 89 q 653 13 693 28 q 563 -7 613 -3 q 457 -11 514 -11 m 311 -264 l 311 -257 l 406 25 l 482 25 l 482 18 l 424 -264 l 311 -264 z "},"Ŝ":{"ha":872,"x_min":93,"x_max":779,"o":"m 457 -11 q 344 -8 406 -11 q 226 -1 283 -6 q 121 8 168 3 l 121 110 q 226 101 171 106 q 333 94 281 97 q 421 92 385 92 q 539 98 494 92 q 614 122 583 104 q 644 156 635 135 q 656 204 654 176 q 658 264 658 232 q 656 340 658 311 q 641 385 653 369 q 603 409 629 401 q 532 421 576 417 l 294 447 q 188 476 228 456 q 127 527 147 496 q 100 602 107 558 q 93 700 93 646 q 116 840 93 788 q 183 921 139 893 q 291 958 228 949 q 436 967 354 967 q 544 964 489 967 q 649 956 600 961 q 731 944 699 951 l 731 846 q 647 856 694 851 q 551 862 600 860 q 457 864 501 864 q 333 857 381 864 q 258 832 286 850 q 220 781 228 814 q 213 703 213 749 q 220 619 213 649 q 253 577 228 589 q 331 560 279 565 l 563 533 q 651 520 613 529 q 717 490 689 511 q 758 431 744 469 q 771 388 767 411 q 777 335 775 364 q 779 272 779 307 q 764 141 779 193 q 721 58 749 89 q 653 13 693 28 q 563 -7 613 -3 q 457 -11 514 -11 m 236 1074 l 236 1082 l 378 1269 l 496 1269 l 638 1082 l 638 1074 l 560 1074 l 436 1208 l 314 1074 l 236 1074 z "},"Ș":{"ha":872,"x_min":93,"x_max":779,"o":"m 457 -11 q 344 -8 406 -11 q 226 -1 283 -6 q 121 8 168 3 l 121 110 q 226 101 171 106 q 333 94 281 97 q 421 92 385 92 q 539 98 494 92 q 614 122 583 104 q 644 156 635 135 q 656 204 654 176 q 658 264 658 232 q 656 340 658 311 q 641 385 653 369 q 603 409 629 401 q 532 421 576 417 l 294 447 q 188 476 228 456 q 127 527 147 496 q 100 602 107 558 q 93 700 93 646 q 116 840 93 788 q 183 921 139 893 q 291 958 228 949 q 436 967 354 967 q 544 964 489 967 q 649 956 600 961 q 731 944 699 951 l 731 846 q 647 856 694 851 q 551 862 600 860 q 457 864 501 864 q 333 857 381 864 q 258 832 286 850 q 220 781 228 814 q 213 703 213 749 q 220 619 213 649 q 253 577 228 589 q 331 560 279 565 l 563 533 q 651 520 613 529 q 717 490 689 511 q 758 431 744 469 q 771 388 767 411 q 777 335 775 364 q 779 272 779 307 q 764 141 779 193 q 721 58 749 89 q 653 13 693 28 q 563 -7 613 -3 q 457 -11 514 -11 m 344 -393 l 344 -340 q 396 -335 379 -340 q 419 -314 413 -329 q 425 -271 425 -299 l 425 -247 l 374 -247 l 374 -115 l 500 -115 l 500 -226 q 494 -310 500 -278 q 473 -360 489 -342 q 426 -385 457 -378 q 344 -393 394 -393 z "},"Ṣ":{"ha":872,"x_min":93,"x_max":779,"o":"m 457 -11 q 344 -8 406 -11 q 226 -1 283 -6 q 121 8 168 3 l 121 110 q 226 101 171 106 q 333 94 281 97 q 421 92 385 92 q 539 98 494 92 q 614 122 583 104 q 644 156 635 135 q 656 204 654 176 q 658 264 658 232 q 656 340 658 311 q 641 385 653 369 q 603 409 629 401 q 532 421 576 417 l 294 447 q 188 476 228 456 q 127 527 147 496 q 100 602 107 558 q 93 700 93 646 q 116 840 93 788 q 183 921 139 893 q 291 958 228 949 q 436 967 354 967 q 544 964 489 967 q 649 956 600 961 q 731 944 699 951 l 731 846 q 647 856 694 851 q 551 862 600 860 q 457 864 501 864 q 333 857 381 864 q 258 832 286 850 q 220 781 228 814 q 213 703 213 749 q 220 619 213 649 q 253 577 228 589 q 331 560 279 565 l 563 533 q 651 520 613 529 q 717 490 689 511 q 758 431 744 469 q 771 388 767 411 q 777 335 775 364 q 779 272 779 307 q 764 141 779 193 q 721 58 749 89 q 653 13 693 28 q 563 -7 613 -3 q 457 -11 514 -11 m 386 -267 l 386 -161 l 486 -161 l 486 -267 l 386 -267 z "},"ẞ":{"ha":993,"x_min":126,"x_max":893,"o":"m 575 -11 q 467 -4 526 -11 q 365 13 407 3 l 365 108 q 473 97 417 101 q 567 92 529 92 q 692 107 647 92 q 755 158 738 122 q 772 261 772 194 q 756 363 772 325 q 704 416 740 400 q 607 432 668 432 l 451 432 l 451 517 l 735 878 l 738 831 q 655 850 693 843 q 580 860 617 857 q 506 864 543 864 q 387 857 435 864 q 311 828 339 850 q 269 764 283 806 q 251 652 256 722 q 246 478 246 582 l 246 0 l 126 0 l 126 513 q 136 704 126 625 q 168 834 146 783 q 230 914 190 885 q 331 955 269 943 q 478 967 392 967 q 609 960 544 967 q 731 941 674 953 q 831 914 789 929 l 831 825 l 561 479 l 550 519 l 624 519 q 778 493 718 519 q 865 409 838 467 q 893 253 893 351 q 876 135 893 185 q 820 53 858 86 q 721 5 782 21 q 575 -11 660 -11 z "},"Ə":{"ha":968,"x_min":106,"x_max":861,"o":"m 483 -11 q 306 1 376 -11 q 195 43 236 13 q 135 128 154 74 q 111 269 117 183 q 106 478 106 354 l 106 535 l 742 535 q 734 685 742 625 q 708 781 726 744 q 656 835 690 817 q 567 858 622 853 q 433 864 513 864 q 321 858 382 864 q 214 843 260 853 l 214 943 q 290 956 247 950 q 378 964 333 961 q 464 967 424 967 q 638 955 567 967 q 753 913 708 943 q 821 828 797 883 q 853 688 844 774 q 861 478 861 601 q 856 269 861 354 q 831 128 850 183 q 772 43 813 74 q 660 1 731 13 q 483 -11 590 -11 m 483 92 q 600 96 554 92 q 674 116 646 100 q 717 168 703 132 q 736 267 731 204 q 742 431 742 331 l 225 431 q 231 267 226 331 q 251 168 236 204 q 293 116 265 132 q 368 96 321 100 q 483 92 415 92 z "},"T":{"ha":807,"x_min":42,"x_max":765,"o":"m 343 0 l 343 850 l 42 850 l 42 956 l 765 956 l 765 850 l 463 850 l 463 0 l 343 0 z "},"Ŧ":{"ha":807,"x_min":42,"x_max":765,"o":"m 76 426 l 76 521 l 731 521 l 731 426 l 76 426 m 343 0 l 343 850 l 42 850 l 42 956 l 765 956 l 765 850 l 463 850 l 463 0 l 343 0 z "},"Ť":{"ha":807,"x_min":42,"x_max":765,"o":"m 343 0 l 343 850 l 42 850 l 42 956 l 765 956 l 765 850 l 463 850 l 463 0 l 343 0 m 344 1074 l 203 1260 l 203 1268 l 281 1268 l 403 1133 l 526 1268 l 604 1268 l 604 1260 l 463 1074 l 344 1074 z "},"Ţ":{"ha":807,"x_min":42,"x_max":765,"o":"m 343 0 l 343 850 l 42 850 l 42 956 l 765 956 l 765 850 l 463 850 l 463 0 l 343 0 m 278 -264 l 278 -257 l 372 25 l 449 25 l 449 18 l 390 -264 l 278 -264 z "},"Ț":{"ha":807,"x_min":42,"x_max":765,"o":"m 343 0 l 343 850 l 42 850 l 42 956 l 765 956 l 765 850 l 463 850 l 463 0 l 343 0 m 311 -393 l 311 -340 q 363 -335 346 -340 q 385 -314 379 -329 q 392 -271 392 -299 l 392 -247 l 340 -247 l 340 -115 l 467 -115 l 467 -226 q 461 -310 467 -278 q 440 -360 456 -342 q 392 -385 424 -378 q 311 -393 361 -393 z "},"Ṭ":{"ha":807,"x_min":42,"x_max":765,"o":"m 343 0 l 343 850 l 42 850 l 42 956 l 765 956 l 765 850 l 463 850 l 463 0 l 343 0 m 353 -267 l 353 -161 l 453 -161 l 453 -267 l 353 -267 z "},"U":{"ha":983,"x_min":126,"x_max":856,"o":"m 493 -11 q 328 1 394 -11 q 222 40 263 13 q 161 117 182 68 q 133 240 140 167 q 126 418 126 314 l 126 956 l 246 956 l 246 371 q 253 229 246 283 q 283 144 260 175 q 356 103 306 114 q 493 92 406 92 q 630 103 581 92 q 702 144 679 114 q 731 229 725 175 q 736 371 736 283 l 736 956 l 856 956 l 856 418 q 849 240 856 314 q 823 117 843 167 q 763 40 803 68 q 656 1 722 13 q 493 -11 590 -11 z "},"Ú":{"ha":983,"x_min":126,"x_max":856,"o":"m 493 -11 q 328 1 394 -11 q 222 40 263 13 q 161 117 182 68 q 133 240 140 167 q 126 418 126 314 l 126 956 l 246 956 l 246 371 q 253 229 246 283 q 283 144 260 175 q 356 103 306 114 q 493 92 406 92 q 630 103 581 92 q 702 144 679 114 q 731 229 725 175 q 736 371 736 283 l 736 956 l 856 956 l 856 418 q 849 240 856 314 q 823 117 843 167 q 763 40 803 68 q 656 1 722 13 q 493 -11 590 -11 m 419 1074 l 419 1081 l 560 1268 l 682 1268 l 682 1261 l 503 1074 l 419 1074 z "},"Ŭ":{"ha":983,"x_min":126,"x_max":856,"o":"m 493 -11 q 328 1 394 -11 q 222 40 263 13 q 161 117 182 68 q 133 240 140 167 q 126 418 126 314 l 126 956 l 246 956 l 246 371 q 253 229 246 283 q 283 144 260 175 q 356 103 306 114 q 493 92 406 92 q 630 103 581 92 q 702 144 679 114 q 731 229 725 175 q 736 371 736 283 l 736 956 l 856 956 l 856 418 q 849 240 856 314 q 823 117 843 167 q 763 40 803 68 q 656 1 722 13 q 493 -11 590 -11 m 490 1061 q 383 1076 422 1061 q 327 1117 344 1090 q 305 1181 310 1144 q 300 1261 300 1217 l 374 1261 q 378 1190 374 1219 q 408 1147 383 1161 q 490 1132 432 1132 q 573 1147 549 1132 q 603 1190 597 1161 q 608 1261 608 1219 l 682 1261 q 677 1181 682 1217 q 654 1117 672 1144 q 597 1076 636 1090 q 490 1061 558 1061 z "},"Ǔ":{"ha":983,"x_min":126,"x_max":856,"o":"m 493 -11 q 328 1 394 -11 q 222 40 263 13 q 161 117 182 68 q 133 240 140 167 q 126 418 126 314 l 126 956 l 246 956 l 246 371 q 253 229 246 283 q 283 144 260 175 q 356 103 306 114 q 493 92 406 92 q 630 103 581 92 q 702 144 679 114 q 731 229 725 175 q 736 371 736 283 l 736 956 l 856 956 l 856 418 q 849 240 856 314 q 823 117 843 167 q 763 40 803 68 q 656 1 722 13 q 493 -11 590 -11 m 433 1074 l 292 1260 l 292 1268 l 369 1268 l 492 1133 l 615 1268 l 693 1268 l 693 1260 l 551 1074 l 433 1074 z "},"Û":{"ha":983,"x_min":126,"x_max":856,"o":"m 493 -11 q 328 1 394 -11 q 222 40 263 13 q 161 117 182 68 q 133 240 140 167 q 126 418 126 314 l 126 956 l 246 956 l 246 371 q 253 229 246 283 q 283 144 260 175 q 356 103 306 114 q 493 92 406 92 q 630 103 581 92 q 702 144 679 114 q 731 229 725 175 q 736 371 736 283 l 736 956 l 856 956 l 856 418 q 849 240 856 314 q 823 117 843 167 q 763 40 803 68 q 656 1 722 13 q 493 -11 590 -11 m 292 1074 l 292 1082 l 433 1269 l 551 1269 l 693 1082 l 693 1074 l 615 1074 l 492 1208 l 369 1074 l 292 1074 z "},"Ȕ":{"ha":983,"x_min":126,"x_max":856,"o":"m 493 -11 q 328 1 394 -11 q 222 40 263 13 q 161 117 182 68 q 133 240 140 167 q 126 418 126 314 l 126 956 l 246 956 l 246 371 q 253 229 246 283 q 283 144 260 175 q 356 103 306 114 q 493 92 406 92 q 630 103 581 92 q 702 144 679 114 q 731 229 725 175 q 736 371 736 283 l 736 956 l 856 956 l 856 418 q 849 240 856 314 q 823 117 843 167 q 763 40 803 68 q 656 1 722 13 q 493 -11 590 -11 m 689 1074 l 617 1074 l 458 1236 l 458 1243 l 565 1243 l 689 1081 l 689 1074 m 438 1074 l 365 1074 l 207 1236 l 207 1243 l 315 1243 l 438 1081 l 438 1074 z "},"Ü":{"ha":983,"x_min":126,"x_max":856,"o":"m 493 -11 q 328 1 394 -11 q 222 40 263 13 q 161 117 182 68 q 133 240 140 167 q 126 418 126 314 l 126 956 l 246 956 l 246 371 q 253 229 246 283 q 283 144 260 175 q 356 103 306 114 q 493 92 406 92 q 630 103 581 92 q 702 144 679 114 q 731 229 725 175 q 736 371 736 283 l 736 956 l 856 956 l 856 418 q 849 240 856 314 q 823 117 843 167 q 763 40 803 68 q 656 1 722 13 q 493 -11 590 -11 m 294 1119 l 294 1231 l 401 1231 l 401 1119 l 294 1119 m 582 1119 l 582 1231 l 688 1231 l 688 1119 l 582 1119 z "},"Ǘ":{"ha":983,"x_min":126,"x_max":856,"o":"m 493 -11 q 328 1 394 -11 q 222 40 263 13 q 161 117 182 68 q 133 240 140 167 q 126 418 126 314 l 126 956 l 246 956 l 246 371 q 253 229 246 283 q 283 144 260 175 q 356 103 306 114 q 493 92 406 92 q 630 103 581 92 q 702 144 679 114 q 731 229 725 175 q 736 371 736 283 l 736 956 l 856 956 l 856 418 q 849 240 856 314 q 823 117 843 167 q 763 40 803 68 q 656 1 722 13 q 493 -11 590 -11 m 294 1119 l 294 1231 l 401 1231 l 401 1119 l 294 1119 m 582 1119 l 582 1231 l 688 1231 l 688 1119 l 582 1119 m 419 1324 l 419 1331 l 560 1518 l 682 1518 l 682 1511 l 503 1324 l 419 1324 z "},"Ǚ":{"ha":983,"x_min":126,"x_max":856,"o":"m 493 -11 q 328 1 394 -11 q 222 40 263 13 q 161 117 182 68 q 133 240 140 167 q 126 418 126 314 l 126 956 l 246 956 l 246 371 q 253 229 246 283 q 283 144 260 175 q 356 103 306 114 q 493 92 406 92 q 630 103 581 92 q 702 144 679 114 q 731 229 725 175 q 736 371 736 283 l 736 956 l 856 956 l 856 418 q 849 240 856 314 q 823 117 843 167 q 763 40 803 68 q 656 1 722 13 q 493 -11 590 -11 m 294 1119 l 294 1231 l 401 1231 l 401 1119 l 294 1119 m 582 1119 l 582 1231 l 688 1231 l 688 1119 l 582 1119 m 433 1324 l 292 1510 l 292 1518 l 369 1518 l 492 1383 l 615 1518 l 693 1518 l 693 1510 l 551 1324 l 433 1324 z "},"Ǜ":{"ha":983,"x_min":126,"x_max":856,"o":"m 493 -11 q 328 1 394 -11 q 222 40 263 13 q 161 117 182 68 q 133 240 140 167 q 126 418 126 314 l 126 956 l 246 956 l 246 371 q 253 229 246 283 q 283 144 260 175 q 356 103 306 114 q 493 92 406 92 q 630 103 581 92 q 702 144 679 114 q 731 229 725 175 q 736 371 736 283 l 736 956 l 856 956 l 856 418 q 849 240 856 314 q 823 117 843 167 q 763 40 803 68 q 656 1 722 13 q 493 -11 590 -11 m 294 1119 l 294 1231 l 401 1231 l 401 1119 l 294 1119 m 582 1119 l 582 1231 l 688 1231 l 688 1119 l 582 1119 m 485 1324 l 306 1511 l 306 1518 l 428 1518 l 568 1331 l 568 1324 l 485 1324 z "},"Ǖ":{"ha":983,"x_min":126,"x_max":856,"o":"m 493 -11 q 328 1 394 -11 q 222 40 263 13 q 161 117 182 68 q 133 240 140 167 q 126 418 126 314 l 126 956 l 246 956 l 246 371 q 253 229 246 283 q 283 144 260 175 q 356 103 306 114 q 493 92 406 92 q 630 103 581 92 q 702 144 679 114 q 731 229 725 175 q 736 371 736 283 l 736 956 l 856 956 l 856 418 q 849 240 856 314 q 823 117 843 167 q 763 40 803 68 q 656 1 722 13 q 493 -11 590 -11 m 294 1119 l 294 1231 l 401 1231 l 401 1119 l 294 1119 m 582 1119 l 582 1231 l 688 1231 l 688 1119 l 582 1119 m 292 1369 l 292 1449 l 693 1449 l 693 1369 l 292 1369 z "},"Ụ":{"ha":983,"x_min":126,"x_max":856,"o":"m 493 -11 q 328 1 394 -11 q 222 40 263 13 q 161 117 182 68 q 133 240 140 167 q 126 418 126 314 l 126 956 l 246 956 l 246 371 q 253 229 246 283 q 283 144 260 175 q 356 103 306 114 q 493 92 406 92 q 630 103 581 92 q 702 144 679 114 q 731 229 725 175 q 736 371 736 283 l 736 956 l 856 956 l 856 418 q 849 240 856 314 q 823 117 843 167 q 763 40 803 68 q 656 1 722 13 q 493 -11 590 -11 m 443 -267 l 443 -161 l 543 -161 l 543 -267 l 443 -267 z "},"Ù":{"ha":983,"x_min":126,"x_max":856,"o":"m 493 -11 q 328 1 394 -11 q 222 40 263 13 q 161 117 182 68 q 133 240 140 167 q 126 418 126 314 l 126 956 l 246 956 l 246 371 q 253 229 246 283 q 283 144 260 175 q 356 103 306 114 q 493 92 406 92 q 630 103 581 92 q 702 144 679 114 q 731 229 725 175 q 736 371 736 283 l 736 956 l 856 956 l 856 418 q 849 240 856 314 q 823 117 843 167 q 763 40 803 68 q 656 1 722 13 q 493 -11 590 -11 m 485 1074 l 306 1261 l 306 1268 l 428 1268 l 568 1081 l 568 1074 l 485 1074 z "},"Ủ":{"ha":983,"x_min":126,"x_max":856,"o":"m 493 -11 q 328 1 394 -11 q 222 40 263 13 q 161 117 182 68 q 133 240 140 167 q 126 418 126 314 l 126 956 l 246 956 l 246 371 q 253 229 246 283 q 283 144 260 175 q 356 103 306 114 q 493 92 406 92 q 630 103 581 92 q 702 144 679 114 q 731 229 725 175 q 736 371 736 283 l 736 956 l 856 956 l 856 418 q 849 240 856 314 q 823 117 843 167 q 763 40 803 68 q 656 1 722 13 q 493 -11 590 -11 m 431 1054 l 431 1068 q 436 1103 431 1089 q 455 1126 442 1117 q 492 1143 468 1136 l 524 1151 q 570 1168 554 1161 q 590 1184 586 1175 q 594 1210 594 1193 q 584 1247 594 1236 q 547 1260 574 1257 q 474 1263 521 1263 q 432 1262 457 1263 q 380 1260 407 1261 q 331 1256 353 1258 l 331 1315 q 411 1323 365 1319 q 493 1326 457 1326 q 593 1319 553 1326 q 653 1290 633 1313 q 674 1218 674 1267 q 667 1168 674 1188 q 642 1136 660 1149 q 589 1114 624 1124 l 554 1104 q 515 1092 528 1097 q 500 1078 503 1086 q 497 1054 497 1071 l 431 1054 z "},"Ư":{"ha":983,"x_min":126,"x_max":1018,"o":"m 767 901 l 767 956 l 858 956 q 924 974 911 956 q 936 1043 936 992 l 936 1086 l 1018 1086 l 1018 1054 q 1013 978 1018 1008 q 990 932 1007 949 q 941 908 972 915 q 858 901 910 901 l 767 901 m 493 -11 q 328 1 394 -11 q 222 40 263 13 q 161 117 182 68 q 133 240 140 167 q 126 418 126 314 l 126 956 l 246 956 l 246 371 q 253 229 246 283 q 283 144 260 175 q 356 103 306 114 q 493 92 406 92 q 630 103 581 92 q 702 144 679 114 q 731 229 725 175 q 736 371 736 283 l 736 956 l 856 956 l 856 418 q 849 240 856 314 q 823 117 843 167 q 763 40 803 68 q 656 1 722 13 q 493 -11 590 -11 z "},"Ứ":{"ha":983,"x_min":126,"x_max":1018,"o":"m 767 901 l 767 956 l 858 956 q 924 974 911 956 q 936 1043 936 992 l 936 1086 l 1018 1086 l 1018 1054 q 1013 978 1018 1008 q 990 932 1007 949 q 941 908 972 915 q 858 901 910 901 l 767 901 m 493 -11 q 328 1 394 -11 q 222 40 263 13 q 161 117 182 68 q 133 240 140 167 q 126 418 126 314 l 126 956 l 246 956 l 246 371 q 253 229 246 283 q 283 144 260 175 q 356 103 306 114 q 493 92 406 92 q 630 103 581 92 q 702 144 679 114 q 731 229 725 175 q 736 371 736 283 l 736 956 l 856 956 l 856 418 q 849 240 856 314 q 823 117 843 167 q 763 40 803 68 q 656 1 722 13 q 493 -11 590 -11 m 419 1074 l 419 1081 l 560 1268 l 682 1268 l 682 1261 l 503 1074 l 419 1074 z "},"Ự":{"ha":983,"x_min":126,"x_max":1018,"o":"m 767 901 l 767 956 l 858 956 q 924 974 911 956 q 936 1043 936 992 l 936 1086 l 1018 1086 l 1018 1054 q 1013 978 1018 1008 q 990 932 1007 949 q 941 908 972 915 q 858 901 910 901 l 767 901 m 493 -11 q 328 1 394 -11 q 222 40 263 13 q 161 117 182 68 q 133 240 140 167 q 126 418 126 314 l 126 956 l 246 956 l 246 371 q 253 229 246 283 q 283 144 260 175 q 356 103 306 114 q 493 92 406 92 q 630 103 581 92 q 702 144 679 114 q 731 229 725 175 q 736 371 736 283 l 736 956 l 856 956 l 856 418 q 849 240 856 314 q 823 117 843 167 q 763 40 803 68 q 656 1 722 13 q 493 -11 590 -11 m 443 -267 l 443 -161 l 543 -161 l 543 -267 l 443 -267 z "},"Ừ":{"ha":983,"x_min":126,"x_max":1018,"o":"m 767 901 l 767 956 l 858 956 q 924 974 911 956 q 936 1043 936 992 l 936 1086 l 1018 1086 l 1018 1054 q 1013 978 1018 1008 q 990 932 1007 949 q 941 908 972 915 q 858 901 910 901 l 767 901 m 493 -11 q 328 1 394 -11 q 222 40 263 13 q 161 117 182 68 q 133 240 140 167 q 126 418 126 314 l 126 956 l 246 956 l 246 371 q 253 229 246 283 q 283 144 260 175 q 356 103 306 114 q 493 92 406 92 q 630 103 581 92 q 702 144 679 114 q 731 229 725 175 q 736 371 736 283 l 736 956 l 856 956 l 856 418 q 849 240 856 314 q 823 117 843 167 q 763 40 803 68 q 656 1 722 13 q 493 -11 590 -11 m 485 1074 l 306 1261 l 306 1268 l 428 1268 l 568 1081 l 568 1074 l 485 1074 z "},"Ử":{"ha":983,"x_min":126,"x_max":1018,"o":"m 767 901 l 767 956 l 858 956 q 924 974 911 956 q 936 1043 936 992 l 936 1086 l 1018 1086 l 1018 1054 q 1013 978 1018 1008 q 990 932 1007 949 q 941 908 972 915 q 858 901 910 901 l 767 901 m 493 -11 q 328 1 394 -11 q 222 40 263 13 q 161 117 182 68 q 133 240 140 167 q 126 418 126 314 l 126 956 l 246 956 l 246 371 q 253 229 246 283 q 283 144 260 175 q 356 103 306 114 q 493 92 406 92 q 630 103 581 92 q 702 144 679 114 q 731 229 725 175 q 736 371 736 283 l 736 956 l 856 956 l 856 418 q 849 240 856 314 q 823 117 843 167 q 763 40 803 68 q 656 1 722 13 q 493 -11 590 -11 m 431 1054 l 431 1068 q 436 1103 431 1089 q 455 1126 442 1117 q 492 1143 468 1136 l 524 1151 q 570 1168 554 1161 q 590 1184 586 1175 q 594 1210 594 1193 q 584 1247 594 1236 q 547 1260 574 1257 q 474 1263 521 1263 q 432 1262 457 1263 q 380 1260 407 1261 q 331 1256 353 1258 l 331 1315 q 411 1323 365 1319 q 493 1326 457 1326 q 593 1319 553 1326 q 653 1290 633 1313 q 674 1218 674 1267 q 667 1168 674 1188 q 642 1136 660 1149 q 589 1114 624 1124 l 554 1104 q 515 1092 528 1097 q 500 1078 503 1086 q 497 1054 497 1071 l 431 1054 z "},"Ữ":{"ha":983,"x_min":126,"x_max":1018,"o":"m 767 901 l 767 956 l 858 956 q 924 974 911 956 q 936 1043 936 992 l 936 1086 l 1018 1086 l 1018 1054 q 1013 978 1018 1008 q 990 932 1007 949 q 941 908 972 915 q 858 901 910 901 l 767 901 m 493 -11 q 328 1 394 -11 q 222 40 263 13 q 161 117 182 68 q 133 240 140 167 q 126 418 126 314 l 126 956 l 246 956 l 246 371 q 253 229 246 283 q 283 144 260 175 q 356 103 306 114 q 493 92 406 92 q 630 103 581 92 q 702 144 679 114 q 731 229 725 175 q 736 371 736 283 l 736 956 l 856 956 l 856 418 q 849 240 856 314 q 823 117 843 167 q 763 40 803 68 q 656 1 722 13 q 493 -11 590 -11 m 256 1083 q 262 1172 256 1138 q 290 1224 268 1207 q 358 1242 313 1242 q 435 1231 397 1242 q 510 1208 472 1221 q 566 1190 539 1199 q 621 1182 593 1182 q 658 1198 651 1182 q 664 1257 664 1214 l 729 1257 q 723 1168 729 1203 q 695 1116 717 1133 q 628 1099 674 1099 q 551 1110 586 1099 q 476 1132 515 1121 q 419 1150 447 1142 q 365 1158 392 1158 q 328 1142 335 1158 q 322 1083 322 1126 l 256 1083 z "},"Ű":{"ha":983,"x_min":126,"x_max":856,"o":"m 493 -11 q 328 1 394 -11 q 222 40 263 13 q 161 117 182 68 q 133 240 140 167 q 126 418 126 314 l 126 956 l 246 956 l 246 371 q 253 229 246 283 q 283 144 260 175 q 356 103 306 114 q 493 92 406 92 q 630 103 581 92 q 702 144 679 114 q 731 229 725 175 q 736 371 736 283 l 736 956 l 856 956 l 856 418 q 849 240 856 314 q 823 117 843 167 q 763 40 803 68 q 656 1 722 13 q 493 -11 590 -11 m 308 1074 l 308 1081 l 432 1243 l 539 1243 l 539 1236 l 382 1074 l 308 1074 m 560 1074 l 560 1081 l 683 1243 l 790 1243 l 790 1236 l 632 1074 l 560 1074 z "},"Ȗ":{"ha":983,"x_min":126,"x_max":856,"o":"m 493 -11 q 328 1 394 -11 q 222 40 263 13 q 161 117 182 68 q 133 240 140 167 q 126 418 126 314 l 126 956 l 246 956 l 246 371 q 253 229 246 283 q 283 144 260 175 q 356 103 306 114 q 493 92 406 92 q 630 103 581 92 q 702 144 679 114 q 731 229 725 175 q 736 371 736 283 l 736 956 l 856 956 l 856 418 q 849 240 856 314 q 823 117 843 167 q 763 40 803 68 q 656 1 722 13 q 493 -11 590 -11 m 493 1274 q 599 1259 561 1274 q 656 1217 638 1244 q 678 1154 674 1190 q 682 1074 682 1118 l 610 1074 q 605 1144 610 1115 q 576 1188 600 1174 q 493 1203 551 1203 q 410 1188 435 1203 q 379 1144 385 1174 q 374 1074 374 1115 l 300 1074 q 305 1154 300 1118 q 328 1217 310 1190 q 385 1259 346 1244 q 493 1274 425 1274 z "},"Ū":{"ha":983,"x_min":126,"x_max":856,"o":"m 493 -11 q 328 1 394 -11 q 222 40 263 13 q 161 117 182 68 q 133 240 140 167 q 126 418 126 314 l 126 956 l 246 956 l 246 371 q 253 229 246 283 q 283 144 260 175 q 356 103 306 114 q 493 92 406 92 q 630 103 581 92 q 702 144 679 114 q 731 229 725 175 q 736 371 736 283 l 736 956 l 856 956 l 856 418 q 849 240 856 314 q 823 117 843 167 q 763 40 803 68 q 656 1 722 13 q 493 -11 590 -11 m 292 1119 l 292 1199 l 693 1199 l 693 1119 l 292 1119 z "},"Ų":{"ha":983,"x_min":126,"x_max":856,"o":"m 493 -11 q 328 1 394 -11 q 222 40 263 13 q 161 117 182 68 q 133 240 140 167 q 126 418 126 314 l 126 956 l 246 956 l 246 371 q 253 229 246 283 q 283 144 260 175 q 356 103 306 114 q 493 92 406 92 q 630 103 581 92 q 702 144 679 114 q 731 229 725 175 q 736 371 736 283 l 736 956 l 856 956 l 856 418 q 849 240 856 314 q 823 117 843 167 q 763 40 803 68 q 656 1 722 13 q 493 -11 590 -11 m 526 -278 q 446 -263 475 -278 q 405 -224 417 -249 q 393 -171 393 -200 q 422 -76 393 -126 q 497 14 451 -25 l 579 0 q 540 -39 561 -14 q 506 -92 519 -64 q 492 -147 492 -121 q 506 -187 492 -171 q 557 -203 519 -203 q 567 -203 561 -203 q 581 -201 574 -203 l 581 -275 q 553 -277 567 -276 q 526 -278 540 -278 z "},"Ů":{"ha":983,"x_min":126,"x_max":856,"o":"m 493 -11 q 328 1 394 -11 q 222 40 263 13 q 161 117 182 68 q 133 240 140 167 q 126 418 126 314 l 126 956 l 246 956 l 246 371 q 253 229 246 283 q 283 144 260 175 q 356 103 306 114 q 493 92 406 92 q 630 103 581 92 q 702 144 679 114 q 731 229 725 175 q 736 371 736 283 l 736 956 l 856 956 l 856 418 q 849 240 856 314 q 823 117 843 167 q 763 40 803 68 q 656 1 722 13 q 493 -11 590 -11 m 490 1054 q 392 1062 428 1054 q 341 1087 357 1069 q 320 1132 325 1104 q 315 1199 315 1160 q 320 1265 315 1238 q 341 1310 325 1293 q 392 1336 357 1328 q 490 1344 428 1344 q 590 1336 554 1344 q 643 1310 626 1328 q 664 1265 660 1293 q 668 1199 668 1238 q 664 1132 668 1160 q 643 1087 660 1104 q 590 1062 626 1069 q 490 1054 554 1054 m 490 1113 q 565 1120 543 1113 q 591 1147 586 1128 q 596 1199 596 1165 q 591 1251 596 1232 q 565 1278 586 1271 q 490 1286 543 1286 q 419 1278 440 1286 q 392 1251 397 1271 q 388 1199 388 1232 q 392 1147 388 1165 q 419 1120 397 1128 q 490 1113 440 1113 z "},"Ũ":{"ha":983,"x_min":126,"x_max":856,"o":"m 493 -11 q 328 1 394 -11 q 222 40 263 13 q 161 117 182 68 q 133 240 140 167 q 126 418 126 314 l 126 956 l 246 956 l 246 371 q 253 229 246 283 q 283 144 260 175 q 356 103 306 114 q 493 92 406 92 q 630 103 581 92 q 702 144 679 114 q 731 229 725 175 q 736 371 736 283 l 736 956 l 856 956 l 856 418 q 849 240 856 314 q 823 117 843 167 q 763 40 803 68 q 656 1 722 13 q 493 -11 590 -11 m 256 1083 q 262 1172 256 1138 q 290 1224 268 1207 q 358 1242 313 1242 q 435 1231 397 1242 q 510 1208 472 1221 q 566 1190 539 1199 q 621 1182 593 1182 q 658 1198 651 1182 q 664 1257 664 1214 l 729 1257 q 723 1168 729 1203 q 695 1116 717 1133 q 628 1099 674 1099 q 551 1110 586 1099 q 476 1132 515 1121 q 419 1150 447 1142 q 365 1158 392 1158 q 328 1142 335 1158 q 322 1083 322 1126 l 256 1083 z "},"V":{"ha":921,"x_min":40,"x_max":879,"o":"m 385 0 l 40 956 l 165 956 l 458 139 l 465 139 l 758 956 l 879 956 l 535 0 l 385 0 z "},"W":{"ha":1371,"x_min":50,"x_max":1321,"o":"m 310 0 l 50 956 l 172 956 l 385 156 l 393 156 l 626 956 l 751 956 l 986 156 l 994 156 l 1201 956 l 1321 956 l 1061 0 l 919 0 l 689 774 l 683 774 l 453 0 l 310 0 z "},"Ẃ":{"ha":1371,"x_min":50,"x_max":1321,"o":"m 310 0 l 50 956 l 172 956 l 385 156 l 393 156 l 626 956 l 751 956 l 986 156 l 994 156 l 1201 956 l 1321 956 l 1061 0 l 919 0 l 689 774 l 683 774 l 453 0 l 310 0 m 613 1074 l 613 1081 l 753 1268 l 875 1268 l 875 1261 l 696 1074 l 613 1074 z "},"Ŵ":{"ha":1371,"x_min":50,"x_max":1321,"o":"m 310 0 l 50 956 l 172 956 l 385 156 l 393 156 l 626 956 l 751 956 l 986 156 l 994 156 l 1201 956 l 1321 956 l 1061 0 l 919 0 l 689 774 l 683 774 l 453 0 l 310 0 m 485 1074 l 485 1082 l 626 1269 l 744 1269 l 886 1082 l 886 1074 l 808 1074 l 685 1208 l 563 1074 l 485 1074 z "},"Ẅ":{"ha":1371,"x_min":50,"x_max":1321,"o":"m 310 0 l 50 956 l 172 956 l 385 156 l 393 156 l 626 956 l 751 956 l 986 156 l 994 156 l 1201 956 l 1321 956 l 1061 0 l 919 0 l 689 774 l 683 774 l 453 0 l 310 0 m 488 1119 l 488 1231 l 594 1231 l 594 1119 l 488 1119 m 775 1119 l 775 1231 l 881 1231 l 881 1119 l 775 1119 z "},"Ẁ":{"ha":1371,"x_min":50,"x_max":1321,"o":"m 310 0 l 50 956 l 172 956 l 385 156 l 393 156 l 626 956 l 751 956 l 986 156 l 994 156 l 1201 956 l 1321 956 l 1061 0 l 919 0 l 689 774 l 683 774 l 453 0 l 310 0 m 678 1074 l 499 1261 l 499 1268 l 621 1268 l 761 1081 l 761 1074 l 678 1074 z "},"X":{"ha":938,"x_min":40,"x_max":896,"o":"m 40 0 l 396 479 l 46 956 l 188 956 l 465 581 l 476 581 l 756 956 l 892 956 l 542 483 l 896 0 l 756 0 l 472 383 l 461 383 l 176 0 l 40 0 z "},"Y":{"ha":846,"x_min":17,"x_max":829,"o":"m 363 0 l 363 365 l 17 956 l 144 956 l 421 485 l 431 485 l 704 956 l 829 956 l 482 365 l 482 0 l 363 0 z "},"Ý":{"ha":846,"x_min":17,"x_max":829,"o":"m 363 0 l 363 365 l 17 956 l 144 956 l 421 485 l 431 485 l 704 956 l 829 956 l 482 365 l 482 0 l 363 0 m 350 1074 l 350 1081 l 490 1268 l 613 1268 l 613 1261 l 433 1074 l 350 1074 z "},"Ŷ":{"ha":846,"x_min":17,"x_max":829,"o":"m 363 0 l 363 365 l 17 956 l 144 956 l 421 485 l 431 485 l 704 956 l 829 956 l 482 365 l 482 0 l 363 0 m 222 1074 l 222 1082 l 364 1269 l 482 1269 l 624 1082 l 624 1074 l 546 1074 l 422 1208 l 300 1074 l 222 1074 z "},"Ÿ":{"ha":846,"x_min":17,"x_max":829,"o":"m 363 0 l 363 365 l 17 956 l 144 956 l 421 485 l 431 485 l 704 956 l 829 956 l 482 365 l 482 0 l 363 0 m 226 1119 l 226 1231 l 333 1231 l 333 1119 l 226 1119 m 514 1119 l 514 1231 l 619 1231 l 619 1119 l 514 1119 z "},"Ỵ":{"ha":846,"x_min":17,"x_max":829,"o":"m 363 0 l 363 365 l 17 956 l 144 956 l 421 485 l 431 485 l 704 956 l 829 956 l 482 365 l 482 0 l 363 0 m 374 -267 l 374 -161 l 474 -161 l 474 -267 l 374 -267 z "},"Ỳ":{"ha":846,"x_min":17,"x_max":829,"o":"m 363 0 l 363 365 l 17 956 l 144 956 l 421 485 l 431 485 l 704 956 l 829 956 l 482 365 l 482 0 l 363 0 m 415 1074 l 236 1261 l 236 1268 l 358 1268 l 499 1081 l 499 1074 l 415 1074 z "},"Ỷ":{"ha":846,"x_min":17,"x_max":829,"o":"m 363 0 l 363 365 l 17 956 l 144 956 l 421 485 l 431 485 l 704 956 l 829 956 l 482 365 l 482 0 l 363 0 m 361 1054 l 361 1068 q 367 1103 361 1089 q 385 1126 372 1117 q 422 1143 399 1136 l 454 1151 q 501 1168 485 1161 q 521 1184 517 1175 q 525 1210 525 1193 q 515 1247 525 1236 q 478 1260 504 1257 q 404 1263 451 1263 q 363 1262 388 1263 q 310 1260 338 1261 q 261 1256 283 1258 l 261 1315 q 342 1323 296 1319 q 424 1326 388 1326 q 524 1319 483 1326 q 584 1290 564 1313 q 604 1218 604 1267 q 597 1168 604 1188 q 572 1136 590 1149 q 519 1114 554 1124 l 485 1104 q 446 1092 458 1097 q 431 1078 433 1086 q 428 1054 428 1071 l 361 1054 z "},"Ȳ":{"ha":846,"x_min":17,"x_max":829,"o":"m 363 0 l 363 365 l 17 956 l 144 956 l 421 485 l 431 485 l 704 956 l 829 956 l 482 365 l 482 0 l 363 0 m 222 1119 l 222 1199 l 624 1199 l 624 1119 l 222 1119 z "},"Ỹ":{"ha":846,"x_min":17,"x_max":829,"o":"m 363 0 l 363 365 l 17 956 l 144 956 l 421 485 l 431 485 l 704 956 l 829 956 l 482 365 l 482 0 l 363 0 m 186 1083 q 192 1172 186 1138 q 221 1224 199 1207 q 289 1242 243 1242 q 365 1231 328 1242 q 440 1208 403 1221 q 497 1190 469 1199 q 551 1182 524 1182 q 588 1198 582 1182 q 594 1257 594 1214 l 660 1257 q 653 1168 660 1203 q 626 1116 647 1133 q 558 1099 604 1099 q 481 1110 517 1099 q 407 1132 446 1121 q 350 1150 378 1142 q 296 1158 322 1158 q 259 1142 265 1158 q 253 1083 253 1126 l 186 1083 z "},"Z":{"ha":842,"x_min":74,"x_max":772,"o":"m 74 0 l 74 99 l 613 853 l 89 853 l 89 956 l 764 956 l 764 860 l 224 103 l 772 103 l 772 0 l 74 0 z "},"Ź":{"ha":842,"x_min":74,"x_max":772,"o":"m 74 0 l 74 99 l 613 853 l 89 853 l 89 956 l 764 956 l 764 860 l 224 103 l 772 103 l 772 0 l 74 0 m 347 1074 l 347 1081 l 488 1268 l 610 1268 l 610 1261 l 431 1074 l 347 1074 z "},"Ž":{"ha":842,"x_min":74,"x_max":772,"o":"m 74 0 l 74 99 l 613 853 l 89 853 l 89 956 l 764 956 l 764 860 l 224 103 l 772 103 l 772 0 l 74 0 m 363 1074 l 221 1260 l 221 1268 l 299 1268 l 421 1133 l 544 1268 l 622 1268 l 622 1260 l 481 1074 l 363 1074 z "},"Ż":{"ha":842,"x_min":74,"x_max":772,"o":"m 74 0 l 74 99 l 613 853 l 89 853 l 89 956 l 764 956 l 764 860 l 224 103 l 772 103 l 772 0 l 74 0 m 367 1119 l 367 1232 l 474 1232 l 474 1119 l 367 1119 z "},"Ẓ":{"ha":842,"x_min":74,"x_max":772,"o":"m 74 0 l 74 99 l 613 853 l 89 853 l 89 956 l 764 956 l 764 860 l 224 103 l 772 103 l 772 0 l 74 0 m 371 -267 l 371 -161 l 471 -161 l 471 -267 l 371 -267 z "},"a":{"ha":790,"x_min":76,"x_max":669,"o":"m 310 -11 q 180 7 232 -11 q 102 69 128 25 q 76 194 76 114 q 95 322 76 275 q 161 388 114 368 q 293 407 208 407 q 337 406 307 407 q 406 405 367 406 q 484 403 444 404 q 557 401 524 403 l 557 446 q 549 544 557 508 q 518 597 542 579 q 452 619 494 614 q 340 624 410 624 q 268 622 310 624 q 187 616 226 619 q 124 608 147 613 l 124 700 q 242 715 176 710 q 379 719 308 719 q 506 710 454 719 q 591 682 558 701 q 640 631 624 663 q 663 553 657 599 q 669 446 669 507 l 669 0 l 568 0 l 564 100 l 556 100 q 492 27 533 51 q 403 -4 451 3 q 310 -11 354 -11 m 351 82 q 426 87 392 82 q 488 106 461 92 q 529 147 514 119 q 551 210 544 176 q 557 290 557 244 l 557 326 l 321 326 q 238 318 267 326 q 198 283 208 310 q 188 204 188 257 q 200 126 188 153 q 248 91 213 100 q 351 82 283 82 z "},"á":{"ha":790,"x_min":76,"x_max":669,"o":"m 310 -11 q 180 7 232 -11 q 102 69 128 25 q 76 194 76 114 q 95 322 76 275 q 161 388 114 368 q 293 407 208 407 q 337 406 307 407 q 406 405 367 406 q 484 403 444 404 q 557 401 524 403 l 557 446 q 549 544 557 508 q 518 597 542 579 q 452 619 494 614 q 340 624 410 624 q 268 622 310 624 q 187 616 226 619 q 124 608 147 613 l 124 700 q 242 715 176 710 q 379 719 308 719 q 506 710 454 719 q 591 682 558 701 q 640 631 624 663 q 663 553 657 599 q 669 446 669 507 l 669 0 l 568 0 l 564 100 l 556 100 q 492 27 533 51 q 403 -4 451 3 q 310 -11 354 -11 m 351 82 q 426 87 392 82 q 488 106 461 92 q 529 147 514 119 q 551 210 544 176 q 557 290 557 244 l 557 326 l 321 326 q 238 318 267 326 q 198 283 208 310 q 188 204 188 257 q 200 126 188 153 q 248 91 213 100 q 351 82 283 82 m 292 826 l 292 833 l 432 1021 l 554 1021 l 554 1014 l 375 826 l 292 826 z "},"ă":{"ha":790,"x_min":76,"x_max":669,"o":"m 310 -11 q 180 7 232 -11 q 102 69 128 25 q 76 194 76 114 q 95 322 76 275 q 161 388 114 368 q 293 407 208 407 q 337 406 307 407 q 406 405 367 406 q 484 403 444 404 q 557 401 524 403 l 557 446 q 549 544 557 508 q 518 597 542 579 q 452 619 494 614 q 340 624 410 624 q 268 622 310 624 q 187 616 226 619 q 124 608 147 613 l 124 700 q 242 715 176 710 q 379 719 308 719 q 506 710 454 719 q 591 682 558 701 q 640 631 624 663 q 663 553 657 599 q 669 446 669 507 l 669 0 l 568 0 l 564 100 l 556 100 q 492 27 533 51 q 403 -4 451 3 q 310 -11 354 -11 m 351 82 q 426 87 392 82 q 488 106 461 92 q 529 147 514 119 q 551 210 544 176 q 557 290 557 244 l 557 326 l 321 326 q 238 318 267 326 q 198 283 208 310 q 188 204 188 257 q 200 126 188 153 q 248 91 213 100 q 351 82 283 82 m 396 814 q 289 829 328 814 q 233 871 250 844 q 210 934 215 897 q 206 1014 206 971 l 279 1014 q 284 944 279 972 q 313 900 289 915 q 396 885 338 885 q 478 900 454 885 q 508 944 503 915 q 514 1014 514 972 l 588 1014 q 583 934 588 971 q 560 871 578 897 q 503 829 542 844 q 396 814 464 814 z "},"ắ":{"ha":790,"x_min":76,"x_max":669,"o":"m 310 -11 q 180 7 232 -11 q 102 69 128 25 q 76 194 76 114 q 95 322 76 275 q 161 388 114 368 q 293 407 208 407 q 337 406 307 407 q 406 405 367 406 q 484 403 444 404 q 557 401 524 403 l 557 446 q 549 544 557 508 q 518 597 542 579 q 452 619 494 614 q 340 624 410 624 q 268 622 310 624 q 187 616 226 619 q 124 608 147 613 l 124 700 q 242 715 176 710 q 379 719 308 719 q 506 710 454 719 q 591 682 558 701 q 640 631 624 663 q 663 553 657 599 q 669 446 669 507 l 669 0 l 568 0 l 564 100 l 556 100 q 492 27 533 51 q 403 -4 451 3 q 310 -11 354 -11 m 351 82 q 426 87 392 82 q 488 106 461 92 q 529 147 514 119 q 551 210 544 176 q 557 290 557 244 l 557 326 l 321 326 q 238 318 267 326 q 198 283 208 310 q 188 204 188 257 q 200 126 188 153 q 248 91 213 100 q 351 82 283 82 m 396 814 q 289 829 328 814 q 233 871 250 844 q 210 934 215 897 q 206 1014 206 971 l 279 1014 q 284 944 279 972 q 313 900 289 915 q 396 885 338 885 q 478 900 454 885 q 508 944 503 915 q 514 1014 514 972 l 588 1014 q 583 934 588 971 q 560 871 578 897 q 503 829 542 844 q 396 814 464 814 m 292 1065 l 292 1072 l 432 1261 l 554 1261 l 554 1254 l 375 1065 l 292 1065 z "},"ặ":{"ha":790,"x_min":76,"x_max":669,"o":"m 310 -11 q 180 7 232 -11 q 102 69 128 25 q 76 194 76 114 q 95 322 76 275 q 161 388 114 368 q 293 407 208 407 q 337 406 307 407 q 406 405 367 406 q 484 403 444 404 q 557 401 524 403 l 557 446 q 549 544 557 508 q 518 597 542 579 q 452 619 494 614 q 340 624 410 624 q 268 622 310 624 q 187 616 226 619 q 124 608 147 613 l 124 700 q 242 715 176 710 q 379 719 308 719 q 506 710 454 719 q 591 682 558 701 q 640 631 624 663 q 663 553 657 599 q 669 446 669 507 l 669 0 l 568 0 l 564 100 l 556 100 q 492 27 533 51 q 403 -4 451 3 q 310 -11 354 -11 m 351 82 q 426 87 392 82 q 488 106 461 92 q 529 147 514 119 q 551 210 544 176 q 557 290 557 244 l 557 326 l 321 326 q 238 318 267 326 q 198 283 208 310 q 188 204 188 257 q 200 126 188 153 q 248 91 213 100 q 351 82 283 82 m 346 -267 l 346 -161 l 446 -161 l 446 -267 l 346 -267 m 396 814 q 289 829 328 814 q 233 871 250 844 q 210 934 215 897 q 206 1014 206 971 l 279 1014 q 284 944 279 972 q 313 900 289 915 q 396 885 338 885 q 478 900 454 885 q 508 944 503 915 q 514 1014 514 972 l 588 1014 q 583 934 588 971 q 560 871 578 897 q 503 829 542 844 q 396 814 464 814 z "},"ằ":{"ha":790,"x_min":76,"x_max":669,"o":"m 310 -11 q 180 7 232 -11 q 102 69 128 25 q 76 194 76 114 q 95 322 76 275 q 161 388 114 368 q 293 407 208 407 q 337 406 307 407 q 406 405 367 406 q 484 403 444 404 q 557 401 524 403 l 557 446 q 549 544 557 508 q 518 597 542 579 q 452 619 494 614 q 340 624 410 624 q 268 622 310 624 q 187 616 226 619 q 124 608 147 613 l 124 700 q 242 715 176 710 q 379 719 308 719 q 506 710 454 719 q 591 682 558 701 q 640 631 624 663 q 663 553 657 599 q 669 446 669 507 l 669 0 l 568 0 l 564 100 l 556 100 q 492 27 533 51 q 403 -4 451 3 q 310 -11 354 -11 m 351 82 q 426 87 392 82 q 488 106 461 92 q 529 147 514 119 q 551 210 544 176 q 557 290 557 244 l 557 326 l 321 326 q 238 318 267 326 q 198 283 208 310 q 188 204 188 257 q 200 126 188 153 q 248 91 213 100 q 351 82 283 82 m 396 814 q 290 829 328 814 q 233 871 251 844 q 210 934 215 897 q 206 1014 206 971 l 279 1014 q 284 944 279 972 q 313 900 289 915 q 396 885 338 885 q 479 900 454 885 q 509 944 504 915 q 514 1014 514 972 l 589 1014 q 584 934 589 971 q 560 871 579 897 q 503 829 542 844 q 396 814 464 814 m 396 1065 l 217 1253 l 217 1260 l 339 1260 l 479 1072 l 479 1065 l 396 1065 z "},"ẳ":{"ha":790,"x_min":76,"x_max":669,"o":"m 310 -11 q 180 7 232 -11 q 102 69 128 25 q 76 194 76 114 q 95 322 76 275 q 161 388 114 368 q 293 407 208 407 q 337 406 307 407 q 406 405 367 406 q 484 403 444 404 q 557 401 524 403 l 557 446 q 549 544 557 508 q 518 597 542 579 q 452 619 494 614 q 340 624 410 624 q 268 622 310 624 q 187 616 226 619 q 124 608 147 613 l 124 700 q 242 715 176 710 q 379 719 308 719 q 506 710 454 719 q 591 682 558 701 q 640 631 624 663 q 663 553 657 599 q 669 446 669 507 l 669 0 l 568 0 l 564 100 l 556 100 q 492 27 533 51 q 403 -4 451 3 q 310 -11 354 -11 m 351 82 q 426 87 392 82 q 488 106 461 92 q 529 147 514 119 q 551 210 544 176 q 557 290 557 244 l 557 326 l 321 326 q 238 318 267 326 q 198 283 208 310 q 188 204 188 257 q 200 126 188 153 q 248 91 213 100 q 351 82 283 82 m 396 814 q 289 829 328 814 q 233 871 250 844 q 210 934 215 897 q 206 1014 206 971 l 279 1014 q 284 944 279 972 q 313 900 289 915 q 396 885 338 885 q 478 900 454 885 q 508 944 503 915 q 514 1014 514 972 l 588 1014 q 583 934 588 971 q 560 871 578 897 q 503 829 542 844 q 396 814 464 814 m 335 1046 l 335 1060 q 340 1095 335 1081 q 359 1119 346 1110 q 396 1135 372 1129 l 428 1144 q 474 1160 458 1154 q 495 1176 490 1167 q 500 1201 500 1185 q 489 1239 500 1229 q 451 1251 478 1249 q 378 1254 425 1254 q 336 1253 361 1254 q 285 1251 311 1253 q 235 1247 258 1250 l 235 1307 q 315 1315 269 1313 q 397 1318 361 1318 q 498 1311 458 1318 q 558 1281 538 1304 q 579 1210 579 1258 q 572 1160 579 1179 q 546 1128 564 1140 q 493 1107 528 1117 l 458 1097 q 420 1084 432 1089 q 406 1071 408 1079 q 403 1046 403 1063 l 335 1046 z "},"ẵ":{"ha":790,"x_min":76,"x_max":669,"o":"m 310 -11 q 180 7 232 -11 q 102 69 128 25 q 76 194 76 114 q 95 322 76 275 q 161 388 114 368 q 293 407 208 407 q 337 406 307 407 q 406 405 367 406 q 484 403 444 404 q 557 401 524 403 l 557 446 q 549 544 557 508 q 518 597 542 579 q 452 619 494 614 q 340 624 410 624 q 268 622 310 624 q 187 616 226 619 q 124 608 147 613 l 124 700 q 242 715 176 710 q 379 719 308 719 q 506 710 454 719 q 591 682 558 701 q 640 631 624 663 q 663 553 657 599 q 669 446 669 507 l 669 0 l 568 0 l 564 100 l 556 100 q 492 27 533 51 q 403 -4 451 3 q 310 -11 354 -11 m 351 82 q 426 87 392 82 q 488 106 461 92 q 529 147 514 119 q 551 210 544 176 q 557 290 557 244 l 557 326 l 321 326 q 238 318 267 326 q 198 283 208 310 q 188 204 188 257 q 200 126 188 153 q 248 91 213 100 q 351 82 283 82 m 396 814 q 290 829 329 814 q 233 871 251 844 q 211 934 215 897 q 207 1014 207 971 l 279 1014 q 285 944 279 972 q 315 900 290 915 q 396 885 339 885 q 479 900 454 885 q 510 944 504 915 q 515 1014 515 972 l 589 1014 q 584 934 589 971 q 561 871 579 897 q 503 829 543 844 q 396 814 464 814 m 160 1075 q 166 1165 160 1131 q 194 1217 172 1200 q 263 1233 217 1233 q 339 1223 301 1233 q 414 1200 376 1213 q 470 1182 443 1190 q 525 1174 497 1174 q 562 1190 556 1174 q 568 1249 568 1207 l 633 1249 q 627 1160 633 1194 q 599 1108 621 1125 q 532 1090 578 1090 q 455 1101 490 1090 q 381 1124 419 1113 q 324 1142 351 1133 q 269 1151 296 1151 q 233 1135 239 1151 q 226 1075 226 1118 l 160 1075 z "},"ǎ":{"ha":790,"x_min":76,"x_max":669,"o":"m 310 -11 q 180 7 232 -11 q 102 69 128 25 q 76 194 76 114 q 95 322 76 275 q 161 388 114 368 q 293 407 208 407 q 337 406 307 407 q 406 405 367 406 q 484 403 444 404 q 557 401 524 403 l 557 446 q 549 544 557 508 q 518 597 542 579 q 452 619 494 614 q 340 624 410 624 q 268 622 310 624 q 187 616 226 619 q 124 608 147 613 l 124 700 q 242 715 176 710 q 379 719 308 719 q 506 710 454 719 q 591 682 558 701 q 640 631 624 663 q 663 553 657 599 q 669 446 669 507 l 669 0 l 568 0 l 564 100 l 556 100 q 492 27 533 51 q 403 -4 451 3 q 310 -11 354 -11 m 351 82 q 426 87 392 82 q 488 106 461 92 q 529 147 514 119 q 551 210 544 176 q 557 290 557 244 l 557 326 l 321 326 q 238 318 267 326 q 198 283 208 310 q 188 204 188 257 q 200 126 188 153 q 248 91 213 100 q 351 82 283 82 m 339 826 l 197 1013 l 197 1021 l 275 1021 l 397 886 l 521 1021 l 599 1021 l 599 1013 l 457 826 l 339 826 z "},"â":{"ha":790,"x_min":76,"x_max":669,"o":"m 310 -11 q 180 7 232 -11 q 102 69 128 25 q 76 194 76 114 q 95 322 76 275 q 161 388 114 368 q 293 407 208 407 q 337 406 307 407 q 406 405 367 406 q 484 403 444 404 q 557 401 524 403 l 557 446 q 549 544 557 508 q 518 597 542 579 q 452 619 494 614 q 340 624 410 624 q 268 622 310 624 q 187 616 226 619 q 124 608 147 613 l 124 700 q 242 715 176 710 q 379 719 308 719 q 506 710 454 719 q 591 682 558 701 q 640 631 624 663 q 663 553 657 599 q 669 446 669 507 l 669 0 l 568 0 l 564 100 l 556 100 q 492 27 533 51 q 403 -4 451 3 q 310 -11 354 -11 m 351 82 q 426 87 392 82 q 488 106 461 92 q 529 147 514 119 q 551 210 544 176 q 557 290 557 244 l 557 326 l 321 326 q 238 318 267 326 q 198 283 208 310 q 188 204 188 257 q 200 126 188 153 q 248 91 213 100 q 351 82 283 82 m 197 826 l 197 835 l 339 1021 l 457 1021 l 599 835 l 599 826 l 521 826 l 397 960 l 275 826 l 197 826 z "},"ấ":{"ha":790,"x_min":76,"x_max":669,"o":"m 310 -11 q 180 7 232 -11 q 102 69 128 25 q 76 194 76 114 q 95 322 76 275 q 161 388 114 368 q 293 407 208 407 q 337 406 307 407 q 406 405 367 406 q 484 403 444 404 q 557 401 524 403 l 557 446 q 549 544 557 508 q 518 597 542 579 q 452 619 494 614 q 340 624 410 624 q 268 622 310 624 q 187 616 226 619 q 124 608 147 613 l 124 700 q 242 715 176 710 q 379 719 308 719 q 506 710 454 719 q 591 682 558 701 q 640 631 624 663 q 663 553 657 599 q 669 446 669 507 l 669 0 l 568 0 l 564 100 l 556 100 q 492 27 533 51 q 403 -4 451 3 q 310 -11 354 -11 m 351 82 q 426 87 392 82 q 488 106 461 92 q 529 147 514 119 q 551 210 544 176 q 557 290 557 244 l 557 326 l 321 326 q 238 318 267 326 q 198 283 208 310 q 188 204 188 257 q 200 126 188 153 q 248 91 213 100 q 351 82 283 82 m 197 826 l 197 835 l 339 1021 l 457 1021 l 599 835 l 599 826 l 521 826 l 397 960 l 275 826 l 197 826 m 292 1074 l 292 1081 l 433 1268 l 554 1268 l 554 1261 l 376 1074 l 292 1074 z "},"ậ":{"ha":790,"x_min":76,"x_max":669,"o":"m 310 -11 q 180 7 232 -11 q 102 69 128 25 q 76 194 76 114 q 95 322 76 275 q 161 388 114 368 q 293 407 208 407 q 337 406 307 407 q 406 405 367 406 q 484 403 444 404 q 557 401 524 403 l 557 446 q 549 544 557 508 q 518 597 542 579 q 452 619 494 614 q 340 624 410 624 q 268 622 310 624 q 187 616 226 619 q 124 608 147 613 l 124 700 q 242 715 176 710 q 379 719 308 719 q 506 710 454 719 q 591 682 558 701 q 640 631 624 663 q 663 553 657 599 q 669 446 669 507 l 669 0 l 568 0 l 564 100 l 556 100 q 492 27 533 51 q 403 -4 451 3 q 310 -11 354 -11 m 351 82 q 426 87 392 82 q 488 106 461 92 q 529 147 514 119 q 551 210 544 176 q 557 290 557 244 l 557 326 l 321 326 q 238 318 267 326 q 198 283 208 310 q 188 204 188 257 q 200 126 188 153 q 248 91 213 100 q 351 82 283 82 m 346 -267 l 346 -161 l 446 -161 l 446 -267 l 346 -267 m 197 826 l 197 835 l 339 1021 l 457 1021 l 599 835 l 599 826 l 521 826 l 397 960 l 275 826 l 197 826 z "},"ầ":{"ha":790,"x_min":76,"x_max":669,"o":"m 310 -11 q 180 7 232 -11 q 102 69 128 25 q 76 194 76 114 q 95 322 76 275 q 161 388 114 368 q 293 407 208 407 q 337 406 307 407 q 406 405 367 406 q 484 403 444 404 q 557 401 524 403 l 557 446 q 549 544 557 508 q 518 597 542 579 q 452 619 494 614 q 340 624 410 624 q 268 622 310 624 q 187 616 226 619 q 124 608 147 613 l 124 700 q 242 715 176 710 q 379 719 308 719 q 506 710 454 719 q 591 682 558 701 q 640 631 624 663 q 663 553 657 599 q 669 446 669 507 l 669 0 l 568 0 l 564 100 l 556 100 q 492 27 533 51 q 403 -4 451 3 q 310 -11 354 -11 m 351 82 q 426 87 392 82 q 488 106 461 92 q 529 147 514 119 q 551 210 544 176 q 557 290 557 244 l 557 326 l 321 326 q 238 318 267 326 q 198 283 208 310 q 188 204 188 257 q 200 126 188 153 q 248 91 213 100 q 351 82 283 82 m 197 826 l 197 835 l 339 1021 l 457 1021 l 599 835 l 599 826 l 521 826 l 397 960 l 275 826 l 197 826 m 396 1074 l 217 1261 l 217 1268 l 339 1268 l 479 1081 l 479 1074 l 396 1074 z "},"ẩ":{"ha":790,"x_min":76,"x_max":669,"o":"m 310 -11 q 180 7 232 -11 q 102 69 128 25 q 76 194 76 114 q 95 322 76 275 q 161 388 114 368 q 293 407 208 407 q 337 406 307 407 q 406 405 367 406 q 484 403 444 404 q 557 401 524 403 l 557 446 q 549 544 557 508 q 518 597 542 579 q 452 619 494 614 q 340 624 410 624 q 268 622 310 624 q 187 616 226 619 q 124 608 147 613 l 124 700 q 242 715 176 710 q 379 719 308 719 q 506 710 454 719 q 591 682 558 701 q 640 631 624 663 q 663 553 657 599 q 669 446 669 507 l 669 0 l 568 0 l 564 100 l 556 100 q 492 27 533 51 q 403 -4 451 3 q 310 -11 354 -11 m 351 82 q 426 87 392 82 q 488 106 461 92 q 529 147 514 119 q 551 210 544 176 q 557 290 557 244 l 557 326 l 321 326 q 238 318 267 326 q 198 283 208 310 q 188 204 188 257 q 200 126 188 153 q 248 91 213 100 q 351 82 283 82 m 197 826 l 197 835 l 339 1021 l 457 1021 l 599 835 l 599 826 l 521 826 l 397 960 l 275 826 l 197 826 m 335 1054 l 335 1068 q 340 1103 335 1089 q 359 1126 346 1117 q 397 1143 372 1136 l 428 1151 q 475 1168 460 1161 q 495 1184 490 1175 q 500 1210 500 1193 q 490 1247 500 1236 q 453 1260 479 1257 q 378 1263 426 1263 q 337 1262 361 1263 q 285 1260 313 1261 q 236 1256 258 1258 l 236 1315 q 315 1323 269 1319 q 397 1326 361 1326 q 499 1319 458 1326 q 559 1290 539 1313 q 579 1218 579 1267 q 572 1168 579 1188 q 547 1136 565 1149 q 493 1114 528 1124 l 460 1104 q 420 1092 432 1097 q 406 1078 408 1086 q 403 1054 403 1071 l 335 1054 z "},"ẫ":{"ha":790,"x_min":76,"x_max":669,"o":"m 310 -11 q 180 7 232 -11 q 102 69 128 25 q 76 194 76 114 q 95 322 76 275 q 161 388 114 368 q 293 407 208 407 q 337 406 307 407 q 406 405 367 406 q 484 403 444 404 q 557 401 524 403 l 557 446 q 549 544 557 508 q 518 597 542 579 q 452 619 494 614 q 340 624 410 624 q 268 622 310 624 q 187 616 226 619 q 124 608 147 613 l 124 700 q 242 715 176 710 q 379 719 308 719 q 506 710 454 719 q 591 682 558 701 q 640 631 624 663 q 663 553 657 599 q 669 446 669 507 l 669 0 l 568 0 l 564 100 l 556 100 q 492 27 533 51 q 403 -4 451 3 q 310 -11 354 -11 m 351 82 q 426 87 392 82 q 488 106 461 92 q 529 147 514 119 q 551 210 544 176 q 557 290 557 244 l 557 326 l 321 326 q 238 318 267 326 q 198 283 208 310 q 188 204 188 257 q 200 126 188 153 q 248 91 213 100 q 351 82 283 82 m 197 826 l 197 835 l 339 1021 l 457 1021 l 599 835 l 599 826 l 521 826 l 397 960 l 275 826 l 197 826 m 160 1083 q 166 1172 160 1138 q 194 1224 172 1207 q 263 1242 217 1242 q 339 1231 301 1242 q 414 1208 376 1221 q 470 1190 443 1199 q 525 1182 497 1182 q 562 1198 556 1182 q 568 1257 568 1214 l 633 1257 q 627 1168 633 1203 q 599 1116 621 1133 q 532 1099 578 1099 q 455 1110 490 1099 q 381 1132 419 1121 q 324 1150 351 1142 q 269 1158 296 1158 q 233 1142 239 1158 q 226 1083 226 1126 l 160 1083 z "},"ȁ":{"ha":790,"x_min":76,"x_max":669,"o":"m 310 -11 q 180 7 232 -11 q 102 69 128 25 q 76 194 76 114 q 95 322 76 275 q 161 388 114 368 q 293 407 208 407 q 337 406 307 407 q 406 405 367 406 q 484 403 444 404 q 557 401 524 403 l 557 446 q 549 544 557 508 q 518 597 542 579 q 452 619 494 614 q 340 624 410 624 q 268 622 310 624 q 187 616 226 619 q 124 608 147 613 l 124 700 q 242 715 176 710 q 379 719 308 719 q 506 710 454 719 q 591 682 558 701 q 640 631 624 663 q 663 553 657 599 q 669 446 669 507 l 669 0 l 568 0 l 564 100 l 556 100 q 492 27 533 51 q 403 -4 451 3 q 310 -11 354 -11 m 351 82 q 426 87 392 82 q 488 106 461 92 q 529 147 514 119 q 551 210 544 176 q 557 290 557 244 l 557 326 l 321 326 q 238 318 267 326 q 198 283 208 310 q 188 204 188 257 q 200 126 188 153 q 248 91 213 100 q 351 82 283 82 m 586 826 l 514 826 l 356 989 l 356 996 l 463 996 l 586 833 l 586 826 m 335 826 l 263 826 l 104 989 l 104 996 l 213 996 l 335 833 l 335 826 z "},"ä":{"ha":790,"x_min":76,"x_max":669,"o":"m 310 -11 q 180 7 232 -11 q 102 69 128 25 q 76 194 76 114 q 95 322 76 275 q 161 388 114 368 q 293 407 208 407 q 337 406 307 407 q 406 405 367 406 q 484 403 444 404 q 557 401 524 403 l 557 446 q 549 544 557 508 q 518 597 542 579 q 452 619 494 614 q 340 624 410 624 q 268 622 310 624 q 187 616 226 619 q 124 608 147 613 l 124 700 q 242 715 176 710 q 379 719 308 719 q 506 710 454 719 q 591 682 558 701 q 640 631 624 663 q 663 553 657 599 q 669 446 669 507 l 669 0 l 568 0 l 564 100 l 556 100 q 492 27 533 51 q 403 -4 451 3 q 310 -11 354 -11 m 351 82 q 426 87 392 82 q 488 106 461 92 q 529 147 514 119 q 551 210 544 176 q 557 290 557 244 l 557 326 l 321 326 q 238 318 267 326 q 198 283 208 310 q 188 204 188 257 q 200 126 188 153 q 248 91 213 100 q 351 82 283 82 m 200 872 l 200 983 l 307 983 l 307 872 l 200 872 m 488 872 l 488 983 l 593 983 l 593 872 l 488 872 z "},"ạ":{"ha":790,"x_min":76,"x_max":669,"o":"m 310 -11 q 180 7 232 -11 q 102 69 128 25 q 76 194 76 114 q 95 322 76 275 q 161 388 114 368 q 293 407 208 407 q 337 406 307 407 q 406 405 367 406 q 484 403 444 404 q 557 401 524 403 l 557 446 q 549 544 557 508 q 518 597 542 579 q 452 619 494 614 q 340 624 410 624 q 268 622 310 624 q 187 616 226 619 q 124 608 147 613 l 124 700 q 242 715 176 710 q 379 719 308 719 q 506 710 454 719 q 591 682 558 701 q 640 631 624 663 q 663 553 657 599 q 669 446 669 507 l 669 0 l 568 0 l 564 100 l 556 100 q 492 27 533 51 q 403 -4 451 3 q 310 -11 354 -11 m 351 82 q 426 87 392 82 q 488 106 461 92 q 529 147 514 119 q 551 210 544 176 q 557 290 557 244 l 557 326 l 321 326 q 238 318 267 326 q 198 283 208 310 q 188 204 188 257 q 200 126 188 153 q 248 91 213 100 q 351 82 283 82 m 346 -267 l 346 -161 l 446 -161 l 446 -267 l 346 -267 z "},"à":{"ha":790,"x_min":76,"x_max":669,"o":"m 310 -11 q 180 7 232 -11 q 102 69 128 25 q 76 194 76 114 q 95 322 76 275 q 161 388 114 368 q 293 407 208 407 q 337 406 307 407 q 406 405 367 406 q 484 403 444 404 q 557 401 524 403 l 557 446 q 549 544 557 508 q 518 597 542 579 q 452 619 494 614 q 340 624 410 624 q 268 622 310 624 q 187 616 226 619 q 124 608 147 613 l 124 700 q 242 715 176 710 q 379 719 308 719 q 506 710 454 719 q 591 682 558 701 q 640 631 624 663 q 663 553 657 599 q 669 446 669 507 l 669 0 l 568 0 l 564 100 l 556 100 q 492 27 533 51 q 403 -4 451 3 q 310 -11 354 -11 m 351 82 q 426 87 392 82 q 488 106 461 92 q 529 147 514 119 q 551 210 544 176 q 557 290 557 244 l 557 326 l 321 326 q 238 318 267 326 q 198 283 208 310 q 188 204 188 257 q 200 126 188 153 q 248 91 213 100 q 351 82 283 82 m 396 826 l 217 1014 l 217 1021 l 339 1021 l 479 833 l 479 826 l 396 826 z "},"ả":{"ha":790,"x_min":76,"x_max":669,"o":"m 310 -11 q 180 7 232 -11 q 102 69 128 25 q 76 194 76 114 q 95 322 76 275 q 161 388 114 368 q 293 407 208 407 q 337 406 307 407 q 406 405 367 406 q 484 403 444 404 q 557 401 524 403 l 557 446 q 549 544 557 508 q 518 597 542 579 q 452 619 494 614 q 340 624 410 624 q 268 622 310 624 q 187 616 226 619 q 124 608 147 613 l 124 700 q 242 715 176 710 q 379 719 308 719 q 506 710 454 719 q 591 682 558 701 q 640 631 624 663 q 663 553 657 599 q 669 446 669 507 l 669 0 l 568 0 l 564 100 l 556 100 q 492 27 533 51 q 403 -4 451 3 q 310 -11 354 -11 m 351 82 q 426 87 392 82 q 488 106 461 92 q 529 147 514 119 q 551 210 544 176 q 557 290 557 244 l 557 326 l 321 326 q 238 318 267 326 q 198 283 208 310 q 188 204 188 257 q 200 126 188 153 q 248 91 213 100 q 351 82 283 82 m 336 807 l 336 821 q 342 856 336 842 q 360 879 347 869 q 397 896 374 889 l 429 904 q 476 921 460 914 q 496 937 492 928 q 500 963 500 946 q 490 999 500 989 q 453 1013 479 1010 q 379 1015 426 1015 q 338 1015 363 1015 q 285 1013 313 1014 q 236 1008 258 1011 l 236 1068 q 317 1076 271 1072 q 399 1079 363 1079 q 499 1072 458 1079 q 559 1042 539 1065 q 579 971 579 1019 q 572 921 579 940 q 547 889 565 901 q 494 867 529 876 l 460 857 q 421 844 433 850 q 406 831 408 839 q 403 807 403 824 l 336 807 z "},"ȃ":{"ha":790,"x_min":76,"x_max":669,"o":"m 310 -11 q 180 7 232 -11 q 102 69 128 25 q 76 194 76 114 q 95 322 76 275 q 161 388 114 368 q 293 407 208 407 q 337 406 307 407 q 406 405 367 406 q 484 403 444 404 q 557 401 524 403 l 557 446 q 549 544 557 508 q 518 597 542 579 q 452 619 494 614 q 340 624 410 624 q 268 622 310 624 q 187 616 226 619 q 124 608 147 613 l 124 700 q 242 715 176 710 q 379 719 308 719 q 506 710 454 719 q 591 682 558 701 q 640 631 624 663 q 663 553 657 599 q 669 446 669 507 l 669 0 l 568 0 l 564 100 l 556 100 q 492 27 533 51 q 403 -4 451 3 q 310 -11 354 -11 m 351 82 q 426 87 392 82 q 488 106 461 92 q 529 147 514 119 q 551 210 544 176 q 557 290 557 244 l 557 326 l 321 326 q 238 318 267 326 q 198 283 208 310 q 188 204 188 257 q 200 126 188 153 q 248 91 213 100 q 351 82 283 82 m 399 1026 q 505 1012 467 1026 q 561 970 543 997 q 583 907 579 943 q 588 826 588 871 l 515 826 q 510 897 515 868 q 481 941 506 926 q 399 956 457 956 q 315 941 340 956 q 285 897 290 926 q 279 826 279 868 l 206 826 q 210 907 206 871 q 233 970 215 943 q 291 1012 251 997 q 399 1026 331 1026 z "},"ā":{"ha":790,"x_min":76,"x_max":669,"o":"m 310 -11 q 180 7 232 -11 q 102 69 128 25 q 76 194 76 114 q 95 322 76 275 q 161 388 114 368 q 293 407 208 407 q 337 406 307 407 q 406 405 367 406 q 484 403 444 404 q 557 401 524 403 l 557 446 q 549 544 557 508 q 518 597 542 579 q 452 619 494 614 q 340 624 410 624 q 268 622 310 624 q 187 616 226 619 q 124 608 147 613 l 124 700 q 242 715 176 710 q 379 719 308 719 q 506 710 454 719 q 591 682 558 701 q 640 631 624 663 q 663 553 657 599 q 669 446 669 507 l 669 0 l 568 0 l 564 100 l 556 100 q 492 27 533 51 q 403 -4 451 3 q 310 -11 354 -11 m 351 82 q 426 87 392 82 q 488 106 461 92 q 529 147 514 119 q 551 210 544 176 q 557 290 557 244 l 557 326 l 321 326 q 238 318 267 326 q 198 283 208 310 q 188 204 188 257 q 200 126 188 153 q 248 91 213 100 q 351 82 283 82 m 197 872 l 197 951 l 599 951 l 599 872 l 197 872 z "},"ą":{"ha":790,"x_min":76,"x_max":671,"o":"m 310 -11 q 180 7 232 -11 q 102 69 128 25 q 76 194 76 114 q 95 322 76 275 q 161 388 114 368 q 293 407 208 407 q 337 406 307 407 q 406 405 367 406 q 484 403 444 404 q 557 401 524 403 l 557 446 q 549 544 557 508 q 518 597 542 579 q 452 619 494 614 q 340 624 410 624 q 268 622 310 624 q 187 616 226 619 q 124 608 147 613 l 124 700 q 242 715 176 710 q 379 719 308 719 q 506 710 454 719 q 591 682 558 701 q 640 631 624 663 q 663 553 657 599 q 669 446 669 507 l 669 0 l 568 0 l 564 100 l 556 100 q 492 27 533 51 q 403 -4 451 3 q 310 -11 354 -11 m 351 82 q 426 87 392 82 q 488 106 461 92 q 529 147 514 119 q 551 210 544 176 q 557 290 557 244 l 557 326 l 321 326 q 238 318 267 326 q 198 283 208 310 q 188 204 188 257 q 200 126 188 153 q 248 91 213 100 q 351 82 283 82 m 617 -278 q 536 -263 565 -278 q 495 -224 507 -249 q 483 -171 483 -200 q 513 -76 483 -126 q 588 14 542 -25 l 669 0 q 631 -39 651 -14 q 596 -92 610 -64 q 582 -147 582 -121 q 596 -187 582 -171 q 647 -203 610 -203 q 658 -203 651 -203 q 671 -201 664 -203 l 671 -275 q 644 -277 657 -276 q 617 -278 631 -278 z "},"å":{"ha":790,"x_min":76,"x_max":669,"o":"m 310 -11 q 180 7 232 -11 q 102 69 128 25 q 76 194 76 114 q 95 322 76 275 q 161 388 114 368 q 293 407 208 407 q 337 406 307 407 q 406 405 367 406 q 484 403 444 404 q 557 401 524 403 l 557 446 q 549 544 557 508 q 518 597 542 579 q 452 619 494 614 q 340 624 410 624 q 268 622 310 624 q 187 616 226 619 q 124 608 147 613 l 124 700 q 242 715 176 710 q 379 719 308 719 q 506 710 454 719 q 591 682 558 701 q 640 631 624 663 q 663 553 657 599 q 669 446 669 507 l 669 0 l 568 0 l 564 100 l 556 100 q 492 27 533 51 q 403 -4 451 3 q 310 -11 354 -11 m 351 82 q 426 87 392 82 q 488 106 461 92 q 529 147 514 119 q 551 210 544 176 q 557 290 557 244 l 557 326 l 321 326 q 238 318 267 326 q 198 283 208 310 q 188 204 188 257 q 200 126 188 153 q 248 91 213 100 q 351 82 283 82 m 396 807 q 298 815 333 807 q 247 840 263 822 q 226 885 231 857 q 221 951 221 913 q 226 1018 221 990 q 247 1063 231 1046 q 298 1089 263 1081 q 396 1097 333 1097 q 496 1089 460 1097 q 549 1063 532 1081 q 569 1018 565 1046 q 574 951 574 990 q 569 885 574 913 q 549 840 565 857 q 496 815 532 822 q 396 807 460 807 m 396 865 q 470 873 449 865 q 497 899 492 881 q 501 951 501 918 q 497 1004 501 985 q 470 1031 492 1024 q 396 1039 449 1039 q 324 1031 346 1039 q 298 1004 303 1024 q 293 951 293 985 q 298 899 293 918 q 324 873 303 881 q 396 865 346 865 z "},"ǻ":{"ha":790,"x_min":76,"x_max":669,"o":"m 310 -11 q 180 7 232 -11 q 102 69 128 25 q 76 194 76 114 q 95 322 76 275 q 161 388 114 368 q 293 407 208 407 q 337 406 307 407 q 406 405 367 406 q 484 403 444 404 q 557 401 524 403 l 557 446 q 549 544 557 508 q 518 597 542 579 q 452 619 494 614 q 340 624 410 624 q 268 622 310 624 q 187 616 226 619 q 124 608 147 613 l 124 700 q 242 715 176 710 q 379 719 308 719 q 506 710 454 719 q 591 682 558 701 q 640 631 624 663 q 663 553 657 599 q 669 446 669 507 l 669 0 l 568 0 l 564 100 l 556 100 q 492 27 533 51 q 403 -4 451 3 q 310 -11 354 -11 m 351 82 q 426 87 392 82 q 488 106 461 92 q 529 147 514 119 q 551 210 544 176 q 557 290 557 244 l 557 326 l 321 326 q 238 318 267 326 q 198 283 208 310 q 188 204 188 257 q 200 126 188 153 q 248 91 213 100 q 351 82 283 82 m 396 807 q 298 815 333 807 q 247 840 263 822 q 226 885 231 857 q 221 951 221 913 q 226 1018 221 990 q 247 1063 231 1046 q 298 1089 263 1081 q 396 1097 333 1097 q 496 1089 460 1097 q 549 1063 532 1081 q 569 1018 565 1046 q 574 951 574 990 q 569 885 574 913 q 549 840 565 857 q 496 815 532 822 q 396 807 460 807 m 396 865 q 470 873 449 865 q 497 899 492 881 q 501 951 501 918 q 497 1004 501 985 q 470 1031 492 1024 q 396 1039 449 1039 q 324 1031 346 1039 q 298 1004 303 1024 q 293 951 293 985 q 298 899 293 918 q 324 873 303 881 q 396 865 346 865 m 292 1168 l 292 1175 l 432 1363 l 554 1363 l 554 1356 l 375 1168 l 292 1168 z "},"ã":{"ha":790,"x_min":76,"x_max":669,"o":"m 310 -11 q 180 7 232 -11 q 102 69 128 25 q 76 194 76 114 q 95 322 76 275 q 161 388 114 368 q 293 407 208 407 q 337 406 307 407 q 406 405 367 406 q 484 403 444 404 q 557 401 524 403 l 557 446 q 549 544 557 508 q 518 597 542 579 q 452 619 494 614 q 340 624 410 624 q 268 622 310 624 q 187 616 226 619 q 124 608 147 613 l 124 700 q 242 715 176 710 q 379 719 308 719 q 506 710 454 719 q 591 682 558 701 q 640 631 624 663 q 663 553 657 599 q 669 446 669 507 l 669 0 l 568 0 l 564 100 l 556 100 q 492 27 533 51 q 403 -4 451 3 q 310 -11 354 -11 m 351 82 q 426 87 392 82 q 488 106 461 92 q 529 147 514 119 q 551 210 544 176 q 557 290 557 244 l 557 326 l 321 326 q 238 318 267 326 q 198 283 208 310 q 188 204 188 257 q 200 126 188 153 q 248 91 213 100 q 351 82 283 82 m 160 836 q 166 925 160 890 q 194 977 172 960 q 263 994 217 994 q 339 984 301 994 q 414 961 376 974 q 470 943 443 951 q 525 935 497 935 q 562 951 556 935 q 568 1010 568 967 l 633 1010 q 627 921 633 956 q 599 869 621 886 q 532 851 578 851 q 455 863 490 851 q 381 885 419 874 q 324 903 351 894 q 269 911 296 911 q 233 895 239 911 q 226 836 226 879 l 160 836 z "},"æ":{"ha":1246,"x_min":76,"x_max":1154,"o":"m 325 -11 q 216 -1 263 -11 q 138 31 169 8 q 92 94 107 54 q 76 194 76 133 q 95 319 76 274 q 161 385 114 365 q 293 404 208 404 q 371 404 326 404 q 464 403 415 404 q 557 401 513 403 l 557 446 q 549 544 557 508 q 518 597 542 579 q 452 619 494 614 q 340 624 410 624 q 266 622 310 624 q 183 616 222 619 q 124 608 144 613 l 124 700 q 234 713 168 707 q 379 719 300 719 q 536 702 479 719 q 621 640 593 685 q 712 701 653 683 q 871 719 771 719 q 1005 707 953 719 q 1088 668 1057 694 q 1132 599 1118 642 q 1150 495 1146 556 q 1154 357 1154 435 l 1154 321 l 671 321 q 678 201 671 247 q 706 130 685 156 q 774 94 728 104 q 901 83 821 83 q 975 85 935 83 q 1055 92 1015 88 q 1126 100 1094 96 l 1126 8 q 1056 -1 1099 3 q 967 -8 1014 -6 q 876 -11 921 -11 q 742 -1 796 -11 q 653 34 688 10 q 600 99 619 58 q 524 25 571 49 q 426 -5 478 1 q 325 -11 375 -11 m 351 82 q 429 87 393 82 q 492 108 465 92 q 533 156 519 124 q 551 215 546 183 q 557 290 557 247 l 557 321 l 321 321 q 238 313 267 321 q 198 281 208 306 q 188 204 188 256 q 200 126 188 153 q 248 91 213 100 q 351 82 283 82 m 1047 350 q 1042 494 1047 440 q 1018 577 1036 549 q 964 615 1000 606 q 868 625 928 625 q 763 616 801 625 q 704 583 724 607 q 678 516 685 560 q 671 400 671 472 l 1097 400 l 1047 350 z "},"ǽ":{"ha":1246,"x_min":76,"x_max":1154,"o":"m 325 -11 q 216 -1 263 -11 q 138 31 169 8 q 92 94 107 54 q 76 194 76 133 q 95 319 76 274 q 161 385 114 365 q 293 404 208 404 q 371 404 326 404 q 464 403 415 404 q 557 401 513 403 l 557 446 q 549 544 557 508 q 518 597 542 579 q 452 619 494 614 q 340 624 410 624 q 266 622 310 624 q 183 616 222 619 q 124 608 144 613 l 124 700 q 234 713 168 707 q 379 719 300 719 q 536 702 479 719 q 621 640 593 685 q 712 701 653 683 q 871 719 771 719 q 1005 707 953 719 q 1088 668 1057 694 q 1132 599 1118 642 q 1150 495 1146 556 q 1154 357 1154 435 l 1154 321 l 671 321 q 678 201 671 247 q 706 130 685 156 q 774 94 728 104 q 901 83 821 83 q 975 85 935 83 q 1055 92 1015 88 q 1126 100 1094 96 l 1126 8 q 1056 -1 1099 3 q 967 -8 1014 -6 q 876 -11 921 -11 q 742 -1 796 -11 q 653 34 688 10 q 600 99 619 58 q 524 25 571 49 q 426 -5 478 1 q 325 -11 375 -11 m 351 82 q 429 87 393 82 q 492 108 465 92 q 533 156 519 124 q 551 215 546 183 q 557 290 557 247 l 557 321 l 321 321 q 238 313 267 321 q 198 281 208 306 q 188 204 188 256 q 200 126 188 153 q 248 91 213 100 q 351 82 283 82 m 1047 350 q 1042 494 1047 440 q 1018 577 1036 549 q 964 615 1000 606 q 868 625 928 625 q 763 616 801 625 q 704 583 724 607 q 678 516 685 560 q 671 400 671 472 l 1097 400 l 1047 350 m 518 826 l 518 833 l 658 1021 l 781 1021 l 781 1014 l 601 826 l 518 826 z "},"b":{"ha":819,"x_min":119,"x_max":729,"o":"m 468 -11 q 374 -3 419 -11 q 292 28 328 4 q 235 101 256 53 l 226 101 l 222 0 l 119 0 l 119 1032 l 233 1032 l 233 618 l 240 618 q 292 679 260 657 q 369 710 325 701 q 471 719 414 719 q 597 702 547 719 q 676 644 647 685 q 717 533 706 604 q 729 354 729 463 q 717 175 729 246 q 675 64 704 104 q 595 6 646 24 q 468 -11 544 -11 m 424 89 q 526 98 488 89 q 583 133 564 107 q 610 213 603 160 q 617 354 617 265 q 610 495 617 443 q 583 574 603 547 q 526 610 564 601 q 424 618 488 618 q 315 601 356 618 q 258 546 275 583 q 238 463 242 510 q 233 354 233 417 q 237 247 233 293 q 257 164 240 200 q 315 107 275 125 q 424 89 356 89 z "},"c":{"ha":639,"x_min":90,"x_max":571,"o":"m 378 -11 q 245 3 297 -11 q 162 44 193 17 q 115 115 131 72 q 95 218 100 158 q 90 354 90 278 q 97 493 90 433 q 120 597 103 553 q 169 667 138 640 q 250 706 200 693 q 374 719 300 719 q 476 715 422 719 q 564 701 529 710 l 564 610 q 485 619 532 615 q 401 624 439 624 q 297 613 336 624 q 237 572 257 601 q 210 490 217 543 q 203 354 203 438 q 210 216 203 269 q 238 134 217 163 q 299 95 260 106 q 404 85 339 85 q 489 89 443 85 q 571 99 535 93 l 571 7 q 482 -6 536 0 q 378 -11 428 -11 z "},"ć":{"ha":639,"x_min":90,"x_max":571,"o":"m 378 -11 q 245 3 297 -11 q 162 44 193 17 q 115 115 131 72 q 95 218 100 158 q 90 354 90 278 q 97 493 90 433 q 120 597 103 553 q 169 667 138 640 q 250 706 200 693 q 374 719 300 719 q 476 715 422 719 q 564 701 529 710 l 564 610 q 485 619 532 615 q 401 624 439 624 q 297 613 336 624 q 237 572 257 601 q 210 490 217 543 q 203 354 203 438 q 210 216 203 269 q 238 134 217 163 q 299 95 260 106 q 404 85 339 85 q 489 89 443 85 q 571 99 535 93 l 571 7 q 482 -6 536 0 q 378 -11 428 -11 m 247 826 l 247 833 l 388 1021 l 510 1021 l 510 1014 l 331 826 l 247 826 z "},"č":{"ha":639,"x_min":90,"x_max":571,"o":"m 378 -11 q 245 3 297 -11 q 162 44 193 17 q 115 115 131 72 q 95 218 100 158 q 90 354 90 278 q 97 493 90 433 q 120 597 103 553 q 169 667 138 640 q 250 706 200 693 q 374 719 300 719 q 476 715 422 719 q 564 701 529 710 l 564 610 q 485 619 532 615 q 401 624 439 624 q 297 613 336 624 q 237 572 257 601 q 210 490 217 543 q 203 354 203 438 q 210 216 203 269 q 238 134 217 163 q 299 95 260 106 q 404 85 339 85 q 489 89 443 85 q 571 99 535 93 l 571 7 q 482 -6 536 0 q 378 -11 428 -11 m 294 826 l 153 1013 l 153 1021 l 231 1021 l 353 886 l 476 1021 l 554 1021 l 554 1013 l 413 826 l 294 826 z "},"ç":{"ha":639,"x_min":90,"x_max":571,"o":"m 378 -11 q 245 3 297 -11 q 162 44 193 17 q 115 115 131 72 q 95 218 100 158 q 90 354 90 278 q 97 493 90 433 q 120 597 103 553 q 169 667 138 640 q 250 706 200 693 q 374 719 300 719 q 476 715 422 719 q 564 701 529 710 l 564 610 q 485 619 532 615 q 401 624 439 624 q 297 613 336 624 q 237 572 257 601 q 210 490 217 543 q 203 354 203 438 q 210 216 203 269 q 238 134 217 163 q 299 95 260 106 q 404 85 339 85 q 489 89 443 85 q 571 99 535 93 l 571 7 q 482 -6 536 0 q 378 -11 428 -11 m 254 -264 l 254 -257 l 349 25 l 425 25 l 425 18 l 367 -264 l 254 -264 z "},"ĉ":{"ha":639,"x_min":90,"x_max":571,"o":"m 378 -11 q 245 3 297 -11 q 162 44 193 17 q 115 115 131 72 q 95 218 100 158 q 90 354 90 278 q 97 493 90 433 q 120 597 103 553 q 169 667 138 640 q 250 706 200 693 q 374 719 300 719 q 476 715 422 719 q 564 701 529 710 l 564 610 q 485 619 532 615 q 401 624 439 624 q 297 613 336 624 q 237 572 257 601 q 210 490 217 543 q 203 354 203 438 q 210 216 203 269 q 238 134 217 163 q 299 95 260 106 q 404 85 339 85 q 489 89 443 85 q 571 99 535 93 l 571 7 q 482 -6 536 0 q 378 -11 428 -11 m 153 826 l 153 835 l 294 1021 l 413 1021 l 554 835 l 554 826 l 476 826 l 353 960 l 231 826 l 153 826 z "},"ċ":{"ha":639,"x_min":90,"x_max":571,"o":"m 378 -11 q 245 3 297 -11 q 162 44 193 17 q 115 115 131 72 q 95 218 100 158 q 90 354 90 278 q 97 493 90 433 q 120 597 103 553 q 169 667 138 640 q 250 706 200 693 q 374 719 300 719 q 476 715 422 719 q 564 701 529 710 l 564 610 q 485 619 532 615 q 401 624 439 624 q 297 613 336 624 q 237 572 257 601 q 210 490 217 543 q 203 354 203 438 q 210 216 203 269 q 238 134 217 163 q 299 95 260 106 q 404 85 339 85 q 489 89 443 85 q 571 99 535 93 l 571 7 q 482 -6 536 0 q 378 -11 428 -11 m 300 872 l 300 983 l 407 983 l 407 872 l 300 872 z "},"d":{"ha":819,"x_min":90,"x_max":700,"o":"m 351 -11 q 224 6 275 -11 q 144 63 174 22 q 103 175 115 104 q 90 353 90 246 q 102 533 90 461 q 143 644 114 604 q 222 702 172 685 q 349 719 272 719 q 450 710 406 719 q 527 679 494 701 q 579 618 560 657 l 586 618 l 586 1032 l 700 1032 l 700 0 l 599 0 l 593 101 l 585 101 q 528 28 565 53 q 446 -3 492 4 q 351 -11 400 -11 m 396 89 q 508 108 467 89 q 567 169 550 128 q 583 254 581 208 q 586 363 586 300 q 583 456 586 414 q 568 531 581 499 q 508 598 550 578 q 393 618 467 618 q 293 610 331 618 q 236 574 256 601 q 210 495 217 547 q 203 354 203 443 q 210 213 203 265 q 236 133 217 160 q 294 98 256 107 q 396 89 332 89 z "},"ð":{"ha":804,"x_min":90,"x_max":711,"o":"m 400 -11 q 256 -1 313 -11 q 165 34 199 10 q 115 101 131 58 q 94 205 99 143 q 90 353 90 267 q 98 525 90 454 q 133 638 106 596 q 217 699 160 681 q 375 718 275 718 q 480 709 436 718 q 553 682 524 700 l 560 686 q 519 781 542 738 q 471 861 497 825 l 307 833 l 307 911 l 421 929 q 365 988 392 964 q 321 1026 338 1011 l 321 1032 l 446 1032 q 483 999 461 1019 q 532 947 506 978 l 681 972 l 681 896 l 582 879 q 647 756 617 826 q 692 603 676 685 q 703 527 699 565 q 709 451 707 489 q 711 378 711 414 q 707 217 711 283 q 688 106 703 151 q 639 36 672 61 q 548 0 606 11 q 400 -11 490 -11 m 400 83 q 515 93 475 83 q 574 131 556 103 q 595 212 592 158 q 599 353 599 265 q 595 479 599 428 q 574 563 592 531 q 515 609 556 594 q 400 624 475 624 q 285 614 326 624 q 228 576 244 604 q 207 494 211 549 q 203 353 203 440 q 207 212 203 265 q 228 131 211 158 q 285 93 244 103 q 400 83 326 83 z "},"ď":{"ha":819,"x_min":90,"x_max":860,"o":"m 351 -11 q 224 6 275 -11 q 144 63 174 22 q 103 175 115 104 q 90 353 90 246 q 102 533 90 461 q 143 644 114 604 q 222 702 172 685 q 349 719 272 719 q 450 710 406 719 q 527 679 494 701 q 579 618 560 657 l 586 618 l 586 1032 l 700 1032 l 700 0 l 599 0 l 593 101 l 585 101 q 528 28 565 53 q 446 -3 492 4 q 351 -11 400 -11 m 396 89 q 508 108 467 89 q 567 169 550 128 q 583 254 581 208 q 586 363 586 300 q 583 456 586 414 q 568 531 581 499 q 508 598 550 578 q 393 618 467 618 q 293 610 331 618 q 236 574 256 601 q 210 495 217 547 q 203 354 203 443 q 210 213 203 265 q 236 133 217 160 q 294 98 256 107 q 396 89 332 89 m 742 617 l 761 850 l 761 956 l 860 956 l 860 850 l 813 617 l 742 617 z "},"đ":{"ha":819,"x_min":90,"x_max":792,"o":"m 397 879 l 397 956 l 792 956 l 792 879 l 397 879 m 351 -11 q 224 6 275 -11 q 144 63 174 22 q 103 175 115 104 q 90 353 90 246 q 102 533 90 461 q 143 644 114 604 q 222 702 172 685 q 349 719 272 719 q 450 710 406 719 q 527 679 494 701 q 579 618 560 657 l 586 618 l 586 1032 l 700 1032 l 700 0 l 599 0 l 593 101 l 585 101 q 528 28 565 53 q 446 -3 492 4 q 351 -11 400 -11 m 396 89 q 508 108 467 89 q 567 169 550 128 q 583 254 581 208 q 586 363 586 300 q 583 456 586 414 q 568 531 581 499 q 508 598 550 578 q 393 618 467 618 q 293 610 331 618 q 236 574 256 601 q 210 495 217 547 q 203 354 203 443 q 210 213 203 265 q 236 133 217 160 q 294 98 256 107 q 396 89 332 89 z "},"ḍ":{"ha":819,"x_min":90,"x_max":700,"o":"m 351 -11 q 224 6 275 -11 q 144 63 174 22 q 103 175 115 104 q 90 353 90 246 q 102 533 90 461 q 143 644 114 604 q 222 702 172 685 q 349 719 272 719 q 450 710 406 719 q 527 679 494 701 q 579 618 560 657 l 586 618 l 586 1032 l 700 1032 l 700 0 l 599 0 l 593 101 l 585 101 q 528 28 565 53 q 446 -3 492 4 q 351 -11 400 -11 m 396 89 q 508 108 467 89 q 567 169 550 128 q 583 254 581 208 q 586 363 586 300 q 583 456 586 414 q 568 531 581 499 q 508 598 550 578 q 393 618 467 618 q 293 610 331 618 q 236 574 256 601 q 210 495 217 547 q 203 354 203 443 q 210 213 203 265 q 236 133 217 160 q 294 98 256 107 q 396 89 332 89 m 360 -267 l 360 -161 l 460 -161 l 460 -267 l 360 -267 z "},"ǳ":{"ha":1525,"x_min":90,"x_max":1453,"o":"m 351 -11 q 224 6 275 -11 q 144 63 174 22 q 103 175 115 104 q 90 353 90 246 q 102 533 90 461 q 143 644 114 604 q 222 702 172 685 q 349 719 272 719 q 450 710 406 719 q 527 679 494 701 q 579 618 560 657 l 586 618 l 586 1032 l 700 1032 l 700 0 l 599 0 l 593 101 l 585 101 q 528 28 565 53 q 446 -3 492 4 q 351 -11 400 -11 m 396 89 q 508 108 467 89 q 567 169 550 128 q 583 254 581 208 q 586 363 586 300 q 583 456 586 414 q 568 531 581 499 q 508 598 550 578 q 393 618 467 618 q 293 610 331 618 q 236 574 256 601 q 210 495 217 547 q 203 354 203 443 q 210 213 203 265 q 236 133 217 160 q 294 98 256 107 q 396 89 332 89 m 892 0 l 892 88 l 1304 613 l 908 613 l 908 708 l 1450 708 l 1450 621 l 1039 96 l 1453 96 l 1453 0 l 892 0 z "},"ǆ":{"ha":1525,"x_min":90,"x_max":1453,"o":"m 351 -11 q 224 6 275 -11 q 144 63 174 22 q 103 175 115 104 q 90 353 90 246 q 102 533 90 461 q 143 644 114 604 q 222 702 172 685 q 349 719 272 719 q 450 710 406 719 q 527 679 494 701 q 579 618 560 657 l 586 618 l 586 1032 l 700 1032 l 700 0 l 599 0 l 593 101 l 585 101 q 528 28 565 53 q 446 -3 492 4 q 351 -11 400 -11 m 396 89 q 508 108 467 89 q 567 169 550 128 q 583 254 581 208 q 586 363 586 300 q 583 456 586 414 q 568 531 581 499 q 508 598 550 578 q 393 618 467 618 q 293 610 331 618 q 236 574 256 601 q 210 495 217 547 q 203 354 203 443 q 210 213 203 265 q 236 133 217 160 q 294 98 256 107 q 396 89 332 89 m 892 0 l 892 88 l 1304 613 l 908 613 l 908 708 l 1450 708 l 1450 621 l 1039 96 l 1453 96 l 1453 0 l 892 0 m 1121 826 l 979 1013 l 979 1021 l 1057 1021 l 1179 886 l 1303 1021 l 1381 1021 l 1381 1013 l 1239 826 l 1121 826 z "},"e":{"ha":776,"x_min":90,"x_max":688,"o":"m 408 -11 q 265 0 322 -11 q 172 37 207 11 q 119 105 138 63 q 96 208 101 147 q 90 353 90 269 q 99 522 90 451 q 137 635 107 592 q 231 699 167 679 q 403 719 294 719 q 537 707 485 719 q 619 668 589 694 q 665 598 650 642 q 683 494 679 554 q 688 354 688 433 l 688 317 l 203 317 q 210 199 203 244 q 238 128 217 153 q 306 93 260 103 q 433 83 353 83 q 507 85 467 83 q 588 92 547 88 q 660 100 628 96 l 660 8 q 588 -1 631 3 q 499 -8 546 -6 q 408 -11 453 -11 m 578 374 l 578 411 q 569 526 578 483 q 541 590 561 568 q 486 618 521 611 q 400 625 451 625 q 294 616 333 625 q 236 583 256 607 q 210 515 217 560 q 203 397 203 471 l 604 397 l 578 374 z "},"é":{"ha":776,"x_min":90,"x_max":688,"o":"m 408 -11 q 265 0 322 -11 q 172 37 207 11 q 119 105 138 63 q 96 208 101 147 q 90 353 90 269 q 99 522 90 451 q 137 635 107 592 q 231 699 167 679 q 403 719 294 719 q 537 707 485 719 q 619 668 589 694 q 665 598 650 642 q 683 494 679 554 q 688 354 688 433 l 688 317 l 203 317 q 210 199 203 244 q 238 128 217 153 q 306 93 260 103 q 433 83 353 83 q 507 85 467 83 q 588 92 547 88 q 660 100 628 96 l 660 8 q 588 -1 631 3 q 499 -8 546 -6 q 408 -11 453 -11 m 578 374 l 578 411 q 569 526 578 483 q 541 590 561 568 q 486 618 521 611 q 400 625 451 625 q 294 616 333 625 q 236 583 256 607 q 210 515 217 560 q 203 397 203 471 l 604 397 l 578 374 m 290 826 l 290 833 l 431 1021 l 553 1021 l 553 1014 l 374 826 l 290 826 z "},"ĕ":{"ha":776,"x_min":90,"x_max":688,"o":"m 408 -11 q 265 0 322 -11 q 172 37 207 11 q 119 105 138 63 q 96 208 101 147 q 90 353 90 269 q 99 522 90 451 q 137 635 107 592 q 231 699 167 679 q 403 719 294 719 q 537 707 485 719 q 619 668 589 694 q 665 598 650 642 q 683 494 679 554 q 688 354 688 433 l 688 317 l 203 317 q 210 199 203 244 q 238 128 217 153 q 306 93 260 103 q 433 83 353 83 q 507 85 467 83 q 588 92 547 88 q 660 100 628 96 l 660 8 q 588 -1 631 3 q 499 -8 546 -6 q 408 -11 453 -11 m 578 374 l 578 411 q 569 526 578 483 q 541 590 561 568 q 486 618 521 611 q 400 625 451 625 q 294 616 333 625 q 236 583 256 607 q 210 515 217 560 q 203 397 203 471 l 604 397 l 578 374 m 394 814 q 288 829 326 814 q 231 871 249 844 q 209 934 214 897 q 204 1014 204 971 l 278 1014 q 283 944 278 972 q 312 900 288 915 q 394 885 336 885 q 477 900 453 885 q 507 944 501 915 q 513 1014 513 972 l 586 1014 q 581 934 586 971 q 558 871 576 897 q 501 829 540 844 q 394 814 463 814 z "},"ě":{"ha":776,"x_min":90,"x_max":688,"o":"m 408 -11 q 265 0 322 -11 q 172 37 207 11 q 119 105 138 63 q 96 208 101 147 q 90 353 90 269 q 99 522 90 451 q 137 635 107 592 q 231 699 167 679 q 403 719 294 719 q 537 707 485 719 q 619 668 589 694 q 665 598 650 642 q 683 494 679 554 q 688 354 688 433 l 688 317 l 203 317 q 210 199 203 244 q 238 128 217 153 q 306 93 260 103 q 433 83 353 83 q 507 85 467 83 q 588 92 547 88 q 660 100 628 96 l 660 8 q 588 -1 631 3 q 499 -8 546 -6 q 408 -11 453 -11 m 578 374 l 578 411 q 569 526 578 483 q 541 590 561 568 q 486 618 521 611 q 400 625 451 625 q 294 616 333 625 q 236 583 256 607 q 210 515 217 560 q 203 397 203 471 l 604 397 l 578 374 m 338 826 l 196 1013 l 196 1021 l 274 1021 l 396 886 l 519 1021 l 597 1021 l 597 1013 l 456 826 l 338 826 z "},"ê":{"ha":776,"x_min":90,"x_max":688,"o":"m 408 -11 q 265 0 322 -11 q 172 37 207 11 q 119 105 138 63 q 96 208 101 147 q 90 353 90 269 q 99 522 90 451 q 137 635 107 592 q 231 699 167 679 q 403 719 294 719 q 537 707 485 719 q 619 668 589 694 q 665 598 650 642 q 683 494 679 554 q 688 354 688 433 l 688 317 l 203 317 q 210 199 203 244 q 238 128 217 153 q 306 93 260 103 q 433 83 353 83 q 507 85 467 83 q 588 92 547 88 q 660 100 628 96 l 660 8 q 588 -1 631 3 q 499 -8 546 -6 q 408 -11 453 -11 m 578 374 l 578 411 q 569 526 578 483 q 541 590 561 568 q 486 618 521 611 q 400 625 451 625 q 294 616 333 625 q 236 583 256 607 q 210 515 217 560 q 203 397 203 471 l 604 397 l 578 374 m 196 826 l 196 835 l 338 1021 l 456 1021 l 597 835 l 597 826 l 519 826 l 396 960 l 274 826 l 196 826 z "},"ế":{"ha":776,"x_min":90,"x_max":688,"o":"m 408 -11 q 265 0 322 -11 q 172 37 207 11 q 119 105 138 63 q 96 208 101 147 q 90 353 90 269 q 99 522 90 451 q 137 635 107 592 q 231 699 167 679 q 403 719 294 719 q 537 707 485 719 q 619 668 589 694 q 665 598 650 642 q 683 494 679 554 q 688 354 688 433 l 688 317 l 203 317 q 210 199 203 244 q 238 128 217 153 q 306 93 260 103 q 433 83 353 83 q 507 85 467 83 q 588 92 547 88 q 660 100 628 96 l 660 8 q 588 -1 631 3 q 499 -8 546 -6 q 408 -11 453 -11 m 578 374 l 578 411 q 569 526 578 483 q 541 590 561 568 q 486 618 521 611 q 400 625 451 625 q 294 616 333 625 q 236 583 256 607 q 210 515 217 560 q 203 397 203 471 l 604 397 l 578 374 m 196 826 l 196 835 l 338 1021 l 456 1021 l 597 835 l 597 826 l 519 826 l 396 960 l 274 826 l 196 826 m 290 1074 l 290 1081 l 432 1268 l 553 1268 l 553 1261 l 375 1074 l 290 1074 z "},"ệ":{"ha":776,"x_min":90,"x_max":688,"o":"m 408 -11 q 265 0 322 -11 q 172 37 207 11 q 119 105 138 63 q 96 208 101 147 q 90 353 90 269 q 99 522 90 451 q 137 635 107 592 q 231 699 167 679 q 403 719 294 719 q 537 707 485 719 q 619 668 589 694 q 665 598 650 642 q 683 494 679 554 q 688 354 688 433 l 688 317 l 203 317 q 210 199 203 244 q 238 128 217 153 q 306 93 260 103 q 433 83 353 83 q 507 85 467 83 q 588 92 547 88 q 660 100 628 96 l 660 8 q 588 -1 631 3 q 499 -8 546 -6 q 408 -11 453 -11 m 578 374 l 578 411 q 569 526 578 483 q 541 590 561 568 q 486 618 521 611 q 400 625 451 625 q 294 616 333 625 q 236 583 256 607 q 210 515 217 560 q 203 397 203 471 l 604 397 l 578 374 m 339 -267 l 339 -161 l 439 -161 l 439 -267 l 339 -267 m 196 826 l 196 835 l 338 1021 l 456 1021 l 597 835 l 597 826 l 519 826 l 396 960 l 274 826 l 196 826 z "},"ề":{"ha":776,"x_min":90,"x_max":688,"o":"m 408 -11 q 265 0 322 -11 q 172 37 207 11 q 119 105 138 63 q 96 208 101 147 q 90 353 90 269 q 99 522 90 451 q 137 635 107 592 q 231 699 167 679 q 403 719 294 719 q 537 707 485 719 q 619 668 589 694 q 665 598 650 642 q 683 494 679 554 q 688 354 688 433 l 688 317 l 203 317 q 210 199 203 244 q 238 128 217 153 q 306 93 260 103 q 433 83 353 83 q 507 85 467 83 q 588 92 547 88 q 660 100 628 96 l 660 8 q 588 -1 631 3 q 499 -8 546 -6 q 408 -11 453 -11 m 578 374 l 578 411 q 569 526 578 483 q 541 590 561 568 q 486 618 521 611 q 400 625 451 625 q 294 616 333 625 q 236 583 256 607 q 210 515 217 560 q 203 397 203 471 l 604 397 l 578 374 m 196 826 l 196 835 l 338 1021 l 456 1021 l 597 835 l 597 826 l 519 826 l 396 960 l 274 826 l 196 826 m 394 1074 l 215 1261 l 215 1268 l 338 1268 l 478 1081 l 478 1074 l 394 1074 z "},"ể":{"ha":776,"x_min":90,"x_max":688,"o":"m 408 -11 q 265 0 322 -11 q 172 37 207 11 q 119 105 138 63 q 96 208 101 147 q 90 353 90 269 q 99 522 90 451 q 137 635 107 592 q 231 699 167 679 q 403 719 294 719 q 537 707 485 719 q 619 668 589 694 q 665 598 650 642 q 683 494 679 554 q 688 354 688 433 l 688 317 l 203 317 q 210 199 203 244 q 238 128 217 153 q 306 93 260 103 q 433 83 353 83 q 507 85 467 83 q 588 92 547 88 q 660 100 628 96 l 660 8 q 588 -1 631 3 q 499 -8 546 -6 q 408 -11 453 -11 m 578 374 l 578 411 q 569 526 578 483 q 541 590 561 568 q 486 618 521 611 q 400 625 451 625 q 294 616 333 625 q 236 583 256 607 q 210 515 217 560 q 203 397 203 471 l 604 397 l 578 374 m 196 826 l 196 835 l 338 1021 l 456 1021 l 597 835 l 597 826 l 519 826 l 396 960 l 274 826 l 196 826 m 333 1054 l 333 1068 q 339 1103 333 1089 q 358 1126 344 1117 q 396 1143 371 1136 l 426 1151 q 474 1168 458 1161 q 494 1184 489 1175 q 499 1210 499 1193 q 488 1247 499 1236 q 451 1260 478 1257 q 376 1263 425 1263 q 335 1262 360 1263 q 284 1260 311 1261 q 235 1256 257 1258 l 235 1315 q 314 1323 268 1319 q 396 1326 360 1326 q 497 1319 457 1326 q 558 1290 538 1313 q 578 1218 578 1267 q 571 1168 578 1188 q 545 1136 564 1149 q 492 1114 526 1124 l 458 1104 q 419 1092 431 1097 q 404 1078 407 1086 q 401 1054 401 1071 l 333 1054 z "},"ễ":{"ha":776,"x_min":90,"x_max":688,"o":"m 408 -11 q 265 0 322 -11 q 172 37 207 11 q 119 105 138 63 q 96 208 101 147 q 90 353 90 269 q 99 522 90 451 q 137 635 107 592 q 231 699 167 679 q 403 719 294 719 q 537 707 485 719 q 619 668 589 694 q 665 598 650 642 q 683 494 679 554 q 688 354 688 433 l 688 317 l 203 317 q 210 199 203 244 q 238 128 217 153 q 306 93 260 103 q 433 83 353 83 q 507 85 467 83 q 588 92 547 88 q 660 100 628 96 l 660 8 q 588 -1 631 3 q 499 -8 546 -6 q 408 -11 453 -11 m 578 374 l 578 411 q 569 526 578 483 q 541 590 561 568 q 486 618 521 611 q 400 625 451 625 q 294 616 333 625 q 236 583 256 607 q 210 515 217 560 q 203 397 203 471 l 604 397 l 578 374 m 196 826 l 196 835 l 338 1021 l 456 1021 l 597 835 l 597 826 l 519 826 l 396 960 l 274 826 l 196 826 m 158 1083 q 165 1172 158 1138 q 193 1224 171 1207 q 261 1242 215 1242 q 338 1231 300 1242 q 413 1208 375 1221 q 469 1190 442 1199 q 524 1182 496 1182 q 560 1198 554 1182 q 567 1257 567 1214 l 632 1257 q 626 1168 632 1203 q 598 1116 619 1133 q 531 1099 576 1099 q 453 1110 489 1099 q 379 1132 418 1121 q 322 1150 350 1142 q 268 1158 294 1158 q 231 1142 238 1158 q 225 1083 225 1126 l 158 1083 z "},"ȅ":{"ha":776,"x_min":90,"x_max":688,"o":"m 408 -11 q 265 0 322 -11 q 172 37 207 11 q 119 105 138 63 q 96 208 101 147 q 90 353 90 269 q 99 522 90 451 q 137 635 107 592 q 231 699 167 679 q 403 719 294 719 q 537 707 485 719 q 619 668 589 694 q 665 598 650 642 q 683 494 679 554 q 688 354 688 433 l 688 317 l 203 317 q 210 199 203 244 q 238 128 217 153 q 306 93 260 103 q 433 83 353 83 q 507 85 467 83 q 588 92 547 88 q 660 100 628 96 l 660 8 q 588 -1 631 3 q 499 -8 546 -6 q 408 -11 453 -11 m 578 374 l 578 411 q 569 526 578 483 q 541 590 561 568 q 486 618 521 611 q 400 625 451 625 q 294 616 333 625 q 236 583 256 607 q 210 515 217 560 q 203 397 203 471 l 604 397 l 578 374 m 583 826 l 511 826 l 353 989 l 353 996 l 460 996 l 583 833 l 583 826 m 332 826 l 260 826 l 101 989 l 101 996 l 210 996 l 332 833 l 332 826 z "},"ë":{"ha":776,"x_min":90,"x_max":688,"o":"m 408 -11 q 265 0 322 -11 q 172 37 207 11 q 119 105 138 63 q 96 208 101 147 q 90 353 90 269 q 99 522 90 451 q 137 635 107 592 q 231 699 167 679 q 403 719 294 719 q 537 707 485 719 q 619 668 589 694 q 665 598 650 642 q 683 494 679 554 q 688 354 688 433 l 688 317 l 203 317 q 210 199 203 244 q 238 128 217 153 q 306 93 260 103 q 433 83 353 83 q 507 85 467 83 q 588 92 547 88 q 660 100 628 96 l 660 8 q 588 -1 631 3 q 499 -8 546 -6 q 408 -11 453 -11 m 578 374 l 578 411 q 569 526 578 483 q 541 590 561 568 q 486 618 521 611 q 400 625 451 625 q 294 616 333 625 q 236 583 256 607 q 210 515 217 560 q 203 397 203 471 l 604 397 l 578 374 m 199 872 l 199 983 l 306 983 l 306 872 l 199 872 m 486 872 l 486 983 l 592 983 l 592 872 l 486 872 z "},"ė":{"ha":776,"x_min":90,"x_max":688,"o":"m 408 -11 q 265 0 322 -11 q 172 37 207 11 q 119 105 138 63 q 96 208 101 147 q 90 353 90 269 q 99 522 90 451 q 137 635 107 592 q 231 699 167 679 q 403 719 294 719 q 537 707 485 719 q 619 668 589 694 q 665 598 650 642 q 683 494 679 554 q 688 354 688 433 l 688 317 l 203 317 q 210 199 203 244 q 238 128 217 153 q 306 93 260 103 q 433 83 353 83 q 507 85 467 83 q 588 92 547 88 q 660 100 628 96 l 660 8 q 588 -1 631 3 q 499 -8 546 -6 q 408 -11 453 -11 m 578 374 l 578 411 q 569 526 578 483 q 541 590 561 568 q 486 618 521 611 q 400 625 451 625 q 294 616 333 625 q 236 583 256 607 q 210 515 217 560 q 203 397 203 471 l 604 397 l 578 374 m 343 872 l 343 983 l 450 983 l 450 872 l 343 872 z "},"ẹ":{"ha":776,"x_min":90,"x_max":688,"o":"m 408 -11 q 265 0 322 -11 q 172 37 207 11 q 119 105 138 63 q 96 208 101 147 q 90 353 90 269 q 99 522 90 451 q 137 635 107 592 q 231 699 167 679 q 403 719 294 719 q 537 707 485 719 q 619 668 589 694 q 665 598 650 642 q 683 494 679 554 q 688 354 688 433 l 688 317 l 203 317 q 210 199 203 244 q 238 128 217 153 q 306 93 260 103 q 433 83 353 83 q 507 85 467 83 q 588 92 547 88 q 660 100 628 96 l 660 8 q 588 -1 631 3 q 499 -8 546 -6 q 408 -11 453 -11 m 578 374 l 578 411 q 569 526 578 483 q 541 590 561 568 q 486 618 521 611 q 400 625 451 625 q 294 616 333 625 q 236 583 256 607 q 210 515 217 560 q 203 397 203 471 l 604 397 l 578 374 m 339 -267 l 339 -161 l 439 -161 l 439 -267 l 339 -267 z "},"è":{"ha":776,"x_min":90,"x_max":688,"o":"m 408 -11 q 265 0 322 -11 q 172 37 207 11 q 119 105 138 63 q 96 208 101 147 q 90 353 90 269 q 99 522 90 451 q 137 635 107 592 q 231 699 167 679 q 403 719 294 719 q 537 707 485 719 q 619 668 589 694 q 665 598 650 642 q 683 494 679 554 q 688 354 688 433 l 688 317 l 203 317 q 210 199 203 244 q 238 128 217 153 q 306 93 260 103 q 433 83 353 83 q 507 85 467 83 q 588 92 547 88 q 660 100 628 96 l 660 8 q 588 -1 631 3 q 499 -8 546 -6 q 408 -11 453 -11 m 578 374 l 578 411 q 569 526 578 483 q 541 590 561 568 q 486 618 521 611 q 400 625 451 625 q 294 616 333 625 q 236 583 256 607 q 210 515 217 560 q 203 397 203 471 l 604 397 l 578 374 m 394 826 l 215 1014 l 215 1021 l 338 1021 l 478 833 l 478 826 l 394 826 z "},"ẻ":{"ha":776,"x_min":90,"x_max":688,"o":"m 408 -11 q 265 0 322 -11 q 172 37 207 11 q 119 105 138 63 q 96 208 101 147 q 90 353 90 269 q 99 522 90 451 q 137 635 107 592 q 231 699 167 679 q 403 719 294 719 q 537 707 485 719 q 619 668 589 694 q 665 598 650 642 q 683 494 679 554 q 688 354 688 433 l 688 317 l 203 317 q 210 199 203 244 q 238 128 217 153 q 306 93 260 103 q 433 83 353 83 q 507 85 467 83 q 588 92 547 88 q 660 100 628 96 l 660 8 q 588 -1 631 3 q 499 -8 546 -6 q 408 -11 453 -11 m 578 374 l 578 411 q 569 526 578 483 q 541 590 561 568 q 486 618 521 611 q 400 625 451 625 q 294 616 333 625 q 236 583 256 607 q 210 515 217 560 q 203 397 203 471 l 604 397 l 578 374 m 333 807 l 333 821 q 339 856 333 842 q 358 879 344 869 q 394 896 371 889 l 426 904 q 473 921 457 914 q 493 937 489 928 q 497 963 497 946 q 487 999 497 989 q 450 1013 476 1010 q 376 1015 424 1015 q 335 1015 360 1015 q 283 1013 310 1014 q 233 1008 256 1011 l 233 1068 q 314 1076 268 1072 q 396 1079 360 1079 q 496 1072 456 1079 q 556 1042 536 1065 q 576 971 576 1019 q 569 921 576 940 q 544 889 563 901 q 492 867 526 876 l 457 857 q 418 844 431 850 q 403 831 406 839 q 400 807 400 824 l 333 807 z "},"ȇ":{"ha":776,"x_min":90,"x_max":688,"o":"m 408 -11 q 265 0 322 -11 q 172 37 207 11 q 119 105 138 63 q 96 208 101 147 q 90 353 90 269 q 99 522 90 451 q 137 635 107 592 q 231 699 167 679 q 403 719 294 719 q 537 707 485 719 q 619 668 589 694 q 665 598 650 642 q 683 494 679 554 q 688 354 688 433 l 688 317 l 203 317 q 210 199 203 244 q 238 128 217 153 q 306 93 260 103 q 433 83 353 83 q 507 85 467 83 q 588 92 547 88 q 660 100 628 96 l 660 8 q 588 -1 631 3 q 499 -8 546 -6 q 408 -11 453 -11 m 578 374 l 578 411 q 569 526 578 483 q 541 590 561 568 q 486 618 521 611 q 400 625 451 625 q 294 616 333 625 q 236 583 256 607 q 210 515 217 560 q 203 397 203 471 l 604 397 l 578 374 m 397 1026 q 503 1012 465 1026 q 560 970 542 997 q 582 907 578 943 q 586 826 586 871 l 514 826 q 509 897 514 868 q 480 941 504 926 q 397 956 456 956 q 314 941 339 956 q 283 897 289 926 q 278 826 278 868 l 204 826 q 209 907 204 871 q 232 970 214 943 q 290 1012 250 997 q 397 1026 329 1026 z "},"ē":{"ha":776,"x_min":90,"x_max":688,"o":"m 408 -11 q 265 0 322 -11 q 172 37 207 11 q 119 105 138 63 q 96 208 101 147 q 90 353 90 269 q 99 522 90 451 q 137 635 107 592 q 231 699 167 679 q 403 719 294 719 q 537 707 485 719 q 619 668 589 694 q 665 598 650 642 q 683 494 679 554 q 688 354 688 433 l 688 317 l 203 317 q 210 199 203 244 q 238 128 217 153 q 306 93 260 103 q 433 83 353 83 q 507 85 467 83 q 588 92 547 88 q 660 100 628 96 l 660 8 q 588 -1 631 3 q 499 -8 546 -6 q 408 -11 453 -11 m 578 374 l 578 411 q 569 526 578 483 q 541 590 561 568 q 486 618 521 611 q 400 625 451 625 q 294 616 333 625 q 236 583 256 607 q 210 515 217 560 q 203 397 203 471 l 604 397 l 578 374 m 196 872 l 196 951 l 597 951 l 597 872 l 196 872 z "},"ę":{"ha":776,"x_min":90,"x_max":688,"o":"m 408 -11 q 265 0 322 -11 q 172 37 207 11 q 119 105 138 63 q 96 208 101 147 q 90 353 90 269 q 99 522 90 451 q 137 635 107 592 q 231 699 167 679 q 403 719 294 719 q 537 707 485 719 q 619 668 589 694 q 665 598 650 642 q 683 494 679 554 q 688 354 688 433 l 688 317 l 203 317 q 210 199 203 244 q 238 128 217 153 q 306 93 260 103 q 433 83 353 83 q 507 85 467 83 q 588 92 547 88 q 660 100 628 96 l 660 8 q 588 -1 631 3 q 499 -8 546 -6 q 408 -11 453 -11 m 578 374 l 578 411 q 569 526 578 483 q 541 590 561 568 q 486 618 521 611 q 400 625 451 625 q 294 616 333 625 q 236 583 256 607 q 210 515 217 560 q 203 397 203 471 l 604 397 l 578 374 m 607 -269 q 526 -255 556 -269 q 485 -216 497 -240 q 474 -162 474 -192 q 503 -67 474 -118 q 578 22 532 -17 l 660 8 q 621 -31 642 -6 q 586 -84 600 -56 q 572 -139 572 -112 q 586 -178 572 -162 q 638 -194 600 -194 q 648 -194 642 -194 q 661 -193 654 -194 l 661 -267 q 634 -269 647 -268 q 607 -269 621 -269 z "},"ẽ":{"ha":776,"x_min":90,"x_max":688,"o":"m 408 -11 q 265 0 322 -11 q 172 37 207 11 q 119 105 138 63 q 96 208 101 147 q 90 353 90 269 q 99 522 90 451 q 137 635 107 592 q 231 699 167 679 q 403 719 294 719 q 537 707 485 719 q 619 668 589 694 q 665 598 650 642 q 683 494 679 554 q 688 354 688 433 l 688 317 l 203 317 q 210 199 203 244 q 238 128 217 153 q 306 93 260 103 q 433 83 353 83 q 507 85 467 83 q 588 92 547 88 q 660 100 628 96 l 660 8 q 588 -1 631 3 q 499 -8 546 -6 q 408 -11 453 -11 m 578 374 l 578 411 q 569 526 578 483 q 541 590 561 568 q 486 618 521 611 q 400 625 451 625 q 294 616 333 625 q 236 583 256 607 q 210 515 217 560 q 203 397 203 471 l 604 397 l 578 374 m 158 836 q 165 925 158 890 q 193 977 171 960 q 261 994 215 994 q 338 984 300 994 q 413 961 375 974 q 469 943 442 951 q 524 935 496 935 q 560 951 554 935 q 567 1010 567 967 l 632 1010 q 626 921 632 956 q 598 869 619 886 q 531 851 576 851 q 453 863 489 851 q 379 885 418 874 q 322 903 350 894 q 268 911 294 911 q 231 895 238 911 q 225 836 225 879 l 158 836 z "},"ə":{"ha":776,"x_min":90,"x_max":688,"o":"m 368 719 q 512 708 454 719 q 604 672 569 697 q 657 603 639 646 q 681 500 675 561 q 686 356 686 439 q 678 187 686 257 q 640 73 669 117 q 546 9 610 29 q 374 -11 482 -11 q 240 1 292 -11 q 157 40 188 14 q 112 110 126 67 q 93 215 97 154 q 89 354 89 275 l 89 392 l 574 392 q 567 510 574 464 q 538 581 560 556 q 470 615 517 606 q 343 625 424 625 q 269 623 310 625 q 189 617 229 621 q 117 608 149 613 l 117 700 q 188 710 146 706 q 277 717 231 714 q 368 719 324 719 m 199 335 l 199 297 q 207 183 199 225 q 235 119 215 140 q 290 90 256 97 q 376 83 325 83 q 482 92 443 83 q 540 125 521 101 q 567 193 560 149 q 574 311 574 238 l 172 311 l 199 335 z "},"f":{"ha":517,"x_min":36,"x_max":476,"o":"m 181 0 l 181 613 l 36 613 l 36 708 l 181 708 l 181 821 q 190 919 181 881 q 222 980 200 957 q 278 1014 243 1003 q 362 1028 313 1025 q 476 1031 411 1031 l 476 944 q 383 940 419 944 q 328 926 347 936 q 301 894 308 915 q 293 840 293 874 l 293 708 l 476 708 l 476 613 l 293 613 l 293 0 l 181 0 z "},"g":{"ha":819,"x_min":90,"x_max":700,"o":"m 379 -286 q 288 -284 335 -286 q 200 -279 242 -282 q 129 -274 158 -276 l 129 -182 q 203 -187 163 -185 q 283 -190 243 -189 q 354 -190 322 -190 q 481 -179 435 -190 q 550 -140 526 -168 q 580 -62 574 -112 q 586 65 586 -12 l 586 94 l 579 94 q 529 33 561 56 q 453 2 497 11 q 351 -7 408 -7 q 223 10 274 -7 q 143 66 172 26 q 102 176 114 106 q 90 354 90 247 q 103 533 90 463 q 144 644 115 604 q 224 702 174 685 q 353 719 275 719 q 446 712 400 719 q 528 679 492 704 q 585 607 565 654 l 593 607 l 599 708 l 700 708 l 700 92 q 690 -83 700 -11 q 647 -200 679 -156 q 551 -265 615 -244 q 379 -286 488 -286 m 396 92 q 506 110 465 92 q 564 169 546 129 q 583 249 579 203 q 586 356 586 294 q 583 459 586 414 q 565 536 581 504 q 506 600 547 581 q 396 619 464 619 q 294 610 332 619 q 236 575 256 601 q 210 496 217 549 q 203 356 203 443 q 210 215 203 268 q 236 136 217 163 q 294 101 256 110 q 396 92 332 92 z "},"ǵ":{"ha":819,"x_min":90,"x_max":700,"o":"m 379 -286 q 288 -284 335 -286 q 200 -279 242 -282 q 129 -274 158 -276 l 129 -182 q 203 -187 163 -185 q 283 -190 243 -189 q 354 -190 322 -190 q 481 -179 435 -190 q 550 -140 526 -168 q 580 -62 574 -112 q 586 65 586 -12 l 586 94 l 579 94 q 529 33 561 56 q 453 2 497 11 q 351 -7 408 -7 q 223 10 274 -7 q 143 66 172 26 q 102 176 114 106 q 90 354 90 247 q 103 533 90 463 q 144 644 115 604 q 224 702 174 685 q 353 719 275 719 q 446 712 400 719 q 528 679 492 704 q 585 607 565 654 l 593 607 l 599 708 l 700 708 l 700 92 q 690 -83 700 -11 q 647 -200 679 -156 q 551 -265 615 -244 q 379 -286 488 -286 m 396 92 q 506 110 465 92 q 564 169 546 129 q 583 249 579 203 q 586 356 586 294 q 583 459 586 414 q 565 536 581 504 q 506 600 547 581 q 396 619 464 619 q 294 610 332 619 q 236 575 256 601 q 210 496 217 549 q 203 356 203 443 q 210 215 203 268 q 236 136 217 163 q 294 101 256 110 q 396 92 332 92 m 304 826 l 304 833 l 444 1021 l 567 1021 l 567 1014 l 388 826 l 304 826 z "},"ğ":{"ha":819,"x_min":90,"x_max":700,"o":"m 379 -286 q 288 -284 335 -286 q 200 -279 242 -282 q 129 -274 158 -276 l 129 -182 q 203 -187 163 -185 q 283 -190 243 -189 q 354 -190 322 -190 q 481 -179 435 -190 q 550 -140 526 -168 q 580 -62 574 -112 q 586 65 586 -12 l 586 94 l 579 94 q 529 33 561 56 q 453 2 497 11 q 351 -7 408 -7 q 223 10 274 -7 q 143 66 172 26 q 102 176 114 106 q 90 354 90 247 q 103 533 90 463 q 144 644 115 604 q 224 702 174 685 q 353 719 275 719 q 446 712 400 719 q 528 679 492 704 q 585 607 565 654 l 593 607 l 599 708 l 700 708 l 700 92 q 690 -83 700 -11 q 647 -200 679 -156 q 551 -265 615 -244 q 379 -286 488 -286 m 396 92 q 506 110 465 92 q 564 169 546 129 q 583 249 579 203 q 586 356 586 294 q 583 459 586 414 q 565 536 581 504 q 506 600 547 581 q 396 619 464 619 q 294 610 332 619 q 236 575 256 601 q 210 496 217 549 q 203 356 203 443 q 210 215 203 268 q 236 136 217 163 q 294 101 256 110 q 396 92 332 92 m 408 814 q 301 829 340 814 q 245 871 263 844 q 223 934 228 897 q 218 1014 218 971 l 292 1014 q 297 944 292 972 q 326 900 301 915 q 408 885 350 885 q 491 900 467 885 q 521 944 515 915 q 526 1014 526 972 l 600 1014 q 595 934 600 971 q 572 871 590 897 q 515 829 554 844 q 408 814 476 814 z "},"ǧ":{"ha":819,"x_min":90,"x_max":700,"o":"m 379 -286 q 288 -284 335 -286 q 200 -279 242 -282 q 129 -274 158 -276 l 129 -182 q 203 -187 163 -185 q 283 -190 243 -189 q 354 -190 322 -190 q 481 -179 435 -190 q 550 -140 526 -168 q 580 -62 574 -112 q 586 65 586 -12 l 586 94 l 579 94 q 529 33 561 56 q 453 2 497 11 q 351 -7 408 -7 q 223 10 274 -7 q 143 66 172 26 q 102 176 114 106 q 90 354 90 247 q 103 533 90 463 q 144 644 115 604 q 224 702 174 685 q 353 719 275 719 q 446 712 400 719 q 528 679 492 704 q 585 607 565 654 l 593 607 l 599 708 l 700 708 l 700 92 q 690 -83 700 -11 q 647 -200 679 -156 q 551 -265 615 -244 q 379 -286 488 -286 m 396 92 q 506 110 465 92 q 564 169 546 129 q 583 249 579 203 q 586 356 586 294 q 583 459 586 414 q 565 536 581 504 q 506 600 547 581 q 396 619 464 619 q 294 610 332 619 q 236 575 256 601 q 210 496 217 549 q 203 356 203 443 q 210 215 203 268 q 236 136 217 163 q 294 101 256 110 q 396 92 332 92 m 351 826 l 210 1013 l 210 1021 l 288 1021 l 410 886 l 533 1021 l 611 1021 l 611 1013 l 469 826 l 351 826 z "},"ĝ":{"ha":819,"x_min":90,"x_max":700,"o":"m 379 -286 q 288 -284 335 -286 q 200 -279 242 -282 q 129 -274 158 -276 l 129 -182 q 203 -187 163 -185 q 283 -190 243 -189 q 354 -190 322 -190 q 481 -179 435 -190 q 550 -140 526 -168 q 580 -62 574 -112 q 586 65 586 -12 l 586 94 l 579 94 q 529 33 561 56 q 453 2 497 11 q 351 -7 408 -7 q 223 10 274 -7 q 143 66 172 26 q 102 176 114 106 q 90 354 90 247 q 103 533 90 463 q 144 644 115 604 q 224 702 174 685 q 353 719 275 719 q 446 712 400 719 q 528 679 492 704 q 585 607 565 654 l 593 607 l 599 708 l 700 708 l 700 92 q 690 -83 700 -11 q 647 -200 679 -156 q 551 -265 615 -244 q 379 -286 488 -286 m 396 92 q 506 110 465 92 q 564 169 546 129 q 583 249 579 203 q 586 356 586 294 q 583 459 586 414 q 565 536 581 504 q 506 600 547 581 q 396 619 464 619 q 294 610 332 619 q 236 575 256 601 q 210 496 217 549 q 203 356 203 443 q 210 215 203 268 q 236 136 217 163 q 294 101 256 110 q 396 92 332 92 m 210 826 l 210 835 l 351 1021 l 469 1021 l 611 835 l 611 826 l 533 826 l 410 960 l 288 826 l 210 826 z "},"ģ":{"ha":819,"x_min":90,"x_max":700,"o":"m 379 -286 q 288 -284 335 -286 q 200 -279 242 -282 q 129 -274 158 -276 l 129 -182 q 203 -187 163 -185 q 283 -190 243 -189 q 354 -190 322 -190 q 481 -179 435 -190 q 550 -140 526 -168 q 580 -62 574 -112 q 586 65 586 -12 l 586 94 l 579 94 q 529 33 561 56 q 453 2 497 11 q 351 -7 408 -7 q 223 10 274 -7 q 143 66 172 26 q 102 176 114 106 q 90 354 90 247 q 103 533 90 463 q 144 644 115 604 q 224 702 174 685 q 353 719 275 719 q 446 712 400 719 q 528 679 492 704 q 585 607 565 654 l 593 607 l 599 708 l 700 708 l 700 92 q 690 -83 700 -11 q 647 -200 679 -156 q 551 -265 615 -244 q 379 -286 488 -286 m 396 92 q 506 110 465 92 q 564 169 546 129 q 583 249 579 203 q 586 356 586 294 q 583 459 586 414 q 565 536 581 504 q 506 600 547 581 q 396 619 464 619 q 294 610 332 619 q 236 575 256 601 q 210 496 217 549 q 203 356 203 443 q 210 215 203 268 q 236 136 217 163 q 294 101 256 110 q 396 92 332 92 m 347 803 l 347 914 q 353 997 347 965 q 375 1047 358 1029 q 422 1073 392 1065 q 503 1081 453 1081 l 503 1028 q 438 1015 453 1028 q 422 958 422 1001 l 422 935 l 474 935 l 474 803 l 347 803 z "},"ġ":{"ha":819,"x_min":90,"x_max":700,"o":"m 379 -286 q 288 -284 335 -286 q 200 -279 242 -282 q 129 -274 158 -276 l 129 -182 q 203 -187 163 -185 q 283 -190 243 -189 q 354 -190 322 -190 q 481 -179 435 -190 q 550 -140 526 -168 q 580 -62 574 -112 q 586 65 586 -12 l 586 94 l 579 94 q 529 33 561 56 q 453 2 497 11 q 351 -7 408 -7 q 223 10 274 -7 q 143 66 172 26 q 102 176 114 106 q 90 354 90 247 q 103 533 90 463 q 144 644 115 604 q 224 702 174 685 q 353 719 275 719 q 446 712 400 719 q 528 679 492 704 q 585 607 565 654 l 593 607 l 599 708 l 700 708 l 700 92 q 690 -83 700 -11 q 647 -200 679 -156 q 551 -265 615 -244 q 379 -286 488 -286 m 396 92 q 506 110 465 92 q 564 169 546 129 q 583 249 579 203 q 586 356 586 294 q 583 459 586 414 q 565 536 581 504 q 506 600 547 581 q 396 619 464 619 q 294 610 332 619 q 236 575 256 601 q 210 496 217 549 q 203 356 203 443 q 210 215 203 268 q 236 136 217 163 q 294 101 256 110 q 396 92 332 92 m 356 872 l 356 983 l 463 983 l 463 872 l 356 872 z "},"h":{"ha":832,"x_min":119,"x_max":711,"o":"m 119 0 l 119 1032 l 233 1032 l 233 615 l 240 615 q 281 668 254 644 q 353 705 307 692 q 469 718 399 718 q 595 702 547 718 q 669 653 643 686 q 703 567 694 619 q 711 443 711 515 l 711 0 l 599 0 l 599 404 q 592 519 599 476 q 568 583 586 561 q 515 611 550 604 q 424 618 481 618 q 317 601 356 618 q 260 551 278 583 q 238 472 242 518 q 233 365 233 425 l 233 0 l 119 0 z "},"ħ":{"ha":832,"x_min":28,"x_max":711,"o":"m 28 879 l 28 956 l 422 956 l 422 879 l 28 879 m 119 0 l 119 1032 l 233 1032 l 233 615 l 240 615 q 281 668 254 644 q 353 705 307 692 q 469 718 399 718 q 595 702 547 718 q 669 653 643 686 q 703 567 694 619 q 711 443 711 515 l 711 0 l 599 0 l 599 404 q 592 519 599 476 q 568 583 586 561 q 515 611 550 604 q 424 618 481 618 q 317 601 356 618 q 260 551 278 583 q 238 472 242 518 q 233 365 233 425 l 233 0 l 119 0 z "},"ĥ":{"ha":832,"x_min":-24,"x_max":711,"o":"m 119 0 l 119 1032 l 233 1032 l 233 615 l 240 615 q 281 668 254 644 q 353 705 307 692 q 469 718 399 718 q 595 702 547 718 q 669 653 643 686 q 703 567 694 619 q 711 443 711 515 l 711 0 l 599 0 l 599 404 q 592 519 599 476 q 568 583 586 561 q 515 611 550 604 q 424 618 481 618 q 317 601 356 618 q 260 551 278 583 q 238 472 242 518 q 233 365 233 425 l 233 0 l 119 0 m -24 1074 l -24 1082 l 118 1269 l 236 1269 l 378 1082 l 378 1074 l 300 1074 l 176 1208 l 54 1074 l -24 1074 z "},"ḥ":{"ha":832,"x_min":119,"x_max":711,"o":"m 119 0 l 119 1032 l 233 1032 l 233 615 l 240 615 q 281 668 254 644 q 353 705 307 692 q 469 718 399 718 q 595 702 547 718 q 669 653 643 686 q 703 567 694 619 q 711 443 711 515 l 711 0 l 599 0 l 599 404 q 592 519 599 476 q 568 583 586 561 q 515 611 550 604 q 424 618 481 618 q 317 601 356 618 q 260 551 278 583 q 238 472 242 518 q 233 365 233 425 l 233 0 l 119 0 m 365 -267 l 365 -161 l 465 -161 l 465 -267 l 365 -267 z "},"i":{"ha":353,"x_min":117,"x_max":238,"o":"m 117 908 l 117 1032 l 238 1032 l 238 908 l 117 908 m 119 0 l 119 708 l 233 708 l 233 0 l 119 0 z "},"ı":{"ha":353,"x_min":119,"x_max":233,"o":"m 119 0 l 119 708 l 233 708 l 233 0 l 119 0 z "},"í":{"ha":353,"x_min":71,"x_max":333,"o":"m 119 0 l 119 708 l 233 708 l 233 0 l 119 0 m 71 826 l 71 833 l 211 1021 l 333 1021 l 333 1014 l 154 826 l 71 826 z "},"ĭ":{"ha":353,"x_min":-15,"x_max":367,"o":"m 119 0 l 119 708 l 233 708 l 233 0 l 119 0 m 175 814 q 68 829 107 814 q 12 871 29 844 q -10 934 -6 897 q -15 1014 -15 971 l 58 1014 q 63 944 58 972 q 92 900 68 915 q 175 885 117 885 q 258 900 233 885 q 288 944 282 915 q 293 1014 293 972 l 367 1014 q 362 934 367 971 q 339 871 357 897 q 282 829 321 844 q 175 814 243 814 z "},"ǐ":{"ha":353,"x_min":-24,"x_max":378,"o":"m 119 0 l 119 708 l 233 708 l 233 0 l 119 0 m 118 826 l -24 1013 l -24 1021 l 54 1021 l 176 886 l 300 1021 l 378 1021 l 378 1013 l 236 826 l 118 826 z "},"î":{"ha":353,"x_min":-24,"x_max":378,"o":"m 119 0 l 119 708 l 233 708 l 233 0 l 119 0 m -24 826 l -24 835 l 118 1021 l 236 1021 l 378 835 l 378 826 l 300 826 l 176 960 l 54 826 l -24 826 z "},"ȉ":{"ha":353,"x_min":-118,"x_max":365,"o":"m 119 0 l 119 708 l 233 708 l 233 0 l 119 0 m 364 826 l 292 826 l 133 989 l 133 996 l 240 996 l 364 833 l 364 826 m 113 826 l 40 826 l -118 989 l -118 996 l -10 996 l 113 833 l 113 826 z "},"ï":{"ha":353,"x_min":-21,"x_max":372,"o":"m 119 0 l 119 708 l 233 708 l 233 0 l 119 0 m -21 872 l -21 983 l 86 983 l 86 872 l -21 872 m 267 872 l 267 983 l 372 983 l 372 872 l 267 872 z "},"ị":{"ha":353,"x_min":117,"x_max":238,"o":"m 117 908 l 117 1032 l 238 1032 l 238 908 l 117 908 m 119 0 l 119 708 l 233 708 l 233 0 l 119 0 m 126 -267 l 126 -161 l 226 -161 l 226 -267 l 126 -267 z "},"ì":{"ha":353,"x_min":-4,"x_max":258,"o":"m 119 0 l 119 708 l 233 708 l 233 0 l 119 0 m 175 826 l -4 1014 l -4 1021 l 118 1021 l 258 833 l 258 826 l 175 826 z "},"ỉ":{"ha":353,"x_min":14,"x_max":358,"o":"m 119 0 l 119 708 l 233 708 l 233 0 l 119 0 m 114 807 l 114 821 q 119 856 114 842 q 138 879 125 869 q 175 896 151 889 l 207 904 q 253 921 238 914 q 274 937 269 928 q 278 963 278 946 q 267 999 278 989 q 231 1013 257 1010 q 157 1015 204 1015 q 115 1015 140 1015 q 63 1013 90 1014 q 14 1008 36 1011 l 14 1068 q 94 1076 49 1072 q 176 1079 140 1079 q 276 1072 236 1079 q 337 1042 317 1065 q 357 971 357 1019 q 350 921 357 940 q 325 889 343 901 q 272 867 307 876 l 238 857 q 199 844 211 850 q 183 831 186 839 q 181 807 181 824 l 114 807 z "},"ȋ":{"ha":353,"x_min":-15,"x_max":367,"o":"m 119 0 l 119 708 l 233 708 l 233 0 l 119 0 m 178 1026 q 284 1012 246 1026 q 340 970 322 997 q 363 907 358 943 q 367 826 367 871 l 294 826 q 290 897 294 868 q 260 941 285 926 q 178 956 236 956 q 94 941 119 956 q 64 897 69 926 q 58 826 58 868 l -15 826 q -10 907 -15 871 q 13 970 -6 943 q 70 1012 31 997 q 178 1026 110 1026 z "},"ĳ":{"ha":706,"x_min":117,"x_max":590,"o":"m 117 908 l 117 1032 l 238 1032 l 238 908 l 117 908 m 119 0 l 119 708 l 233 708 l 233 0 l 119 0 m 469 908 l 469 1032 l 590 1032 l 590 908 l 469 908 m 340 -278 l 340 -189 q 430 -182 401 -189 q 465 -158 458 -175 q 472 -112 472 -142 l 472 708 l 586 708 l 586 -87 q 574 -192 586 -153 q 532 -249 561 -231 q 456 -272 503 -267 q 340 -278 410 -278 z "},"ī":{"ha":353,"x_min":-25,"x_max":376,"o":"m 119 0 l 119 708 l 233 708 l 233 0 l 119 0 m -25 872 l -25 951 l 376 951 l 376 872 l -25 872 z "},"į":{"ha":353,"x_min":47,"x_max":238,"o":"m 117 908 l 117 1032 l 238 1032 l 238 908 l 117 908 m 119 0 l 119 708 l 233 708 l 233 0 l 119 0 m 181 -278 q 100 -263 129 -278 q 59 -224 71 -249 q 47 -171 47 -200 q 76 -76 47 -126 q 151 14 106 -25 l 233 0 q 194 -39 215 -14 q 160 -92 174 -64 q 146 -147 146 -121 q 160 -187 146 -171 q 211 -203 174 -203 q 222 -203 215 -203 q 235 -201 228 -203 l 235 -275 q 208 -277 221 -276 q 181 -278 194 -278 z "},"ĩ":{"ha":353,"x_min":-62,"x_max":413,"o":"m 119 0 l 119 708 l 233 708 l 233 0 l 119 0 m -62 836 q -56 925 -62 890 q -28 977 -50 960 q 40 994 -6 994 q 117 984 79 994 q 192 961 154 974 q 248 943 221 951 q 303 935 275 935 q 340 951 333 935 q 346 1010 346 967 l 411 1010 q 405 921 411 956 q 377 869 399 886 q 310 851 356 851 q 233 863 268 851 q 158 885 197 874 q 101 903 129 894 q 47 911 74 911 q 10 895 17 911 q 4 836 4 879 l -62 836 z "},"j":{"ha":353,"x_min":-12,"x_max":238,"o":"m 117 908 l 117 1032 l 238 1032 l 238 908 l 117 908 m -12 -278 l -12 -189 q 77 -182 49 -189 q 113 -158 106 -175 q 119 -112 119 -142 l 119 708 l 233 708 l 233 -87 q 221 -192 233 -153 q 179 -249 208 -231 q 103 -272 150 -267 q -12 -278 57 -278 z "},"ȷ":{"ha":353,"x_min":-12,"x_max":233,"o":"m -12 -278 l -12 -189 q 77 -182 49 -189 q 113 -158 106 -175 q 119 -112 119 -142 l 119 708 l 233 708 l 233 -87 q 221 -192 233 -153 q 179 -249 208 -231 q 103 -272 150 -267 q -12 -278 57 -278 z "}}}
